<svg xmlns="http://www.w3.org/2000/svg" viewBox="0 0 4603.51 2588.19">
  <defs>
    <style>
      .cls-1,
      .cls-2{fill:url(#gradient);;stroke:#none;stroke-width:3px;}
      .cls-2{stroke-miterlimit:10;}
      .stop1{stop-color:#19b1b6;}
      .stop2{stop-color:#0371be;}
    </style>
    <linearGradient id="gradient">
      <stop class="stop1" offset="0%"/>
      <stop class="stop2" offset="100%"/>
    </linearGradient>
  </defs>
  <g>
    <path id="Volga" class="cls-1" d="M1229.42,2644.47h25.41l8.34-3.28,11.61,5.09H1282l5.07,9.06-3.62,9.07-13.43,6.54,1.09,9.06h7.62l2.14,11.25,4.65,10.37,10,10,6.79,6.79,2.87,12.16,10,10-10,13.58-9.31,9.3H1280.2l-16.1,1.07-8.22-8.22-5.73-11.63h-7.33l-7.69,7.7h-12.51l-13.95-14-2.68-8-10.56-10.55v-18.24l-8.94-8.94H1170l-13.59,5-5-10.73-13.58-10.73-12.17-6.44-16.45,7.87-15,2.15-12.16-3.58-8.58-16.46-12.16-10.72-8.59,14.3h-9.29v-11.44l8.58-8.58-5.73-12.16-7.15-18.6-2.86-19.32-10.73-12.87-17.17-6.44-5-12.16-9.3-9.3-17.17,2.87h-10v-13.6l-5-14.3-17.53-3.23-8.94,8.95L919,2538.9,904.66,2531h-15l-7.15,10.73H851l-3.58,7.87-9.3,9.3-1.43,13.59-17.52-3.21-10.37-10.38v-14.31l4.65-13.95-7.52-7.51H793.79l-.51-14.33-8.72-8.73-2-10.71H772.35l-6.73-6.73-3-14.45-10.22-3.74-5.23,5.23-9.47-9,13-12.47-2-19.93-16.95-16.45-14.45.5v-8.48l-9.47-5-15.95-2L687.36,2380l1-12.47,5.23-5.23-5.73-14.71,10.07-4.55,6.89-.37,7.08-7.08,12.51-6.7,14.15-8.71,4-7.26h12l1.46-22.49-5.81-10.52,2.54-18.87-2.54-11.25,14.88-16,6.89,3.26,8.16-5.62,6.35-6.35v-5.62h8.16l11.07-11.06,8.71-2.18,6.89-6.9-2.54-6.53v-6.89l-11.61-9.43v-13.07l8.1-8.16,11.92-2.51,8.78-8.78,14.43-2.51,15.69-5,18.51-2.19,9.1-9.1,3.76-15,8.15-8.16,10,10H930l5.65-14.43h14.43l16.94,3.76,22-5.65,8.16-8.15h12.55l5,11.92,7.85,7.84h13.48l4.87,4.86,11.14-11.13,17.25-6,7.21,7.21,8.47-9.09h20.08l2.51-33.88,8.47-9.72,4.7-4.71v-13.17l10-5-15.69-16.32,7.53-6.9,13.55,6,25.45-25.45,7.69-6.62,5.36,1.79,13.59,16.1-2.5,7.87,6.43,3.21,1.33,10.88-8.78,8.78v14.43l-13.8,3.13V2053l-9.41,9.41v10.66l7.52,7.53v10.66l3.14,11.3-4.39,10,5,5,8.16-10,5-14.43,12.55-3.14,13.18,6.28,8.15,8.15,11.29-10.66,6,5.95,3.45,7.85,10.67-1.26,6.59-6.59h11.6l10.93-4.31v-8.59l-7.24-7.24,6.7-13.14,14.49,8.05,5.1-5.1,5.09,5.1,7-7,9.12,3.22,3.76,5.9-1.61,9.12,7.51,9.12,9.12-3.22,15.56,7,10.19,10.19,11.27-5.9,12.87,4.83,7.25-7.25,7.24,2.42,5.1,5.1,7.24-2.42,4.29-9.12h7.51l16.63,11.27,16.09,8.58,18.24,7,24.68,3.75v11.27l-14.48,7.51v14.48l-8,19.85-14.49,12.88-10.73,16.09-9.65,9.66h-12.34L1422,2229v18.24l9.12,14.49-4.83,16.09-7.24,7.24v5.1l7.78,8.05-8.85,8.85-8.86,7.24-12.34-2.69-12.87,8.59.53,7,5.64,5.64-7.78,7.77-5.37,5.37-8.58-12.88h-9.66l-7.51,12.34-3.22,13.41-11.8,5.9h-14l-4.29-4.29-4.83,9.66v12.34l-5.63,5.64-9.37,10.37,9.19,12.72,16.6,12h10.25l8.46,12.35,9.09-9.08,2.9,12-3.26,10.88-8.71,16v8.7l-16.14,3.81-9.62,9.61L1302,2482v-9.8l-8-8-11.61-5.81-10.88-3.26-15.6,11.61,2.9,13.78,6.89,6.89,2.18,19.24,9.07,14.51,17.78,1.8,7.61-5.07,17.42,5.44,5.08,15.6v13.78h-8.35l-5.08-6.89-12,1.09V2552l-11.07,3.81-14.69,14.7v8l-9.43,12.69v12.34h-7.62l-9.79,17.78-1.82,10.52-11.25,5.08Z" transform="translate(-98.38 -505.96)"/>
    <path id="Central" class="cls-1" d="M496.23,2013.87l3.58-14.3,4.29-15.74-10.73-10.73,7.15-5-.71-12.16,4.29-17.17,7.87-18.6,5.72-15.74,14.31-4.29,5-10.73L550.59,1878l12.16-1.08,9.66,11.81,4.29-12.16h10L591,1869l3.93-8.59,1.43-15,6.44-6.44,1.08-8.94,11.09-9.3,4.29,9.3,6.48,6.48h12.49l6.24,6.24,10.88-.69,8.32,5.09H679l8.09,8.09,10,1.16,6-6h12l7.64-7.64h9.48l7.86,3.93s3.7,5.79,5.78,5.79,2.55,10.4,2.55,10.4h10.18l6.94,8.33h9.25l1.85-6,6,6s9.71,4.62,11.56,4.62,10.18,4.63,10.18,4.63l6.47,3.7,8.33,3.24,11.57-2.31,10.17,3.23-3.7,12v14.34l8.81-1.6,13.18-1.26,7.53,7.54,17.88,12.23,6.9-6.9,13.48,13.49v28.23l16.95,16.93,15.68-6.89,17.57-4.4,15.68,6.91,14.43-6.91,9.41,20.08,18.5,3.45,14.12,14.12,5,13.8,26.35,13.8,9.73,14.12,6.58-6.59,15.69,3.76,8.78-13.8,16.63,14.75-8.47,9.72-2.51,33.88H1085l-8.47,9.09-7.21-7.21-17.25,6-11.14,11.13-4.87-4.86h-13.48l-7.85-7.84-5-11.92H997.17l-8.16,8.15-22,5.65-16.94-3.76H935.69L930,2112H915.61l-10-10-8.15,8.16-3.76,15-9.1,9.1L866,2136.43l-15.68,5L835.93,2144l-8.78,8.78-11.92,2.51-8.1,8.16v13.07l6.9,4.71,4.71,4.72v6.89l2.54,6.53-6.89,6.9-8.71,2.18-4.35,4.35-6.72,6.71h-8.16v5.62l-6.35,6.35-8.16,5.62-6.89-3.26-8.17,9.26-6.71,6.7,2.54,11.25-2.54,18.87,5.81,10.52-1.46,22.49h-12l-4,7.26-14.15,8.71-12.51,6.7-7.08,7.08-6.89.37-10.07,4.55,5.73,14.71-5.23,5.23H673.9l-11-6-2.5-8-10.47-2-10,9H619.57l-5.23,17.19-16.7,16.69H579.19l-6.48,6.48h-10l-5-7H545.37v-9l-5.51-5.5-12.16-5.72v-15l-9.36-10.54-2.08-2.34L512,2329.32l-10.73-6.44L489.79,2310l4.3-15-4.3-22.18-13.59-10-15.74-12.16-5-16.46-10.72-8.58-3.59-10,9.3-10.73,7.16-15.74v-15l-7.87-14.3-7.87-12.16,7.16-5.72,4.28-10.73h8.59l6.44-5.73,5-19.31,1.43-11.44-5.72-14.31-7.87-7.87-10.73-1.43-7.86-8.58-6.44-9.3-9.65,8.22-7.52-7.51-6.43-10.73,6.43-11.44,13.59-13.59,9.3-10.73,3.57-12.88,10.73-.71,7.87,8.58,4.3,10.73,14.3,5,13.59-4.3Z" transform="translate(-98.38 -505.96)"/>
    <path id="Urals" class="cls-2" d="M1433.27,2602.56l24.32-.71,16.45,5h12.16l13.59,7.16,14.31-2.87,8.23-8.22h7.51l18.59,9.66h19.32l15.74-2.86,12.87,7.15,15.74-4.29H1630l8.59-12.17,15.73,1.44,14.3,8.58h17.89l6.44,12.88h12.87v-8.59l4-8.31,7.24-7.25v-9.65l5.9-1.08,7.51-7.51,3-7.51v-12.6l10.2-10.19,7.77-7.79,13.69-2.41,5.09-5.1v-9.65l-10.73-5.91-3.48-8.31-6.71-6.7-9.66-4.83v-8.05l11.27-5.37L1746,2472l1.07-11.27,8.58-8.58,6.44-10.73,10.73-7.51,11.27,11.27-7,7v8.58l9.66,3.22,12.34,3.76,8,3.75,9.12,5.9h11.81l7.51-7,12.34,6.44,10.73,3.22h17.17l14.21-6.71,11.54-11.53,6.44-9.13,20.27-11.86,2.2-15,19.39-14.1,23.78-6.6-1.32-22.46,8.37-20.71,8.37-16.74,22.9-3.51,17.18,7.48h24.67l6.17,9.25,22.91,2.64,17.83-6.82,16.53,16.51,13.65-3.51,18.95,9.69,5.28-17.62,28.19-11.89,26.43,19.37,16.3-16.29,25.55-11,10.57-17.62-20.26-8.81-18.06-11.89-.08-22,17-16.81,6.08-6.08,1.08-16.1,10.37-10.37V2212l-10.73-15,7.15-13.59,10.38-13.24,9.65-9.66-5-11.44,2.87-15-2.87-17.17-8.22,8.23-8.23-8.23-16.45-3.58-3.57-15,7.15-7.15-1.43-16.45-6.44-12.88-8.58-8.58h-8.58l-7.87-14.3,6.44-5V2021l-5-8.58v-7.16l9.65-8.94-6.08-12.52-15.74-9.3v-10l-6.43-6.44,6.08-10.73-2.33-13-7-7,.35-11.44,10,2.14,2.68-8.76,7.69-7.69,4.65-13.59-5.72-10.73h5.36l3.94-10.38-6.8-16.45v-11.08l-11.08-2.15.35-14-8.58,8.23-4.29-4.29-8.58,7.51-4.65-4.65-1.79-9.3-13.59-2.15-8.94-8.93-2-7.69-6.26-6.26-.71-13.23,13.05-9.84,10.55-10.55,5.37-8.58h14.3v-24.68l1.43-17.17-15.38-8.58-4.11-8.41-3.4,3.4-4.47-9.47,3.75-3.76,6.09-6.08,13.59-2.15-1.43-7.51,6.79-6.79-2.5-9.3-10-5.37-9.66-2.5-5.36-5.36-2.87-7.87h-6.79l-.72-8.58-8.22,8.22,1.07,8.23,2.86,9.3-8.58,7.87-11.45-11.45-7.15-7.15-15,10,5,15.73,10.73,10.73v5.72l12.88,6.44,8.23,8.23,4.64,11.08v8.59l-12.15-11.45-11.09-11.09-11.09,6.8-8.58-7.15-15-11.45v-30.76l12.87-12.87,2.87-18.6v-20.74l3.57-15h-11.44l-5,10.72,5,12.17-5.72,15-8.59,13.59h-15l-17.88,17.88-11.45,11.45,10.37,10.37-1.79,14.66,4.3,13.59,5,15.74-14.3,14.31-6.44,18.59-10,15.74,2.15,22.88-8.59,8.59,2.15,13.59h12.87l5.72,7.87,10.73-5,8.23-8.22,10,10,17.53,6.08,5.72,5.72,9.3,8.58,7.15,14.31-5,11.44,4.3,13.6-4.3,9.3-11.44,3.58,1.43,12.87v8.59l6.08,6.07,16.09,4.65v10l-16.45-3.57-14.3-14.31v-10.73l-.72-17.16,11.45-11.45-8.59-22.17-6.79-6.8-4.65-13.94-16.45,2.14h-15l-9.66,9.66-9.65,9.66,1.43,13.58,3.57,15-4.29,17.16-8.94,9L2000.82,1918l-6.43,6.44v15l-14.31,7.87-17.88,5-4.29,4.29h-9.3s-10.38,4.65-7.52,7.51-2.5,12.52-2.5,12.52h-12.87l-8.59-12.17-12.15.72-14.31-10-10.73-5-10.73-16.45v-13.59l10.73,3.57,7.51,7.51,11.8,7.51,10.73-7.15,17.89,3.58,10-5.72,10.73-15.74,18.6-18.6,15.73-4.29,2.87-26.47,15.73-12.15,2.15-11.45-12.52-12.52-5.36-19,5.72-13.59,7.86-27.18,5-30.76,14.31-21.46,3.57-19.32,4.29-24.32-12.15-10.73,5.72-18.59,20.38-20.39,3.22-26.11,7.16-7.15-6.44-24.32h-15l-8.59-8.59h-17.16l-8.59-12.15-13.59,7.15-7.87,17.17-7.15,17.16-9.3,20.75L1945,1619l-5.36,5.36-15.38,7.51-14.31,5-7.86,10-5,14.31,9.3,2.86v10.73l-6.44,8.58-3.57,17.17V1712l-14.31,7.15-6.79,6.79,7.51,15.38,13.59,9.3-2.86,20,7.86,18.6,11.45,3.57-16.45,15v15l-14.3,8.58-10-15.73v-14.31L1859.92,1785l-11.44-17.89-16.81-16.81-5.61-11.44-5.84,8.58L1809,1758.69l7,6.62,1.43,5.36,5.37,1.79v24.32h-6.8l-3.22,7.87-5.72,2.86-1.07,7.87-1.09,5.36,14.31,7.15v9.3l-13.24,5.37,11.09,11.09-17.17,8.58L1787,1875.1h-13.6l-5,15.74H1744l-22.88,5-22.89,12.88v15.73l-18.75-.71-13.92,2.14-7.51,8.58-13.41,7-13.42,13.41-12.33,1.61V1945.2l-9.12-3.22-11,11L1584,1967.74l-6.44,12.34,2.68,15.55-17.16,10.73-1.61,12.88-14.49,9.12-9.65,18.24,2.68,12.34-5.9,11.26v9.66l-17.71,17.7-2.41,12.61-6.71,6.71-3.76,10.19v11.27l-14.48,7.51v14.48l-8,19.85-14.49,12.88-10.73,16.09-9.65,9.66h-12.34L1422,2229v18.24l9.12,14.49-4.83,16.09-7.24,7.24v5.1l7.78,8.05-8.85,8.85-8.86,7.24-12.34-2.69-12.87,8.59.53,7,5.64,5.64-7.78,7.77-5.37,5.37-8.58-12.88h-9.66l-7.51,12.34-3.22,13.41-11.8,5.9h-14l-4.29-4.29-4.83,9.66v12.34l-5.63,5.64-9.37,10.37,9.19,12.72,16.6,12h10.25l8.46,12.35,9.09-9.08,2.9,12-3.26,10.88-8.71,16v8.7l-16.14,3.81-9.62,9.61L1302,2482v-9.8l-8-8-11.61-5.81-10.88-3.26-15.61,11.61,2.91,13.78,6.89,6.89,2.17,19.24,9.08,14.51,17.77,1.8,7.62-5.07,17.42,5.44,5.08,15.6v13.78h-8.35l-5.08-6.89-12,1.09V2552l-11.07,3.81-14.69,14.7v8l-9.43,12.69v12.34h-7.62l-9.79,17.78-1.82,10.52-11.25,5.08-4.36,7.62h25.4l8.35-3.28,11.61,5.09H1282l5.08,9.06-3.62,9.07-13.43,6.54,1.09,9.06h7.62l2.14,11.25,5.72-15,14.31,3.57,12.16-3.57,5-12.88-5-17.88,12.16-5,18.6-.71,12.16,12.15h10l9-8.93-9.66-9.66-7.87-7.87-7.87-5,10-10-5-10.73,5-15.73h15l16.45,8.58,11.44,10,12.88-3.57Zm704.26-995.25-7.14,7.14-7.79,6.5,7.14,5.19,5.84-5.19h9.09l8.44-7.8-7.79-7.78Zm-23.37-72-5.84,5.19,3.89,5.84,7.79-5.19,9.74,2.6-2.59-5.85Zm-29.86,26-3.24,8.44,5.19,4.55,5.84-7.15-7.79-5.84ZM2014.85,1519l-7.14,5.2,2.59,5.84-5.19,7.14,1.3,4.54,11.69,3.25,11-5.2,6.49.66V1534l-10.38-2.59,5.19-5.85-5.85-8.43-7.13,2.6Z" transform="translate(-98.38 -505.96)"/>
    <path id="Siberia" class="cls-2" d="M2439.17,1031.05l-1.61,10.73-9.66,4.3-14.49,9.65v13.41l5.91,5.91-7.78,7.77-5.1,9.93,7,9.66,2.69,9.65,12.34,10.73,11.26-10.73h7.51l11.27-6.44,13.41-4.29-3.76-12.87v-16.1l8-7-6.7-6.71L2455.8,1045l-4.83-10.73Zm-40.24,6.44-11.27.54-4.82,4.83,3.75,3.75,4,4,8.32-7.78Zm-134.12,11.27-5.36,1.07-3.49,3.49,5.36,5.36,7.25-2.41,4.29-4.29Zm216.12,58.06-14.29,4.55s-8.44,2-10.38,2.59l-11.69,3.9-4.54,9.74-2.6,8.44-5.84,7.14,1.95,8.44-11,8.44,5.2,4.54,7.79-2.6,6.48,9.09.66,8.43,5.84,7.15,14.93,1.29,1.94,8.45,10.39-6.49,5.2,8.43,14.27,5.2,13.64-6.5,6.5-9.09-5.2-10.38-8.44-11.69,6.5-4.55,2.59-11-3.25-12.34,1.3-12.33-15.58-8.43-5.85,7.14-5.18,9.74-4.55-1.95,3.25-12.33ZM2398.39,1119l1.61,11.8v7.51l11.8,3.22,4.83,4.83,7.25-7.25,4-10.46-7-5.36-13.42-3.22Zm-188.16,13.75-3.89,3.9,4.55,2.59,7.14,5.2,1.94-6.5Zm337.56,19.47-6.49.66-9.09,11,.65,9.74-3.89,6.49,2.59,17.53-7.79,7.79.64,17.52-3.88,14.93-3.26,14.94,5.85,3.24,12.34-9.74,7.14-4.54,16.22-8.44,13-1.3,16.23-12.33,7.78-14.93-5.19-13-5.84-9.74-7.79,3.25-7.79-13.63-5.84-5.85-7.14,8.45-4.55,12.33v-9.08l.65-16.24Zm67.51,66.22-6.49,3.89,9.08,4.55,6.49,4.54,7.15-1.94-2-8.44-7.14,1.94Zm-22.53,42.9-11.44,12.15-12.87,9.31-10.73,26.46-3.58,11.45v17.17l5.72,4.29,1.43,12.15h-5l-16.44,5H2524.1l4.3,7.86,8.58,6.44,6.44,8.58-14.3-2.86-14.31,2.86-2.15,11.45-22.18-.71-8.93,8.93v-10.37l6.79-12.87-12.88,2.15-3.57,7.86-15.74,2.14-18.59,4.3-7.16,7.15,12.87,4.3-4.29,5-19.31,5.73-6.79,6.79-26.83,3.93-7.51,7.52-19.67,7.51-7.86,16.44-20-.71.72,10.73,10,.71-10,7.87-7.15,10,6.08,6.09-3.94,8.93,5.73,6.44-8.59,2.15s0-10.73-5.36-5.37l-8.23,8.23,7.16,7.15,8.58,2.87,7.15,10.73-7.15,7.15h-13.59l-18.6,7.87h-27.9v4.29l-17.16-6.43H2215.1l-14.31,12.87,3.58,17.88,5.72,5.73-6.44,14.3-4.29,17.17,5.73,5.72,10,16.45,13.6,5-.72,10,7.87,10.73-2.87,11.45h-19.31L2201.15,1663l-4.66-4.65,5-14.3-18.6-10-9.66-9.66-11.8,1.79-14.3-2.86.71,8.59h6.8l2.86,7.86,6.08,6.08,9,1.79,10,5.36,2.51,9.31-6.8,6.79,1.44,7.51-13.6,2.14-9.83,9.85,4.47,9.47,2.86-3.93,4.65,8.94,15.38,8.58-1.44,17.17v24.68h-14.3l-5.36,8.58L2152,1772.64l-13.06,9.84.72,13.23,6.26,6.26,2,7.68,8.94,8.95,13.6,2.14,1.79,9.31,4.65,4.64,8.58-7.51s3.13,5.46,4.29,4.29,8.59-8.22,8.59-8.22l-.36,14,11.09,2.14v11.09l6.79,16.45-3.94,10.37h-5.36l5.72,10.73-4.65,13.6-7.69,7.68-2.69,8.76-10-2.14-.36,11.45,7,7,2.32,13-6.07,10.73,6.43,6.44v10l15.74,9.29,6.08,12.52-9.66,8.94v7.15l5,8.58v12.88l-6.44,5,7.86,14.3h8.59l8.58,8.59,6.44,12.87,1.43,16.46-7.15,7.15,3.57,15,16.46,3.58,8.22,8.22,8.23-8.22,2.86,17.16-2.86,15,5,11.44-9.66,9.66-10.37,13.23-7.16,13.59,10.73,15v17.88l-10.37,10.38-1.07,16.09-6.08,6.08-16.81,16.81.23,22L2242,2313.1l20.26,8.81-10.57,17.62-25.55,11-16.3,16.29-26.43-19.37-28.19,11.89-5.28,17.62-18.95-9.69-13.65,3.52-16.53-16.52-17.83,6.83-22.91-2.64-6.16-9.25h-24.67l-17.18-7.49-22.91,3.52-16.74,37.45,1.33,22.46-23.79,6.6-19.39,14.1-2.2,15-20.27,11.85-6.44,9.12-11.54,11.54-14.21,6.7H1858.7l-10.73-3.22-12.34-6.43-4.83,7h-14.49l-9.12-5.9-8-3.76-12.34-3.75-9.66-3.22v-8.58l7-7-11.27-11.27-10.73,7.52-5,8.29-10.05,11L1746,2472l4.83,14.49-11.27,5.36v8l9.66,4.83,6.7,6.71,3.49,8.31,10.73,5.9v9.66l-5.1,5.1-13.68,2.41-18,18v12.6l-3,7.51-7.51,7.51-5.9,1.07v9.66l-7.25,7.25-4,8.31v8.58l10.73,5,5.73,17.88-3.58,10v13.59l-9,8.94,3.94,12.52,15.74,4.29,14.3-8.58,10.37,10.36-4.64,16.82,14.3,4.29,7.87-7.87,12.88,7.87h14.3v10l-17.16,7.87-4.29,19.31h12.15l15-7.15,7.87,11.44,17.17-9.29,20-5.73,11.8-11.8,11.09-.36,15-.71,10.73-10.73h12.88l3.58,10-8.59,11.44h-10v12.87l12.16,5,8.94,8.94,8.23,17.53,7.86,7.86,12.16,12.17,8.59,28.61v23.6l11.44,10.73v17.17l12.16,21.45,3.58,18.61,5,16.45,9.29,18.59,15.74-2.86,7.87-16.45,11.45-3.57,7.86,9.29v10.73l7.87,7.87,8.58,8.58,15.74-2.86,7.16,7.16,17.88-2.87,8.94-8.93h18.24l8.76,8.76,13.41,5.9,10,9.3,2.86,17.16,12.16,7.87,5.72,12.88,15,9.29v17.17l19.31,5,17.17,5.72,18.6-7.15,11.09-11.09,3.93,14.66,7.87,14.31,6.44,10.73,20.74,3.58,9.3-9.3,17.88-10,21.46.71,11.8-11.8,16.81-3.94,2.87-15h14.3l14.3-14.31,23.61-15h18.6l5-15h15.73l12.52-12.51,15.38,6.79,12.16,12.16,19.31-7.86,16.46,5L2557,3016l11.45,11.44,20.74,7.16,14.31,4.29,20-3.58,19.31,5h34.33l16.1-16.1,16.8-11.09V2996l-12.51-12.52v-16.09l-9-10.72,2.87-18.61,9.66-9.65,8.93-18.24,11.09-11.09.34-.34-.88-13.22-7-7-2.55-12.2,7.64-7.65v-12.6l8.32-8.32,18.77-18.78,5.1-5.09,6.44-6.44,9.92,6.17-2.14,9.65,13.41,6.44,8,7.51,17.7,5.37,8,8,9.12,4.83,10.19,10.2,23.07-4.83,8.58,9.12,10.73,9.12h11.27v10.19l8.05,12.88h20.38l3.76,12.87,16.09-9.12h11.8V2885l16.63-16.63,19.32-23.07,9.65-24.68,25.49-25.48,28.7-34.6,4.29-51,10.19-33.8-15.56-4.82-8-38.63-7-31.65,5.37-10.2,7.51-7.5-12.34-8.59-11.8-3.75-4.3-19.32,22.54-16.63h11.26v-14.48l10.73-4.83,15.56,5.36,16.09-5.9v-14l11.27-8,5.9,6.43h18.24l10.73-7.51,6.71,6.71,22.26,4.56,9.12-9.12,9.66,5.36,14.21-14.21h11v-28.17l12.88-6.43,8-16.64,13.42,3.22,6.43,6.44L3234,2457.92l12.87,1.07,10.73-5.9,16.09,4.29,6.44-12.34,11.27-7,2.68-14-5.1-5.1v-8.85l-11.53,4.83-20.65-20.66,5.63-14.75-6.44-6.44,5.37-12.34-5.1-5.09,12.34-12.34,11.53.8,6.71,6.71h8.85l8.49-6.42-.06-.06,2.46-7.82-20.33-20.34-5.81-16.08-8.93-.89V2289l-9.61-10.49-7.82-7.82h-11.4v10.94l-10,10-15.64-2.23v-10.27l-6.7-5.81v-13l-13.85-1.79-16.09-7.6-15.18,1.8-15.19-2.24-8.49,10.27-4.25,14.08L3127.23,2285l4,13.85-5.36,16.09-13.4,13.4v25l-18.77,12.95V2381l-8-11.16v-12.52l-9.38-9.37-8.93,4-2.24,11.6-23.68,8.94h-11.17l-4.47,13.4-7.15,10.73-15.41,1.11-17.19-17.19-1.8-35.75,2.23-21.44v-20.1l2.69-17.87V2268l-12.51-5.36-8.94-3.13-1.34-8.49-4.13-9.71-8.16-8.16v-9.6l5.59-5.58,1.56-13.19-7.82-7.81h-10.27l-11.17-5.36v-10.28l4.47-4.47-4.91-4.91-4-15.63-8.93-16.09-10.72-7.59-12.07,3.57-11.61.89v-13.84l9.6-2.69v-9.16l-10-10-.45-8.48-10.5-.67L2865,2100l-9.82-4.47-13,4.91-6.26-7.59h-6.7l-5.81,5.81h-11.62l-7.59-3.57v-14.3l4.47-4.47V2067l-3.58-10.72,8.5-13.41,4.91-13.85-14.75-14.75-4-19.66-12.52-6.7v-12.51l4.93-4.46-4.93-4.92v-11.62l-13.39-5.36-4,4-4-12.06,6.71-6.7,7.14-11.62,10.73-3.13-4-27.7-3.13-17.87v-9.38l-12.51-22.79-1.34-23.69-12.5-8.48-5.37-12.51-3.86-9.63v-5.9l15-5.9,15.55-22,10.74-3.22,14.48,4.29,4.29-9.66v-11.8l-8.05-8,3.76-14,10.73-3.75v-11.27l-.54-14.48,11.81-8,13.68-13.68,3-9.93h5.9l-1.08-14.49h-11.26l-10.19-19.31v-17.7l-9.13-9.12-19.31-14v-7.51l-14.48-5.37-5.08-10.66,2.46-14.38-6.08-6.09-6.36-9.58-3.23-8.29,4.92-5.18,1.42-6.87-5.7-4.53-1.85-12.56h-8.58l-10.73.71.71,11.45-.71,5.73,8.58.71,5.36,5.37-6.79,13.23-11.45,4.29-12.16,10s-2.14,12.88-8.58,12.88-17.88,3.58-17.88,3.58l-12.88,7.86,2.86,14.31-12.87,5.72,3.58-12.87,2.85-18.6,11.81-11.8,5.36-16.1,17.17-4.29,4.29-22.17,10.73-10.73,4.29-20v-7.15l14.31-17.16,8.22-8.23,6.8-14,7.15-10V1393l8.23-8.22-8.94-15.38-14.31-7.87-5.73-5.71,14.31,2.85,1.44-15-9.66-9.65-7.51-7.51-5,5.72-8.59-7.16-7.15-14.3-8.22-8.23-11.09,5.37-8.22-8.23L2689.34,1310H2675l-15.75,8.58,6.44,6.44-3.57,12.17s-11.45-5-15.74-5-3.57-9.29-3.57-9.29l9.3-9.31-10.37-10.37h-14l-4.48,4.47-22.71-1.25,9.3-12.16L2621,1283.2l-3.22-14.67-10.73,1.43Zm50.45,14.87-2.61,3.9,5.85,3.89,2.59-4.54Zm-270,37-3.24,5.19,4.54,3.89,5.84-8.44Zm108.41,2.59-6.5,7.78-8.44,2,7.8,5.84,7.79-7.8Zm-217.31,78.93-3.48,3.49,4.56,4,7.51-2.14Zm-13.78,37.92-7.15,5.83,3.89,7.8,6.5-1.3Zm55.82,58.41-7.79,3.9s3.24,9.75,3.24,8.44,5.84-2.6,5.84-2.6Zm-58.42,26.63-1.3,7.13h11l5.85,5.84.65-9.74-6.5-1.29Zm-71.4,65.55-5.85,2-4.54,5.84,2.59,7.79,4.54,5.84,6.5-7.13,2.59-8.44Zm553.26,1307.38-.23.24Z" transform="translate(-98.38 -505.96)"/>
    <path id="Far_Eastern" data-name="Far Eastern" class="cls-1" d="M4172,507.46c-.29,0-.7.17-1.23.71-4.29,4.29-16.46,7.87-16.46,7.87l-12.87,17.88h-5l-17.16,6.44-10,10-7.15,10-1.44,12.88-7.87-.71V579l11.46,2.86-13.6,9.31L4086.32,604l12.87,3.57,20,1.44,17.16-3.58V614l-17.16,9.3-9.66,9.66L4094.9,621.9l-16.45,5L4067,615.46l-10,5.73-15.74,7.15-12.87,13.6-24.32,7.15-12.87,18.59-17.89,7.16-14.66,14.66-14.31,14.31L3929,712.74l-21.46,9.31-11.09,11.09-24.31,24.31-21.82,21.11-5.72,20.74-12.16,17.89-4.29,12.87,4.29,12.16h-10l-11.45,6.43-1.43,15-12.87,6.44-3.58,13.6v7.86h14.31l4.29,10,17.88-2.87,24.32,10.73,7.87,1.43,4.29,11.45-3.58,11.45-14.3,3.57-15.74,7.16L3821,948.8h-16.46l-10.73-10.73,10.38-10.38-13.6-13.59-7.51,7.51-7.86,14.3,10,14.31-2.86,8.59,7.15,7.15-4.29,17.16L3767.3,996v14.31l-9.31,9.29h-10.72l-6.44,12.17v23.6L3727.24,1069v10l6.8,6.79h-13.95l-12.88,10.37-17.88,7.88-20-20-9.66-9.66L3640,1075.4l-23.6,3.58-13.59,16.45-15,15-17.88,26.47v20.74l-14.31,17.88-13.59,13.6-15,.71-13.6-7.16-19.31,10.73s4.29,18.6,2.15,16.46-13.59-14.31-13.59-14.31l-10,11.45h-15.73s-9.66-3.23-5-7.87a143.72,143.72,0,0,0,10.73-12.88l-12.87-9.29-21.46,9.29-15,7.16-6.44,17.88-2.87,10,4.29,22.88v13.6l-12.15,11.44,3.57-27.9-13.59-4.29-10.73,10.73-12.16,5.73,5-19.32s13.59-5,13.59-9.3a10.94,10.94,0,0,0-2.86-7.15l-20.75,9.29-26.46,10-5.72,16.45-20,10h-13.59l-9.3,9.3,15,9.3,2.15,10-15.74,14.31v15l8.59,5.72,7.15-18.59,5,4.29v15.73l12.16,6.44,10.73,10.73,5,2.87-10.73,10.73-13.59-.72-7.87,8.58-6.08,6.08,16.81,7.52v10.72l-15.74-4.29-13.58.72-18.6,4.29-10,18.6,3.58,18.59h-17.88l-15.74,4.29-10-10-17.89-2.14v12.87l9.3,9.3v10l4.3,10.73,7.15,23.6-1.44,13.59-16.44-8.59-6.44,6.44-15-2.86-10.73-7.15-13.95-14-14.67.36v-11.44s-6.44-10-6.44-6.44-7.86,7.15-7.86,7.15l-10-10,5.73-5.72,9.3-2.86V1430.9l-7.16-7.15-13.59,8.58v-13.59l-8.23-8.23h-8.22l5.72-17.52-17.17-5.73-5,5-15.74-12.17s-1.43,6.8-6.79,6.8-4.66,13.23-4.66,13.23l-5.71,4.29-5.73-6.44-5.72,1.44-2.86,8.58-11.44-7.87-7.52-7.51-8.94,6.8-8.58-8.59-2.15,8.59-2.86,16.44,10.73,16.46,2.15,14.3s3.57,12.87,0,12.87-19.31,2.87-19.31,2.87l-15,12.88-15,5.71-8.58-13.58-2.15,7.86-.72,5.72h-22.17l-11.8-11.8,5-5-5.37-8.23-21.46,6.44-27.18,5-17.89,9.3-13.22,13.23-6.8,6.81,10,9.3h-10l-8.58-12.15v-14.31l-7.51-7.51-8.95,12.52-2.86,8.58-14.31-5.72-12.15-2.86,1.85,12.56,5.7,4.53-1.42,6.87-4.92,5.18,3.23,8.29,6.36,9.58,6.08,6.08-2.46,14.39,5.08,10.66,14.48,5.36v7.52l19.31,13.94,9.13,9.12v17.71l10.19,19.31h11.26l1.08,14.49h-5.9l-3,9.93-13.68,13.68-11.81,8,.54,25.75-10.73,3.75-3.76,14,8.05,8v11.8l-4.29,9.66-14.48-4.3-10.74,3.22-15.55,22-15,5.9v5.9l3.85,9.62,5.37,12.52,12.5,8.49,1.34,23.68,12.52,22.78V1874l3.13,17.87,4,27.71-10.72,3.13-7.15,11.61-6.71,6.71,4,12.06,4-4,13.4,5.36V1966l4.92,4.92-4.92,4.47v12.51l12.51,6.7,4,19.66,14.75,14.74-4.91,13.85-8.5,13.4,3.58,10.73v9.38l-4.47,4.47v14.3l7.6,3.57h11.62l5.81-5.81h6.7l6.25,7.6,13-4.91,9.83,4.46,7.81-7.82,10.5.67.46,8.5,10.05,10v9.16l-9.61,2.68v13.85l11.62-.89,12.06-3.58,10.72,7.59,8.94,16.09,4,15.63,4.92,4.92-4.46,4.47v10.28l11.16,5.36h10.29l7.81,7.82-1.56,13.18-5.59,5.58v9.61l8.15,8.15,4.14,9.72,1.34,8.48,8.93,3.14,12.52,5.36v17.42l-2.68,17.87v20.1l-2.24,21.45,1.78,35.74,17.21,17.19,15.41-1.11,7.15-10.72,4.47-13.41h11.16l23.68-8.93,2.24-11.61,8.94-4,9.39,9.38v12.52l8,11.17v-14.75l18.76-12.95v-25l13.41-13.41,5.36-16.08-4-13.86,10.05-10.05,4.24-14.06,8.49-10.28,15.19,2.24,15.2-1.8,16.08,7.6,13.85,1.79v13l6.71,5.81v10.28l15.63,2.23,10.05-10.06v-10.94h11.39l7.82,7.82,9.61,10.49v10.29l8.94.89,5.8,16.08,9.39,9.38,10.95,11-2.45,7.82v0l-8.49,6.42h-8.85l-6.71-6.71-11.53-.8-12.34,12.34,5.1,5.09-5.37,12.34,6.44,6.44-5.63,14.75,20.65,20.66,11.53-4.83V2419l5.1,5.1-2.68,14-11.27,7-6.44,12.34-16.09-4.29-10.73,5.9-12.87-1.07,15.55-14.49-6.43-6.44-13.42-3.22-8,16.64-12.88,6.43V2485h-11l-14.21,14.21-9.66-5.36-9.12,9.12-22.26-4.56-6.71-6.71-10.73,7.51h-18.24l-5.9-6.43-11.27,8v14l-16.09,5.9-15.56-5.36-10.73,4.83v14.48h-11.26l-22.54,16.63,4.3,19.32,11.8,3.75,12.34,8.59-7.51,7.5-5.37,10.2,7,31.65,8,38.63,15.56,4.82-10.19,33.8-4.29,51-28.7,34.6L2991,2820.57l-9.65,24.68L2962,2868.32,2945.41,2885v20.92h-11.8l-16.09,9.12-3.76-12.87h-20.38l-8.05-12.88v-10.19h-11.27l-10.73-9.12-8.58-9.12-23.07,4.83-10.19-10.2-9.12-4.83-8-8-17.7-5.37-8-7.51-13.41-6.44,2.14-9.65-9.92-6.17-6.44,6.44-5.1,5.09-18.77,18.78-8.32,8.32v12.6l-7.64,7.65,2.55,12.2,7,7,.89,13.41,8.23-8.23,16.46,12.17h27.89l14,13.94,20.39-5.36h17.87l18.61,7.15,13.23,13.23,10.37,21.82,11.09,11.09,17.52,7.51,25.75,2.14,17.89-5,18.59-4.29,16.81-16.81h20.39l32.9-4.65,10,6.44,25,3.58h27.18l10,10,5.73,10.73,19.31,6.44,21.46-2.87h29.32l20.76-6.43h22.88l8.94-8.94,17.53-17.53,22.89-10.72,16.44-11.45,12.52-12.52,6.09-21.1,25.75-25.75,17.87-7.87,13.6,5,15,7.87,20-11.45,14.3-8.58,19.32,3.58,26.46,2.14,23.61-8.58,13.94-14,9.66-22.53,15-4.29v-20l-6.44-6.43L3503,2757.63l7.88-20v-19.31l4.29-30.75,5.72-12.17-5.72-22.88-10-10-8.94-8.94-11.08,8.94-7.88-10,5.73-14.3,7.86-23.61,11.09-11.09,22.53-13.23-.07-.13,11.16-11.17,24.33-17.88h17.88l16.45-5.72,21.46,3.58,17.17-9.31h15l28.61,2.87L3685,2541l14.31,6.44,5.73,15,15.73,4.29,11.44,11.45,16.46,12.87,7.16,17.17,17.16,2.86s13.59,10.72,13.59,13.59,12.17,10,12.17,10l10.36,10.38,9,17.52,21.46,4.29,21.46-7.86,7.86-7.87h19.31l20.75-2.86,13.59,3.57,16.45,4.29,8.22-8.22,15.39,3.94,9.29,9.29,11.45,10v16.46l10,3.58,13.6,7.86h13.59l3.57-12.87L4037,2682l15-8.58,15-12.16-5.72-17.88,12.87-16.45,11.44-18.6,4.3-14.31,17.16-9.3h12.17l2.85,9.3,10.37,10.39,8.94,8.93V2629l-10.73,10.73,14.31,15,3.58,15.74,7.87,13.59-2.86,11.44,10,13.59,1.43,16.45,7.15,15.74-5.71,15,11.44,17.88-6.44,12.88-10.37,10.37-11.8-3.93-11.45,5.71-10,10v14.31l-7.87,7.86-8.95,9,.37,13.94,12.87,4.3,13.59,13.58,6.44,16.46,7.87,7.87,15.38,15.37,7.51,16.82V2943l-8.58,17.17-5,16.45,5.73,5.73,13.59.71v-18.6l6.08-6.08,3.93-14-2.86-12.16,2.86-17.88v-7.15l9.3,9.3,6.08,6.07v-13.23l5.37-12.16,5.36,5.37v9.65l10.37,4.3,15-8.59,17.88-7.15h9.31l10.73-20,9.29-20,14.31-23.6v-16.46l1.43-34.33-4.29-26.47,4.29-25.75v-62.23l4.29-14.3v-27.19l-4.29-27.9-4.29-20.73-5.72-22.9-7.87-20.74.72-26.46-7.87-25.75,4.29-25.75v-30l-11.09-11.08-13.23-20.39-3.58-10-10-17.16-14.31-14.31-3.57-12.16-7.16-7.15-18.24-18.24-14.66-21.1-9.3-28.62-2.14-27.18-7.15-13.59-6.8-6.79-13.24,1.78-10.73-10.73-2.86-9.29h-25l4.29-7.87,5-5,6.8-6.8-8.94-8.94s-10,4.29-13.59,4.29-20,2.87-20,2.87l-6.8-6.8-15.37-1.79h-18.6l-15.74,3.57-7.86,7.88-12.88,7.15,7.87,14.3,6.44,12.17,6.79,6.79-1.79,11.8-7.87-5.72-5,4.29-7.87,10.74v7.14l-14.3,5.73v-22.18l-4.3-4.29-4.29,1.43-8.58-6.44v-7.15l-7.87,8.59v10.73l10,4.29v11.44l-7.51,7.51-8.58-8.58-6.8-12.52v-9.3l-8.58-4.29-7.16-7.15-10.37,10.37-9.3,9.3h-11.8l-8.4,8.4h-10.91l-6.44-14.49,5.73-15.73V2202l10.73-17.89v-20l6.43-24.32v-36.48l-7.15-7.87V2071.1l4.29-17.89v-45.06l8.58-14.3-10-10-6.43-16.45,3.58-22.89,10.72-10.73-11.44-22.89,2.15-23.6,12.15-24.32,12.17-12.16,11.44-19.32,10.38-10.37,16.09-16.09h16.45l12.16-7.87-4.29-4.29-5.73-9.3,8.59-7.87h8.58l10-9.3,11.08-11.09-4.65-15.38,15,5.73,9.3-10-7.87-7.86-3.57-13.6,3.58-10.73,9.29-9.29,11.45-2.86,10-12.17,20-9.29v-6.44l13.59-2.14,12.88-5,5.36,5.37-11.8,3.94-2.86,9.29v9.3s9.65,3.22,6.43,6.44,13.6-.72,13.6-.72l5-13.58v-15l13.59-5.72,2.15-10.73-5-25,21.46-3.57v-19.31l11.44-3.58.73-13.59h-10.73l-6.09,6.08-8.22,7.51-9.3,1.43-10-10v-12.87l-11.8-11.8-3.93-28.26v-21.46l-12.88-20,2.15-20-12.87-8.58-.72-31.47,7.87-9.3,6.43-23.61v-11.44h19.32l5.72-17.17-5.72-15.74,20,18.6,5.73,12.15,7.16,7.16,10.73,10.73v-17.89l12.87,6.44,5.73,14.31,5-16.45-1.42-27.19-7.16-17.17v-22.88l-8.95-8.93,6.79-9.64,6.44.72,1.44-9.3h-14.31l-11.81-11.8-12.51-12.53-8.59-7.86,4.3-11.45v-15l15.73-8.58,11.09-11.09,4.65,4.66L4155,1232.79v16.46l15,9.29,10,12.88,8.22,8.23,8.94,3.22h9.3l9.3,17.88,8.59,8.58v22.17l-5,17.17.72,14.31,8.59,7.15,8.58,26.47,7.15,17.88,6.44,22.18,5.72,23.61,13.59,17.88,8.59,26.47,3.57,22.88,7.16,21.46-5.37,5.37-6.44,6.43,6.8,11.81-5,10.73-6.08,6.08v6.08l13.24,2.86,12.15,17.16,2.15,16.46,10,10v15l14.31,15,20.75,20.7s6.08,14,9.3,17.17l19.32,12.88,20,10.73,30.76,9.3,14.31,2.86,12.87,8.58,7.87,10.73,27.18,14.31,23.6,10,25,11.45,12.88,12.87h14.31l10.36,10.37,13.24,6.8h20.74l7.87,10.73v-14.31l-3.58-19.31-7.15-30-2.86-22.9-13.59-12.87-18.6-18.59-12.16-5-7.15-25.75,5.72-12.87V1667l15.74-2.14v-8.59l-20.75-5-6.07-6.09-12.53-4.64-14.3-22.17-5-28.62,7.16-15.73,12.15-7.87,8.59-5.72-5-12.88-14.31-11.45-24.31,2.87-10.37-10.38-13.24-3.22-15-25-4.29-17.16,14.31-4.3,5.71-13.59-13.94-14H4449l-7.32,7.33-18.43-4.11-18.59-12.88-3.58-16.45-18.59-18.59-5,10.73-6.8,6.79v6.08l5.36,12.16h-20l-11.81-11.81-19.67-10.37-2.14-15.73-2.86-20-13.59-13.59-10-10-8.58-8.58-10.73-17.88,7.87-7.87v-18.59H4293l13.23-13.24-13.23-6.08V1275l-7.87-20.74,8.59-.72,10,10,13.59,6.44v-11.45l-12.15-18.59v-10.73l5.71-20-7.86-7.87,15-21.46,9.3-21.45,17.88-5.72,12.87,6.44,12.16-10.73-7.87-7.87-12.15-13.6-7.16-28.61v-20.75l-13.59-12.15-7.15-22.18-3.58-22.88-7.16-17.17-4.29-20V957.37l-5-22.88-12.16-18.6,5.36-5.37-16.81-11.08L4283,893h15l9.29-20,14.31-5.72v-15l-10.37-10.38-5.36-12.51-11.45,8.58-7.86-6.43-9.31,1.42-7.51,7.51h-12.51l-3.58,6.8h-12.88v-10l-15.73.72-8.59,1.43-10.73-.71-4.29,7.15-8.94,8.94-15.37.35-8.59,6.44v13.6l-9.3,3.57-7.15-7.14,11.44-13.6h-7.86l-12.17,5,5-11.44,15-6.44h10.73l11.45-18.6L4182.88,810l-5.71-20.75-11.81-11.8-11.09-11.09-6.43,6.44-.72-13.59h-10.73l-15.74,4.29-9.66-9.66v-9.65l-12.51-2.15,4.29-4.29,6.44-2.87-5.37-5.36,1.08-6.79,7.15,4.29,7.87,6.44h13.59l9.3-7.16,9.3,7.16,11.8-11.8V703.44l-5.37-10.72,12.17-17.89h13.58l10.73,4.29,15-5,7.87-17.16,15-16.46,16.44-1.42,6.44-18.6-12.15-3.57v-5.73h15l-5-11.44v-9.31l-7.87,10-7.87,2.15-9.29-14.31-13.24-13.23v7.51l-16.81-6.44-7.87,7.87-12.87-2.15,16.45-10.73v-15s4.29-12.87,0-8.58-15,4.29-15,4.29l7.86-16.45-7.15-7.16-9.29-7.86s3.28-12.59,1.23-12.87Zm-372.2,114.45-5,5.2-10.88,5.68-8.87,8.88.83,15.25-3.79,3.79L3774,673l7.1,10.41,7.34,17,11.35,2.36,7.69-7.69,5.8-10.53-6.39-6.86,9.47-13.73-1.65-14.9V631.37l-9.23-7.33Zm-597,359.63-3.9,7.14,4.22,4.22,4.87-4.22ZM3306,1036.07l-14.28,6.49-7.47,8.76-8.11,8.12h-3.25l-6.16-7.47L3256.69,1062l-6.82,6.82-4.87,4.87-9.74-4.55,1.31,5.2,3.24,4.54,7.14,10.39,14,4.87,8.76-8.76h11.68l11.69-4.55,10.7-4.88,6.83-6.81v-9.08l5.83-16.23Zm-85,49.34-8.44,2.59h-20.77l-6.81,6.82-10.72,7.46-7.78-7.79-18.83,5.85,1.3,11.68,4.87,4.87,7.14,7.13,4.87,4.87-7.14,5.85-9.74-8.44-5.19,5.19-7.14-7.14-16.23,3.24-7.14-3.88-3.25,8.43,5.19,5.2-9.74,5.19v12.33l7.8,7.79-1.95,9.09h7.14l9.09,9.09-2.61,10.39,11.7,5.83,15.57.66,6.5,6.48h11.68l13.63-3.89v-10.38l-8.44-7.8,4.55-4.54,6.81,6.81,12-21.74,11.36-11.36,4.87,4.87,10.39-10.38,3.24-9.74-11.68-3.9-7.79,7.79-9.73-7.14-11.7-7.14-11.68-8.44,3.9-8.43,6.17-6.17,4.86,16.54,7.47,7.47,12.65,2.27,7.8-3.24h6.49l6.49-6.49-3.25-13.64h-10.39l2.6-11.68Zm-133.08,94.11,6.83,6.83,4.22,15.24h8.43v-8.43l-3.25-7.14-5.84-5.84ZM3265.77,1199l-8.11,7.46-7.46,7.47-7.47,7.47,4.22,10.06,7.14,7.14-4.55,10.39,3.9,3.9,5.84-12.34,14.93-3.25,13-5.19,17.52-10.39-9.08-16.87H3283.3Zm-34.4,2.6-7.79.65-5.85,5.2,4.55,13,7.47,7.47,6.16-12v-9.73Zm-77.28,61-3.89,3.24,7.14,3.25,9.08,7.14,3.89-5.2-3.89-5.83Zm1184.47,68.72-7.43,4.34v13.61l-1.23,12.37,7.42,5,5,6.19.62,11.14,9.91,3.71-2.48-11.14-4.33-8.66,4.33-14.24v-17.33Zm294,35.27-8.05,1.85-8.05,5.58,4.34,4.32,5.87-5.87ZM4594.79,1400l-11.77,5-11.14-4.33-8.66,3.09,4.33,9.28h29.71l9.28-9.28Zm-1808.08,37.19-7.15,1.3-12,12v8.11h10.06l3.25,7.79,8.44-3.89,9.74-9.74v-15.58Zm1827.88,419.55-3.71,11.14-5.88,5.88,6.81,6.8,4,8.36-1.24,11.14-.62,14.23,6.5,6.5,7.12-4V1902l6.5-6.49-5.26-12.69-8.66-8.66.61-11.14Zm26.62,96.54v9.29l6.18,3.09,4.34-5.56Zm-532.87,139.89v9.28L4112,2113l5-1.24,11.92,4.19,8.2,8.2v4.65l8.35,8.35-2.47,12.38-14.23-4.34v9.29l-4.34,12.37,17.33,5.58,8.67,16.08,16.08,16.1v9.28l14.86,20.42,11.13,1.24,18.57,8,23.52,10.53,8.66,14.23,13.62,18.56,15.48,15.48,18.56,18.56,22.9,31.56,10.52,22.28,12.38,3.72,13,7.42,12.38,11.76,9.9,19.19,8.05,10.52,11.76,11.76,12.37,12.38v11.75l18.57,17.32,10.52,10.53,8,9.91,9.9-8-7.43-16.09-9.89-9.91-3.1-12.37,4.94-12.69h15.79l7.12-7.12s16.71,8.05,19.81,8.05,0-7.42,0-7.42l-8.67-11.15-14.55-8.35-8.35,8.35-13.61-.62-5.58-11.76h-10.52l-9.28-9.28h-16.09l-10.52-6.81-12.37-12.38-8-8s-2.49-17.33-.63-19.19-8.05-13-8.05-13l-10.52-16.1v-7.42l2.48-9.28-2.48-13h9.29l11.76-3.71,6.18-6.19,2.48-8-17.33-6.81-9.91-8.05-15.46-9.28-18-9.28-13.61-11.76-21-11.76-15.48-13.62-16.09-6.19-11.76-3.09-18.26-18.87-9.59-9.59-6.18-16.72-7.43-10.52H4182l-17.33-11.14-3.71-9.91-15.47-3.09-8.67-8.67-4.33-9.9-8-3.71ZM4697.53,2134l-6.2.62v24.75H4700l-2.47-10.52V2134Zm-740.82,39-11.76,2.48-6.19,6.81v17.94l10.52-4.33,5.58,5.57,6.18-6.18,2.47-12.39Zm736.17,54.76-8.36,8.36-2.48,10.52,4.33,9.9-3.08,16.09,8,1.86,4.34-9.9-2.48-13.62,1.86-11.76Zm-17,82.63-3.09,3.09,2.48,10.53,4.95-7.44Zm-17.32,31-3.1,16.09,4,4-3.41,12.08,1.24,18.55,7.43,3.11,2.47-9.91-3.71-19.79,6.81-6.81-1.25-14.25Zm-6.19,91.59-12.38,1.85,2.48,13,1.23,12.38,4.95,1.85v-9.9l3.72-8.05Zm30.33,9.29v5.56l8,4.33v-9.29Z" transform="translate(-98.38 -505.96)"/>
    <path id="Northwestern" class="cls-2" d="M1039.14,1397.29l1.79-13.24,21.82-21.81h36.48l11.44-20v-38.63l22.89-11.44,30-15,20.74,7.87h12.16l10,10,12.29-8.56-3,15L1228,1300l17.17.72v11.45l3.58,12.87-7.88-5-8.22-8.22-7.51,7.51,3.58,13.59v13.59l12.16,6.44,9.29,9.29v15l10.38,5v16.82l11.8,11.8,5.72,20v20.75l-3.57,17.88,4.29,10,.35,21.81,12.52,12.52-.71,15.73-2.87,25.76-12.51,21.82-19,19h-20l-22.16,4.29-19.32-7.15-21.1-11.8-13.23-13.24v-19.31l-13.59-13.59-6.44-15-5-14.31-9.3-15.73-5-26.47-10-4.29,3.22-16.1,8.22-8.22-10-10-4.65,12.52-6.79,6.8,2.86,15.73.35,18.24-7.86,7.87,10.37,10.37-2.86,15.74-10,22.17L1076.7,1540l-14,14-5.37,25.39-13.23,13.23,10.73,33.62-10.37,18.24,14.66,14.67,15.74,15.73L1092.8,1662l3.57-17.88-9.3-9.3,1.43-15.74v-12.16l12.16-12.87h12.16l4.29,32.18,3.94,21.11,12.52,12.51,7.86,16.46,20.39,6.07,6.08-6.07-5-12.17,12.16-10,.72-25,22.17,3.57,20.75-7.87,17.16,9.3,19.32-6.08h13.23l8.23,8.23,12.16,18.6-10,10v15.74l8.94-11.09,12.52-12.51,17.17-3.58,14.3-20.75v-17.88l5.72-12.16,18.6-9.3v-11.44l17.88-10.73v-17.88l-2.86-17.17h12.16l3.94,8.94,16.09,16.09,12.16,18.61v25l-4.29,12.87-6.44,6.44-10.73-10.73-15-3.57L1356,1617.6v18.6l5.72,17.17v14.31l16.45,4.29,15.74,7.15,17.88-8.58v-12.88l18.6-4.29,17.88,8.58-2.86-11.44,27.9,5,15-2.85,27.18,3.57h15.74l7.86,14.31h7.16v-12.88l22.89-7.15h12.16l5,18.59h-13.59l-4.29,12.88-10.73,3.58,16.45,15h11.44l21.46-9.3,20.39,3.93,22.18,22.18,7.51-7.51h15l19-6.08,7.52,7.51-2.15,10-11.45,7.87v12.16l13.6,11.45,1.07-13.24,6.08-6.08,14.3,3.58v-11.44l13.6-2.15,2.86-17.17-2.15-20.74,12.88-6.44,11.08-3.22,13.24,13.24,5.72-5.73,14.66,18.24,16.81,16.81,13.59,13.59,3.33,6.79-5.83,8.59-7,7-4.29,4.29,7,6.62,1.43,5.37,5.36,1.79v24.31h-6.8l-3.22,7.87-5.72,2.86-2.14,13.23,14.3,7.15v9.3l-13.23,5.37,11.08,11.09-17.16,8.58-12.88,12.87H1773l-5,15.74h-24.33l-22.88,5-22.89,12.88v15.73l-18.6-.71-13.77,2.14-7.51,8.59-13.41,7-13.41,13.41-12.34,1.61v-11.26l-9.12-3.22-11,11L1584,1967.74l-6.44,12.34,2.68,15.55-17.17,10.73-1.61,12.88-14.48,9.12-9.66,18.24,2.69,12.34-5.91,11.26v9.66l-17.7,17.7-2.41,12.61-6.71,6.71-3.76,10.19-24.68-3.75-18.24-7-16.09-8.58-16.63-11.27h-7.51l-4.29,9.12-7.24,2.42-5.1-5.1-7.24-2.42-7.25,7.25-12.87-4.83-11.27,5.9L1355,2098.64l-15.56-7-9.12,3.22-7.51-9.12,1.61-9.12-3.76-5.9-9.12-3.22-7,7-5.09-5.1-5.1,5.1-14.49-8.05-6.7,13.14,7.24,7.24v8.59l-10.93,4.32h-11.6l-6.59,6.58-10.67,1.26-3.45-7.84-6-6-11.29,10.66-8.15-8.15-13.18-6.28-12.55,3.14-5,14.43-8.16,10-5-5,4.39-10-3.14-11.3V2080.6l-7.52-7.53v-10.66L1171,2053v-9.42l13.8-3.13V2026l8.78-8.78-1.33-10.88-6.43-3.21,2.51-7.87-7-7-2.68-2.68-3.93-6.44-5.37-1.79-7.69,6.62-15.72,15.72-9.73,9.73-13.55-6-7.53,6.91,15.69,16.31-10,5v13.17l-4.7,4.71-16.63-14.75-8.78,13.81-15.69-3.77-6.58,6.59-9.73-14.12-14.43-8.15-11.92-5.65-5-13.8-14.12-14.12-18.5-3.45-9.41-20.08L970.82,1979l-15.68-6.91-17.57,4.4-15.68,6.9-16.95-16.94v-28.23l-13.48-13.49-6.9,6.9-17.88-12.23-7.53-7.53L846,1913.09l-8.81,1.61v-14.35l3.7-12-10.18-3.24-11.57,2.31-14.8-6.94-12-4.62-9.71-4.63-6-6-1.85,6h-9.26l-6.94-8.33H748.34l-2.55-10.4L740,1846.7l-7.86-3.94h-9.48L715,1850.4H703l-6,6-10-1.16-8.1-8.09H663.68l-8.33-5.09-10.87.69-6.24-6.24H625.75l-6.48-6.48-4.3-9.3-11.08,9.3-1.08,8.94-6.43,6.44-1.43,15L591,1869l-4.29,7.51h-10l-4.29,12.16-9.66-11.81L550.6,1878v-24.32l-12.16-11.45-13.59-3.58,4.29-10.73,3.58-11.44-10-10-6.44-14.31,2.15-10L532,1768.53l7.87-14.31-3.58-12.87,11.45-2.86,17.17-10.73v-15l7.15-8.59,17.88-.71,7.87-9.3.71-10.73,15-5.72,12.16-16.45,16.46.71,14.3-8.59,19.32,4.3,2.86-10.73,6.44-6.44,12.15,5.72,10,10.73,15.74,5,5.72,12.87,5.72,14.31,8.58-8.58-1.43-20.75-12.87-11.44V1624l11.44-2.86,3.58-3.58L728,1611.16l-9.3-10.73h65.49l94.73-.71L909,1589v-18.6l5-47.21h20l17.17-13.59V1491l12.87-5v-24.32l11.44-.71,25-20,12.16,5.72,26.47-49.35Zm43.54,176.92-2.6,3.89,4.55,5.85,5.84-5.85Zm605,9.08h-7.14l-7.78-11.68-4.55,2.6-13.63-13-10.39-11,3.9-11.69,10.39-3.24,3.89-6.49-7.14-5.84.65-15.58-4.55-1.3-4.54-11.69-9.74-.65-7.79-11,2.6-14.28,10.38-14.28,12.34,1.29,3.9,4.55,4.53,2,2-8.45,14.94-4.53,11.68-12.34-7.79-8.44,10.39-6.49,11.68,4.55,3.25-9.75v-9.73H1724l7.15,7.14,7.46-7.46,1.62-6.82,16.24-3.25-5.52-5.51-14-4.87v-5.19l16.23-4.55,16.88-4.54,8.43-8.44h11v-7.79l15.58-.65-8.44-8.44,13.63-.65,5.2,5.2-.65-13,6.49-6.49-7.14-8.44,4.54-7.14,7.79,7.79h9.74v-9.74l14.28,5.19,7.14-7.79,7.14-8.43H1874l15.58-7.14,11,3.89h16.22l10.72-10.71,12.65,1,5.84,8.44h13.63l6.49,6.49,11.69-3.25h16.23l10.71-10.71,12.66-6.82,16.88-6.49h15.57l9.1,14.28v15.58l-13.64,12.33L2033,1331.43l-16.23,1.3-19.47,9.09-17.53-6.49-8.44,8.43-20.12-.65h-26l-9.74,10.39H1895.4l-14.93,8.44,4.55,10.39-10.39,3.89-12.33-1.3h-11l-1.3,7.14-11.68-3.24v11.68l-11.69,8.44-9.73,7.14v-11l-7.8,7.14,2,13h-7.79l-5.52-5.52v15.91l-5.67-5.69-7.3,7.3-6.18,6.18h-8.44l-6.49,8.43-8.43,14.28h-13.64l-11,9.09v12.34l-11,4.54-3.9,13-9.08,9.08v16.23L1702,1532l5.85,16.87-5.2,16.88,7.15,11,3.24,11.68-3.89,3.9-11,5.19v-8.44Zm413.52-638.07-5.37,1.61,4.29,5.9v5.36h7.51V947.9Zm-1.61,45.6-3.76,5.9-14,2.68-9.12,4.83,7,3.22-3.22,7.51,5.9,1.61h11.8l9.39-9.39,7-7-2.42-10.46Zm-44.53-9.66-3,3,5.63,5.64,10.19-3.76v-8.58H2062Zm-7.78,16.9-7.78-8.85-5.9,5.9-4.29,8.58v10.73l9.12,1.61,2.14,6.44,11.27-2.68,7.24-7.24,5.37-5.37,2.95-8.85h-8Zm-31.92,37.29-3.49,3.48v6.71h7.25l2.68-8.58Zm-15-27.36-3.76-3.76h-11.8v8l-6.44,6.44,3.76,3.75,12.87-2.68,4.83,4.83,11.27-2.69,3.22-7.51,8,2.69-4.3-9.66-7.24-7.24Zm59.55-89.59-3.22,6.43,5.63,5.63,5.37-5.36Zm-11.8,15h-8.59v9.65l9.12,9.12v7.51l8-3.75-4.83-10.2Zm-53.65,27.89h-7.51l-1.61,1.61,6.17,6.17Zm6.44,12.34-5.1,5.1,5.1,5.63,5.9-.54Zm4.82-23.6v7h7.52l-1.61-8Zm10.47,17.43v6.17h6.17l-4.83-4.83Zm6.17,14.22,2.68,2.68,4.83-4.83Zm7.51-28.43v7.51l6.43.53v-8Zm-9.66-15,3.75,7,3.49-3.49-3.49-3.49ZM1951,983.31l-4,4,7,7,7.78.26V981.7l-5.36-7Zm17.71-8.59,2.68,7.52h5.36V975.8Zm-30-42.91-5.36,5.36v5.9l-6.17,6.17-11-7.78-9.12,4.83v6.44l-11.26-8.05-8.59,3.22,2.69,12.88,8-2.69v8.59l8.59,2.14,7.78-7.78,11-4.56,9.12,2.69h13.41l9.66-9.66-9.12-9.12,6.17-6.17L1944,928.05Zm-30.57-13.41h-11.81l-7-7-4.83,9.66,6.17,6.16,2.41,7.25,14-4.83,4.83,4.83,9.12-3.76,3.76,3.76v-8l-6.17-6.17h-5.64ZM1918.52,975H1914l1.61,6.71,9.65.54Zm1.87,14.22-4.82,4.83,3.75,3.75,9.12,2.15-5.9-5.9ZM1959.56,920v7h5.36l5.37-5.37ZM257.5,1606.23l11.13,2.49,9.54-2.72,3.64-7,8.63,1.36,8.07,8.07.34,11,6.58,2,1.37,8.64L317,1631.9l2.27-8.18-5.56-5.56,4.77-4.78,3.07,3.08,9.76,8.16v12.28L330,1647.58l5.68,9.31,5.68,3.86,2.05,13.86-5,10.45-23.86,12-36.12-42.94Zm1475.62,15.36-10.39,5.19-7.78,2.6,1.94,16.88,1.3,9.09,7.14,2,2.6,13.63,13.63,1.3,4.54-11-6.49-11,.65-12.34Zm-229.8-56.47L1489,1569l-8.44,11-6.48,8.44,4.53,12.33,10.39,3.9,9.74,3.89,9.09-6.49,11,1.94,5.85-13.62-9.09-11.69L1515,1569Z" transform="translate(-98.38 -505.96)"/>
    <path id="path5292" class="cls-1" d="M571.15,2795.29l1-12.3-3.5-9.2-7.82-2.68-4.71-7.33-9.86-7,.09-16.45-6.11-8.87-2-11-7.74-7.82v-8.47l-5.54-7.24-7.24-7.41-5.38-10.1,5-9.61L512.78,2657l-6.92-6.84-2.12-8.95-6.75-7.9-1.39-10.42-8.14-3.34-12.86,2.2-5.62-5.7-3.18-9.36-6,2h-7.17l-3.09-9.28-8.31-4.15-5-5.54-8,.17-6.11,6.35-10.09,1.3-3.67-5.94-5.78-2-5.13,6.19-.08,8.55-5.86,8.63,5.37,4.64,4.24,8.55-5.86,9.36,6.92,7-11.89,9.12-7.49,2,2.77,10.42-3.59,7.49L371,2685.29l-14-.08-6.11-9.2-4.07-8.63h-7l-7.16,7.17-10.18,1.54-8.71,8.72,3.66,14.33,10.91,16.6,4.72,16.53,16,10.91,10.59,5,6.43,16.85,12.13,9.93-2.93,14.33,10.09,9.2,2.85,22.88,10,10.1,15.79,2.11,8.87,9,2.45,7.41,12.21,1.39,3.58,12.94,10.67,11.48-4.15,12.29-6.6,10.59,10.18,12.86,5.53,14.82.09,9.52,11.56,7.74,1.14,17.26,8,23.53,2.11,13.59,15.8,3.75,16.61-5.78,11.23,5.05,17.35-7.9-1.47-23,2.85-18.48-4.31-24.26-.09-20.11,15.8-25.81,7.16-6.35v-5l8.22-8.14,6.84-26.22-4.31-13.68-7.49-7.49-.08-11.64Z" transform="translate(-98.38 -505.96)"/>
    <path id="path3289" class="cls-2" d="M171.69,2360.13l-3.9-3.41-4.91-3.91-3.62-2.63-3.35-2.25-13.26-.33-7.73.89-6.53-3.76-6.42-2-3.7-2.32-5.65,5.09.76,7.08,5.55,2.88,6.42,2,3.69,10.3.77,8-2,6.42,1,8.85-2.72,8.3-9.14,4.54-4.79,5-7,.78-5.22,8.51,2.83,10.41,2.61,7.74,10.33,6.86,11.32-1.21,6.63-3.43,10-4.65,7.29,2,9.36,6.09,2.77,5.18,2.57,3.26,4.78,4.35,11,3.79,11.33.18,12.77-.16,5.22,10.77,3,7.8,15,9.7,14.61,2.77,5.18-8.41,12.23,1.88-11.67-11.78-1.31-4.75-2.13-3.61-2.25-2.4-13-2.08-14.3-7.84-10.18-15.77,6.35-9.4,3-13.72-1.68-12.47-1.8-1.72-4.08-3-.76-2.27,3.1-13.57-7.26-7.25-.27-11.25-8.37-1.39-1.38,5.62-6.88-.64-9,1.49Z" transform="translate(-98.38 -505.96)"/>
    <path id="Southern-1" class="cls-1" d="M313.87,2684.83l-7.86-1.44-5.72-7.15-7.16-10-9.3,1.43-5.72-17.17,2.15-32.9-2.87-24.32-5.72-12.16-7.15-10.73,1.43-21.46-8.59-7.87-5.72-11.44,4.29-12.87-3.57-14.31,7.87-7.87,8.58-1.43,11.45,14.3L291,2511l5-10.73,12.16-5,16.45-.72h8.59l10.73,3.57,2.14-17.88-5.72-10.72,2.86-9.31,8.59,1.44,7.86,5.72,8.59,7.86,6.43-6.44,10,4.3,16.45,2.14,12.16,5,2.86-12.87-8.58-6.44-12.16-2.86-7.87-7.87-8.59-2.87,10.73-11.44,15.74-7.15,13.59,5.72,12.16-5,11.45,12.16,17.16,18.59,15.74-15.73,10.73-6.44-2.86-15.74,10-10,10,1.43-.71-11.45,26.47-3.57,5-12.16,5.73-7.15,5.5,5.5v9H557.8l5,7h10l6.48-6.48h18.44l16.7-16.7,5.23-17.19h20.44l10-9,10.46,2,2.5,8,11,6h14.45l-1,12.47,4.48,16.94,16,2,9.47,5v8.47l14.46-.5,16.94,16.45,2,19.94-13,12.46,9.47,9,5.23-5.23,10.22,3.74,3,14.45,6.73,6.73H782.6l2,10.71,8.72,8.73.52,14.34-5,11.44-9.3,6.8H765.58l-11.09,11.09-9.29,9.29v12.88l-12.16,5-12.88-.72-9.3,9.3-11.45,7.88,4.65,14,10.37,10.38-4.29,18.59-9.3,9.3,9.3,5.72L723.73,2667l8.58,8.58-3.57,18.6,3.93,24.32v19.67l-7.51,7.51-7.15-7.87-10.73-1.42,1.43,12.87,6.08,12.52,8.94,8.94-7.15,7.15-12.16,1.43H680.1a148.35,148.35,0,0,1-15.38,1.08c-6.79,0-5.36-5.37-5.36-5.37l-10.73-2.87-5-5L630.75,2765v10l-10,4.29-12.17,14.3H595l-15,4.29-8.76-2.32,1-12.43-3.5-9.05-7.74-2.92-4.77-7.39-9.73-6.91-.12-16.6-6.09-8.94-1.72-10.71-8-8,0-8.38-5.81-7.66-7-7-5.33-10.13,5.06-9.7L512.8,2657l-6.72-6.79-2.12-8.62-7-8.34-1.34-10.38-8.27-3.28-12.71,2.29-5.57-5.67-3.23-9.48-5.89,2-7.43,0-2.94-9.29-8.14-4-5.38-5.81-7.95.36-5.94,6.06-10.25,1.42-3.57-5.73-5.83-1.9-4.95,6.05-.09,8.69-6,8.54,5.49,4.45,4.15,8.69-5.76,9.31,6.81,7.12-12,9.05-7.28,2.17,2.79,10.14-3.61,7.67-11.3,13.63-13.55-.1-6.07-9.14-4.18-8.67-6.95-.12-7.3,7.17-10.13,1.57Z" transform="translate(-98.38 -505.96)"/>
  </g>
</svg>