<svg id="Rus" xmlns="http://www.w3.org/2000/svg" viewBox="0 0 1015 340"><defs><style>.cls-1{fill:#1f242b;}.cls-2{fill:#2e353f;}.cls-3,.cls-4,.cls-5,.cls-6{isolation:isolate;}.cls-3{font-size:122.28px;}.cls-3,.cls-5,.cls-6,.cls-8{fill:#fff;}.cls-3,.cls-5,.cls-6{font-family:ArialMT, Arial;}.cls-5,.cls-6{font-size:63.11px;}.cls-6{letter-spacing:-0.02em;}.cls-7{fill:#c7102d;}</style></defs><title>Huawei appgallery </title><path class="cls-1" d="M61.93,337c-21.26,0-36.06-4.45-45.25-13.6S3,299.46,3,278.23V62.16C3,18.5,11.91,3,62,3H952.39C994.73,3,1012,20.14,1012,62.17v216C1012,320,994.73,337,952.4,337Z"/><path class="cls-2" d="M952.39,6c20.47,0,34.69,4.23,43.5,12.94S1009,41.81,1009,62.17v216c0,40.18-15.87,55.83-56.6,55.83H61.93c-20.42,0-34.53-4.16-43.13-12.72S6,298.62,6,278.23V62.16C6,39,8.77,26.37,15.58,18.63,23.26,9.9,37.58,6,62,6H952.39m0-6H62C8.86,0,0,18.4,0,62.16V278.23C0,322,18.2,340,61.93,340H952.4c43.76,0,62.6-18.07,62.6-61.83v-216C1015,18.4,996.15,0,952.39,0Z"/><text class="cls-3" transform="translate(320.18 245.29)">AppGallery</text><g class="cls-4"><text class="cls-5" transform="translate(314.26 121.04)">ОТК</text><text class="cls-6" transform="translate(438.66 121.04)">Р</text><text class="cls-5" transform="translate(479.37 121.04)">ОЙТЕ В</text></g><path class="cls-7" d="M210.65,75.67H128.71C90.12,75.67,76,89.79,76,128.39v81.93C76,248.92,90.12,263,128.71,263h81.91c38.6,0,52.74-14.12,52.74-52.72V128.39C263.36,89.79,249.25,75.67,210.65,75.67Z"/><path class="cls-8" d="M113.1,169.37h5v24.5h-5v-10H101.88v10h-5v-24.5h5v9.88H113.1Zm28,14h0c0,4-2,6.11-5.57,6.11s-5.6-2.19-5.6-6.28V169.38h-5v14c0,6.89,3.83,10.84,10.51,10.84s10.6-4,10.6-11V169.37h-5v14Zm57.44,2.83h0L193,169.37h-4.06l-5.56,16.85L178,169.38h-5.29l8.54,24.49h4.11l5.57-16.09,5.57,16.09h4.15l8.52-24.49H204l-5.43,16.84ZM218,183.3h9v-4.46h-9v-5h13.12v-4.46h-18v24.46h18.49v-4.46H218v-6.07Zm19.52,10.52h4.9V169.37h-4.9v24.45Zm-81.66-5.09h0l-2.23,5.1h-5.07l10.79-24.48h4.39l10.74,24.48H169.3l-2.2-5.1Zm1.85-4.41h7.52l-3.77-8.77Z"/><path class="cls-8" d="M169.68,138.18A31.22,31.22,0,0,1,138.49,107h4.41a26.78,26.78,0,1,0,53.56,0v0h4.41A31.21,31.21,0,0,1,169.68,138.18Z"/></svg>