<svg height="256" viewBox="0 0 256 256" width="256" xmlns="http://www.w3.org/2000/svg"><g fill="#000" stroke-miterlimit="10" stroke-width="0" transform="matrix(2.8008 0 0 2.8008 1.964 1.964)"><path d="m65.122 13.164h-40.245c-1.104 0-2-.896-2-2s.896-2 2-2h40.245c1.104 0 2 .896 2 2s-.895 2-2 2z"/><path d="m88 30.453h-86c-1.104 0-2-.896-2-2v-9.082c0-5.628 4.579-10.207 10.207-10.207h6.55c1.104 0 2 .896 2 2s-.896 2-2 2h-6.55c-3.422 0-6.207 2.785-6.207 6.207v7.082h82v-7.082c0-3.422-2.784-6.207-6.207-6.207h-6.55c-1.104 0-2-.896-2-2s.896-2 2-2h6.55c5.628 0 10.207 4.579 10.207 10.207v9.082c0 1.104-.896 2-2 2z"/><path d="m47.932 89.102h-37.725c-5.628 0-10.207-4.58-10.207-10.207v-50.442c0-1.104.896-2 2-2h86c1.104 0 2 .896 2 2v19.712c0 1.104-.896 2-2 2s-2-.896-2-2v-17.712h-82v48.442c0 3.423 2.785 6.207 6.207 6.207h37.725c1.104 0 2 .896 2 2s-.896 2-2 2z"/><path d="m23.255 53.637h-4.876c-2.577 0-4.674-2.097-4.674-4.674v-4.875c0-2.577 2.097-4.674 4.674-4.674h4.876c2.577 0 4.673 2.097 4.673 4.674v4.875c.001 2.577-2.096 4.674-4.673 4.674zm-4.876-10.223c-.372 0-.674.302-.674.674v4.875c0 .371.302.674.674.674h4.876c.371 0 .673-.303.673-.674v-4.875c0-.372-.302-.674-.673-.674z"/><path d="m47.438 53.637h-4.875c-2.577 0-4.674-2.097-4.674-4.674v-4.875c0-2.577 2.097-4.674 4.674-4.674h4.875c2.577 0 4.674 2.097 4.674 4.674v4.875c-.001 2.577-2.097 4.674-4.674 4.674zm-4.876-10.223c-.372 0-.674.302-.674.674v4.875c0 .371.302.674.674.674h4.875c.371 0 .674-.303.674-.674v-4.875c0-.372-.303-.674-.674-.674z"/><path d="m23.255 74.665h-4.876c-2.577 0-4.674-2.097-4.674-4.674v-4.875c0-2.577 2.097-4.674 4.674-4.674h4.876c2.577 0 4.673 2.097 4.673 4.674v4.875c.001 2.577-2.096 4.674-4.673 4.674zm-4.876-10.223c-.372 0-.674.303-.674.674v4.875c0 .371.302.674.674.674h4.876c.371 0 .673-.303.673-.674v-4.875c0-.371-.302-.674-.673-.674z"/><path d="m22.204 21.43h-2.773c-2.577 0-4.674-2.097-4.674-4.673v-11.185c0-2.577 2.097-4.674 4.674-4.674h2.773c2.577 0 4.674 2.097 4.674 4.674v11.185c-.001 2.576-2.097 4.673-4.674 4.673zm-2.773-16.532c-.372 0-.674.302-.674.674v11.185c0 .371.302.673.674.673h2.773c.372 0 .674-.302.674-.673v-11.185c0-.372-.302-.674-.674-.674z"/><path d="m70.569 21.43h-2.773c-2.577 0-4.674-2.097-4.674-4.673v-11.185c0-2.577 2.097-4.674 4.674-4.674h2.773c2.577 0 4.674 2.097 4.674 4.674v11.185c0 2.576-2.097 4.673-4.674 4.673zm-2.773-16.532c-.371 0-.674.302-.674.674v11.185c0 .371.303.673.674.673h2.773c.371 0 .674-.302.674-.673v-11.185c0-.372-.303-.674-.674-.674z"/><path d="m70.268 89.102c-10.881 0-19.732-8.852-19.732-19.732s8.852-19.732 19.732-19.732 19.732 8.85 19.732 19.731-8.852 19.733-19.732 19.733zm0-35.465c-8.675 0-15.732 7.058-15.732 15.732s7.058 15.732 15.732 15.732 15.732-7.057 15.732-15.732-7.058-15.732-15.732-15.732z"/><path d="m69.29 77.639c-.519 0-1.019-.201-1.393-.564l-6.561-6.363c-.793-.769-.813-2.035-.043-2.828.769-.793 2.036-.812 2.828-.043l4.968 4.818 7.36-9.352c.684-.867 1.94-1.017 2.809-.334.867.683 1.018 1.94.334 2.809l-8.731 11.095c-.35.444-.872.721-1.438.758-.044.002-.089.004-.133.004z"/></g></svg>