<svg viewBox="0 0 42.08 47" xmlns="http://www.w3.org/2000/svg"><g fill="none" stroke="#505050" stroke-width="2"><g stroke-miterlimit="10"><path d="m222 95c-3-8-4-28-4-37 3.85-3.37 12-4 19-4h14s1 4-4 11c-2 10.49-3 24-6 30z" transform="translate(-210 -49)"/><path d="m244 57a83.73 83.73 0 0 1 -2.78 13.3 1 1 0 0 1 -.95.7h-15.63a1 1 0 0 1 -.91-.58c-1.73-3.98-1.73-10.42-1.73-10.42" transform="translate(-210 -49)"/><path d="m26 22v4h-8v-4"/></g><path d="m232 78c-.58 2.84-4 4.73-4 8a4 4 0 0 0 8 0c0-3.27-3.42-5.16-4-8z" stroke-linejoin="round" transform="translate(-210 -49)"/><path d="m245 54s-1-4-6-4h-7c-4 0-8 .5-10 2-4 3-4 5-4 5v1c-3 1-7 2-7 7 0 7 1 16 8.63 18.86" stroke-miterlimit="10" transform="translate(-210 -49)"/></g></svg>