<svg viewBox="0 0 328 384" xmlns="http://www.w3.org/2000/svg"><g fill="none" stroke="#515151" stroke-linecap="round" stroke-width="16"><g stroke-linejoin="round"><path d="m420 985 16-64c4.83-20 14.4-32 32-32h8a32 32 0 0 1 25.63 12.84l38.22 51.16h48s-.27 32-27.85 32h-44l-40-40" transform="translate(-412 -609)"/><path d="m146.82 312.63 29.18-48.63h144l-48 80h-64"/><path d="m72 376h240"/><path d="m552 785h24v53.36a4 4 0 0 0 7 2.63l49-56h72a16 16 0 0 0 16-16v-135.99a16 16 0 0 0 -16-16h-216a16 16 0 0 0 -16 16v112" transform="translate(-412 -609)"/><path d="m512 827.67v9.92c0 15.15-11.46 27.43-26.8 27.43l-13.2-.02v-41.07" transform="translate(-412 -609)"/><path d="m464 825c16 0 31.18-13.6 36.09-20.8" transform="translate(-412 -609)"/></g><path d="m528 801c0-16-19.7-32-44-32s-44 18.39-44 41.07v46.93c0 9-4.75 12.75-8 16" stroke-miterlimit="10" transform="translate(-412 -609)"/><path d="m140 96h8" stroke-linejoin="round"/><path d="m180 96h8" stroke-linejoin="round"/><path d="m220 96h8" stroke-linejoin="round"/></g></svg>