<svg viewBox="0 0 43.76 102.74" xmlns="http://www.w3.org/2000/svg" xmlns:xlink="http://www.w3.org/1999/xlink"><radialGradient id="a" cx="67.52" cy="188.43" gradientUnits="userSpaceOnUse" r="2.29"><stop offset=".57" stop-color="#130c0e"/><stop offset=".8" stop-color="#130c0e"/><stop offset="1" stop-color="#130c0e"/></radialGradient><radialGradient id="b" cx="67.09" cy="208.22" r="6.8" xlink:href="#a"/><g transform="translate(-44.64 -172.43)"><path d="m88.4 275.17h-43.76v-102.74h43.76zm-11.22-3h8.22v-96.74h-37.76v96.74z" fill="#231f20"/><path d="m82.4 223.43h-31.76v-39h31.76zm-7.91-3h4.91v-33h-25.76v33z" fill="#231f20"/><path d="m67.52 190.93c-1.14 0-2.06-.34-2.06-.75v-3.5c0-.41.92-.75 2.06-.75s2 .34 2 .75v3.5c.05.41-.87.75-2 .75z" fill="url(#a)"/><g fill="#231f20"><path d="m58.64 181.93h-2.5a1.5 1.5 0 1 1 0-3h2.5a1.5 1.5 0 0 1 0 3z"/><path d="m69.15 181.93h-5.26a1.5 1.5 0 1 1 0-3h5.26a1.5 1.5 0 0 1 0 3z"/><path d="m76.9 181.93h-2.5a1.5 1.5 0 0 1 0-3h2.5a1.5 1.5 0 1 1 0 3z"/><path d="m80.9 217.43h-28.76a1.5 1.5 0 1 1 0-3h28.76a1.5 1.5 0 1 1 0 3z"/></g><path d="m68.4 215.88h-2.63a1.49 1.49 0 0 1 -1.45-1.15l-3-12.32a1.49 1.49 0 0 1 1.45-1.85h8.63a1.5 1.5 0 0 1 1.46 1.85l-3 12.32a1.51 1.51 0 0 1 -1.46 1.15zm-1.45-3h.27l2.27-9.32h-4.81z" fill="url(#b)"/></g></svg>