<svg viewBox="0 0 30 48" xmlns="http://www.w3.org/2000/svg"><g fill="none" stroke="#505050" stroke-miterlimit="10" stroke-width="2"><path d="m82 95a3 3 0 0 0 3-3v-2c.82-.39 1-.54 1-1v-4c0-.46-.18-.61-1-1v-12c.82-.39 1-.54 1-1v-4c0-.45-.36-.69-1-1v-2c0-3-10-3-10-6v-2l1-1v-4c0-.48.18-2-2-2h-4c-2.18 0-2 1.52-2 2v4l1 1v2c0 3-10 2-10 6v2c-.64.31-1 .55-1 1v4c0 .46.18.61 1 1v12c-.82.39-1 .54-1 1v4c0 .46.18.61 1 1v2a3 3 0 0 0 3 3z" transform="translate(-57 -48)"/><g stroke-linecap="round"><path d="m12 8h3"/><path d="m2 18h13"/><path d="m2 24h11"/><path d="m2 36h13"/><path d="m2 42h11"/><path d="m24 18h4"/><path d="m22 24h6"/><path d="m24 36h4"/><path d="m22 42h6"/></g></g></svg>