<svg viewBox="0 0 42.72 42.72" xmlns="http://www.w3.org/2000/svg"><g fill="none" stroke="#505050" stroke-miterlimit="10" stroke-width="2"><path d="m53.68 214.18-1.42 1.41a2 2 0 0 0 0 2.83l2.12 2.12" transform="translate(-50.68 -211.18)"/><path d="m12.19 23.51 1.42-1.42"/><path d="m15.73 27.04 1.41-1.41"/><path d="m57.21 217.71-2.83 2.83 2.12 2.12c.43.43.3.6.2 2a18.06 18.06 0 0 0 -.05 2.39 8.22 8.22 0 0 0 2.68 5.47l1.42 1.48a2.25 2.25 0 0 0 2.12.7 2.51 2.51 0 0 0 .71 2.12l.7.71a2.52 2.52 0 0 0 2.12.71 2.52 2.52 0 0 0 .71 2.12l.71.71a2.54 2.54 0 0 0 2.12.7 4.83 4.83 0 0 0 1.41 2.83l5 4.95c4.25 4.24 7.78 3.54 8.49 2.83l1.36-1.38a2.39 2.39 0 0 0 .71-2.13l.71-.7" transform="translate(-50.68 -211.18)"/><path d="m19.26 30.58 1.42-1.42"/><path d="m53.68 214.18 1.41-1.42a2 2 0 0 1 2.83 0l2.08 2.12" transform="translate(-50.68 -211.18)"/><path d="m23.51 12.19-1.42 1.42"/><path d="m27.04 15.73-1.41 1.41"/><path d="m57.21 217.71 2.79-2.83 2.16 2.12c.43.43.6.3 2 .2a18.06 18.06 0 0 1 2.39 0 8.22 8.22 0 0 1 5.47 2.68l1.41 1.42a2.23 2.23 0 0 1 .71 2.12 2.51 2.51 0 0 1 2.12.71l.71.7a2.52 2.52 0 0 1 .71 2.12 2.52 2.52 0 0 1 2.12.71l.71.71a2.54 2.54 0 0 1 .7 2.12 4.83 4.83 0 0 1 2.83 1.41l5 5c4.24 4.25 3.54 7.78 2.83 8.49l-1.41 1.41a2.39 2.39 0 0 1 -2.13.71l-.7.71" transform="translate(-50.68 -211.18)"/><path d="m30.58 19.26-1.42 1.42"/></g></svg>