<svg preserveAspectRatio="none" fill="none" xmlns="http://www.w3.org/2000/svg" xmlns:xlink="http://www.w3.org/1999/xlink" x="0px" y="0px" viewBox="0 0 413.6 512" xml:space="preserve">
	<path fill="currentColor" d="M206.8,0C92.8,0,0,92.8,0,206.8c0,139.7,120.5,236.1,192.5,293.7l14.4,11.5l14.4-11.5c72-57.6,192.5-154,192.5-293.7 C413.6,92.8,320.9,0,206.8,0z M206.8,453C123.4,385.1,46,309.5,46,206.8C46,118.1,118.1,46,206.8,46s160.9,72.2,160.9,160.9 C367.7,309.5,290.2,385.1,206.8,453z"/>
	<path fill="currentColor" d="M206.8,160.9c-25.3,0-46,20.6-46,46s20.6,46,46,46c25.3,0,46-20.6,46-46S232.2,160.9,206.8,160.9z"/>
</svg>
