<svg viewBox="0 0 699.94 699.94" xmlns="http://www.w3.org/2000/svg"><g transform="translate(-30.03 -50.03)"><path d="m717.66 344.51-74.84-11.88a269.16 269.16 0 0 0 -29.66-70.37l44.84-61.78a14.6 14.6 0 0 0 -1.49-18.88l-58.11-58.12a14.62 14.62 0 0 0 -18.88-1.48l-62.46 45.35a269.89 269.89 0 0 0 -69.45-28.68l-12.12-76.33a14.57 14.57 0 0 0 -14.39-12.34h-82.2a14.57 14.57 0 0 0 -14.39 12.31l-12.12 76.32a270.16 270.16 0 0 0 -69.47 28.68l-62.45-45.31a14.64 14.64 0 0 0 -18.89 1.49l-58.11 58.11a14.6 14.6 0 0 0 -1.5 18.88l44.86 61.78a269.59 269.59 0 0 0 -29.66 70.37l-74.83 11.88a14.56 14.56 0 0 0 -12.34 14.39v82.2a14.56 14.56 0 0 0 12.29 14.39l73.61 11.7a270.17 270.17 0 0 0 29.63 72.31l-43.59 60a14.61 14.61 0 0 0 1.5 18.89l58.11 58.11a14.59 14.59 0 0 0 18.89 1.5l59.35-43.09a269.06 269.06 0 0 0 73.24 30.6l11.45 72.14a14.56 14.56 0 0 0 14.42 12.35h82.2a14.56 14.56 0 0 0 14.39-12.31l11.45-72.12a269 269 0 0 0 73.24-30.62l59.34 43.05a14.57 14.57 0 0 0 18.88-1.5l58.12-58.13a14.6 14.6 0 0 0 1.48-18.85l-43.59-60a269.87 269.87 0 0 0 29.64-72.31l73.6-11.7a14.56 14.56 0 0 0 12.35-14.41v-82.2a14.56 14.56 0 0 0 -12.34-14.39zm-16.86 84.14-71 11.28a14.58 14.58 0 0 0 -12 11.45 240.74 240.74 0 0 1 -33.14 81 14.59 14.59 0 0 0 .49 16.42l42 57.83-40.52 40.53-57.24-41.58a14.67 14.67 0 0 0 -16.56-.4 240.67 240.67 0 0 1 -81.83 34.14 14.56 14.56 0 0 0 -11.35 12l-11 69.5h-57.3l-11-69.52a14.54 14.54 0 0 0 -11.35-12 240.59 240.59 0 0 1 -81.74-34.19 14.61 14.61 0 0 0 -16.56.4l-57.3 41.6-40.51-40.51 42-57.85a14.57 14.57 0 0 0 .48-16.42 240.51 240.51 0 0 1 -33.13-81 14.58 14.58 0 0 0 -12-11.45l-71.04-11.23v-57.3l72.12-11.44a14.54 14.54 0 0 0 12-11.2 240.14 240.14 0 0 1 33.37-79.09 14.59 14.59 0 0 0 -.42-16.53l-43.33-59.67 40.46-40.52 60.25 43.76a14.59 14.59 0 0 0 16.39.5 241 241 0 0 1 78.31-32.31 14.57 14.57 0 0 0 11.31-12l11.69-73.65h57.3l11.69 73.68a14.6 14.6 0 0 0 11.31 12 241 241 0 0 1 78.29 32.31 14.55 14.55 0 0 0 16.39-.5l60.25-43.76 40.52 40.52-43.34 59.67a14.6 14.6 0 0 0 -.41 16.53 240.7 240.7 0 0 1 33.38 79.09 14.54 14.54 0 0 0 11.95 11.2l72.12 11.44z"/><path d="m380 246.9c-84.43 0-153.11 68.68-153.11 153.1s68.68 153.11 153.11 153.11 153.1-68.68 153.1-153.11-68.68-153.1-153.1-153.1zm0 277.1a123.94 123.94 0 1 1 123.93-124 124.1 124.1 0 0 1 -123.93 124z"/></g></svg>