<svg viewBox="0 0 3029.04 2580.34" xmlns="http://www.w3.org/2000/svg"><g fill="#231f20" transform="translate(-485.48 -709.83)"><path d="m3484.83 1365.44-1464.51-651.3a50 50 0 0 0 -40.64 0l-1464.51 651.3a50 50 0 0 0 40.64 91.37l80.12-35.63v1819a50 50 0 0 0 50 50h2628.14a50 50 0 0 0 50-50v-1819l80.12 35.63a50 50 0 0 0 40.64-91.37zm-1771.7 1824.73v-392.17h767.38v392.18zm165.41-1020.68v-295.36h432.53v295.36zm295.36 100v428.51h-654.41v-428.5zm406.61 920.68v-442.17a50 50 0 0 0 -50-50h-256.61v-428.5h87.17a50 50 0 0 0 50-50v-395.37a50 50 0 0 0 -50-50h-532.53a50 50 0 0 0 -50 50v345.36h-309a50 50 0 0 0 -50 50v528.51a50 50 0 0 0 50 50h143.64v392.18h-377.82v-1675.78h1529.28v1675.77zm683.56 0h-399.43v-1725.77a50 50 0 0 0 -50-50h-1629.28a50 50 0 0 0 -50 50v1725.77h-399.43v-1813.46l1264.07-562.16 1264.07 562.16z"/><path d="m2399.55 2854.25h-210.87a50 50 0 0 0 0 100h210.87a50 50 0 0 0 0-100z"/><path d="m1606 2402.28h184.24a50 50 0 1 0 0-100h-184.24a50 50 0 0 0 0 100z"/><path d="m2223.55 1913.83h-128.74a50 50 0 0 0 0 100h128.74a50 50 0 0 0 0-100z"/></g></svg>