<svg viewBox="0 0 61.7 80.66" xmlns="http://www.w3.org/2000/svg"><g fill="#364352"><path d="m59.1 79.58a1.81 1.81 0 0 1 -1.28-.53l-3.5-3.5 2.55-2.55 2.07 2.06 4.92-6.23 2.84 2.24-6.18 7.83a1.83 1.83 0 0 1 -1.32.68z" transform="translate(-41.15 -44.67)"/><path d="m31.3 27.69h16.86v3.61h-16.86z"/><path d="m31.3 43.34h16.86v3.61h-16.86z"/><path d="m31.3 58.99h16.86v3.61h-16.86z"/><g transform="translate(-41.15 -44.67)"><path d="m101 125.33h-58a1.81 1.81 0 0 1 -1.81-1.81v-73.43a1.81 1.81 0 0 1 1.81-1.81h8.15v3.61h-6.39v69.83h54.48v-69.83h-6.43v-3.61h8.19a1.81 1.81 0 0 1 1.81 1.81v73.43a1.81 1.81 0 0 1 -1.81 1.81z"/><path d="m59.1 95.16a1.82 1.82 0 0 1 -1.28-.54l-3.5-3.5 2.55-2.55 2.07 2.06 4.92-6.23 2.84 2.24-6.18 7.83a1.83 1.83 0 0 1 -1.32.68z"/><path d="m59.1 110.88a1.77 1.77 0 0 1 -1.28-.53l-3.5-3.5 2.55-2.55 2.07 2.07 4.92-6.24 2.84 2.24-6.18 7.83a1.83 1.83 0 0 1 -1.32.68z"/><path d="m86.11 44.67h-28.22a1.81 1.81 0 0 0 -1.81 1.81v6.22a7.64 7.64 0 0 0 7.63 7.62h16.58a7.64 7.64 0 0 0 7.63-7.62v-6.22a1.82 1.82 0 0 0 -1.81-1.81zm-1.81 8a4 4 0 0 1 -4 4h-16.59a4 4 0 0 1 -4-4v-4.39h24.59z"/></g></g></svg>