<svg viewBox="0 0 83.29 91.95" xmlns="http://www.w3.org/2000/svg"><g fill="#4d4d4d" transform="translate(-184.95 -141.19)"><path d="m223.11 141.19c-16.7 0-30.81 14.9-30.81 32.53v2.45a7.21 7.21 0 0 0 -3.25 6v3.83a7.24 7.24 0 0 0 7.24 7.24 1.9 1.9 0 0 0 1.91-1.91v-14.46a1.89 1.89 0 0 0 -1.6-1.85v-1.3c0-15 12.39-28.23 26.51-28.23s26.5 13.19 26.5 28.23v1.28a1.89 1.89 0 0 0 -1.6 1.85v14.48a1.89 1.89 0 0 0 1.11 1.72c-2 6.74-10.1 9.8-18.17 10.52a4.51 4.51 0 1 0 .19 4.29c10.48-.89 21.17-5.38 22.61-15.74a7.21 7.21 0 0 0 2.31-2.32 7.13 7.13 0 0 0 1.1-3.8v-3.8a7.21 7.21 0 0 0 -3.25-6v-2.45c0-17.66-14.1-32.56-30.8-32.56z"/><path d="m240 211.56a37.16 37.16 0 0 1 -13.38 5.94 37.46 37.46 0 0 1 -13.36-5.93 19.38 19.38 0 0 0 1.66-4.3 19.52 19.52 0 0 0 6 1.93 7.06 7.06 0 0 1 -.85-3.29 6.79 6.79 0 0 1 .13-1.21c-8.18-2.06-14.35-10.81-14.35-21.27a24.58 24.58 0 0 1 .3-3.58c.62.05 1.23.07 1.83.07 8.19 0 14.53-4.39 20.27-8.36l.89-.62a36.17 36.17 0 0 0 12.42 8.59 26.24 26.24 0 0 1 .34 3.9 23.36 23.36 0 0 1 -7.47 17.57 24.06 24.06 0 0 0 7.73-2.72 29 29 0 0 0 4-14.8 30.87 30.87 0 0 0 -.58-5.82c0-.08-.07-.14-.09-.22a2.83 2.83 0 0 0 -.17-.4 1.94 1.94 0 0 0 -.23-.33 2 2 0 0 0 -.29-.29 2.3 2.3 0 0 0 -.37-.23 1.37 1.37 0 0 0 -.2-.13 31.71 31.71 0 0 1 -17.61-16.4 2.15 2.15 0 0 0 -4 1.52 29.82 29.82 0 0 0 3.74 6.49l-.57.4c-6.83 4.73-13.29 9.21-22.48 7 .83-10.87 9.76-22.35 21.54-22.35a2.16 2.16 0 0 0 0-4.31c-13.8 0-25.9 13.22-25.9 28.28a2.15 2.15 0 0 0 1.51 2.06c.49.15 1 .27 1.44.39a30.3 30.3 0 0 0 -.36 4.3c0 9.17 4.1 17.24 10.27 21.87a14 14 0 0 1 -1.27 4l-.39-.38a2.16 2.16 0 0 0 -1.86-.67 2.19 2.19 0 0 0 -1.63 1.13 11.93 11.93 0 0 1 -6.28 4.91l-4.86 1.14c-3.34.77-6.17 3.51-7.6 7.32l-2.79 7.44a2.15 2.15 0 1 0 4 1.51l2.79-7.44c.92-2.46 2.62-4.19 4.55-4.64l5-1.17.25-.08a18.39 18.39 0 0 0 2-.89l14.08 14.94a2.13 2.13 0 0 0 2.67.37l6.11-3.66 6.11 3.66a2.14 2.14 0 0 0 2.67-.37l14.08-14.94a19.06 19.06 0 0 0 2 .89l.26.08 5 1.17c1.93.45 3.63 2.18 4.55 4.64l2.79 7.44a2.14 2.14 0 0 0 2 1.4 2.17 2.17 0 0 0 2-2.91l-2.79-7.44c-1.43-3.81-4.27-6.55-7.6-7.32l-4.86-1.14a12 12 0 0 1 -6.27-4.89 2.16 2.16 0 0 0 -3.5-.48l-.37.36c-.26-.57-.48-1.1-.65-1.58-1.07.4-2.17.72-3.29 1a19.9 19.9 0 0 0 1.29 2.85zm5.86 3.53-12.41 13.16-5.73-3.43a2.14 2.14 0 0 0 -2.21 0l-5.73 3.43-12.4-13.16a15.84 15.84 0 0 0 1.48-1.47 40.76 40.76 0 0 0 17.3 8.18 2 2 0 0 0 .91 0 40.63 40.63 0 0 0 17.3-8.18 17.39 17.39 0 0 0 1.46 1.47z"/></g></svg>