<svg preserveAspectRatio="none" fill="none" xmlns="http://www.w3.org/2000/svg" xmlns:xlink="http://www.w3.org/1999/xlink" x="0px" y="0px" viewBox="0 0 512 488.4" xml:space="preserve">
	<path fill="currentColor" d="M511.3,185.5c-1.8-5.4-6.5-9.4-12.1-10.2l-158.7-23.1l-71-143.8C266.9,3.2,261.7,0,256,0c-5.7,0-10.9,3.2-13.5,8.4 l-71,143.8L12.8,175.3c-5.6,0.8-10.3,4.8-12.1,10.2c-1.8,5.4-0.3,11.4,3.8,15.4l114.8,112L92.3,470.9c-1,5.6,1.3,11.3,6,14.7 c2.6,1.9,5.7,2.9,8.8,2.9c2.4,0,4.8-0.6,7-1.7L256,412l142,74.6c5.1,2.7,11.2,2.2,15.8-1.1s6.9-9,6-14.7l-27.1-158.1l114.9-112 C511.6,196.9,513,190.9,511.3,185.5z"/>
</svg>
