<svg xmlns="http://www.w3.org/2000/svg" xmlns:xlink="http://www.w3.org/1999/xlink" fill="#49c5ff" x="0px" y="0px" viewBox="0 0 47.8 61.3" style="enable-background:new 0 0 47.8 61.3;" xml:space="preserve">
	<polygon points="16.5,34.1 19.5,35.8 19.8,35.3 16.8,33.6"/>
	<rect x="20.3" y="43.2" transform="matrix(0.5004 -0.8658 0.8658 0.5004 -28.5818 40.2432)" width="0.6" height="3.4"/>
	<rect x="15.3" y="34.5" width="0.6" height="3.4"/>
	<rect x="15.3" y="41.7" width="0.6" height="3.4"/>
	<rect x="22.9" y="34.5" width="0.6" height="3.4"/>
	<rect x="22.7" y="41" transform="matrix(0.8672 -0.498 0.498 0.8672 -17.3263 17.6289)" width="3.4" height="0.6"/>
	<polygon points="34.3,30.6 34.7,31.1 36.4,30.1 36.1,29.6  "/>
	<rect x="32.8" y="33.2" width="0.6" height="2"/>
	<rect x="35.1" y="31.9" transform="matrix(0.4995 -0.8663 0.8663 0.4995 -10.8332 47.1316)" width="0.6" height="2"/>
	<polygon points="29.8,33.2 30.1,33.7 31.9,32.7 31.6,32.2  "/>
	<rect x="32.8" y="28" width="0.6" height="2"/>
	<polygon points="29.8,30.1 31.6,31.1 31.9,30.6 30.1,29.6  "/>
	<path d="M23,37.3c0,0-7.2,4.2-7.5,4.3c-0.3-0.2-2.5-1.5-2.5-1.5l-0.3,0.5l2.7,1.6c0.1,0.1,0.2,0.1,0.3,0   c0,0,7.2-4.2,7.5-4.3c0.3,0.2,2.5,1.5,2.5,1.5l0.3-0.5l-2.7-1.6C23.2,37.3,23.1,37.3,23,37.3"/>
	<path d="M32.9,35l-1.7,1l0.3,0.5c0,0,1.4-0.8,1.6-0.9c0.3,0.2,1.6,0.9,1.6,0.9L35,36l-1.8-1C33.2,35,33,35,32.9,35"/>
	<path d="M19.2,35.1c-0.1,0.1-0.2,0.2-0.2,0.3c0,0,0,8.3,0,8.6c-0.3,0.2-2.5,1.5-2.5,1.5l0.3,0.5l2.7-1.6   c0.1-0.1,0.2-0.2,0.2-0.3c0,0,0-8.3,0-8.6c0.3-0.2,2.5-1.5,2.5-1.5l-0.3-0.5L19.2,35.1z"/>
	<path d="M15.4,37.3l-2.7,1.6l0.3,0.5c0,0,2.3-1.3,2.5-1.5c0.3,0.2,7,4.1,7.3,4.2c0,0.3,0,2.9,0,2.9h0.6V42   c0-0.1,0-0.2-0.2-0.3l-7.6-4.4C15.6,37.3,15.5,37.3,15.4,37.3"/>
	<path d="M35.9,27.8v2c0,0.1,0.1,0.2,0.2,0.3l1.8,1l0.3-0.5c0,0-1.3-0.8-1.6-0.9c0-0.3,0-1.8,0-1.8H35.9z"/>
	<path d="M36.1,33.2c-0.1,0.1-0.2,0.2-0.2,0.3v2h0.6c0,0,0-1.6,0-1.8c0.3-0.2,1.6-0.9,1.6-0.9l-0.3-0.5L36.1,33.2z"/>
	<path d="M28.1,32.7c0,0,1.4,0.8,1.6,0.9c0,0.3,0,1.8,0,1.8h0.6v-2c0-0.1-0.1-0.2-0.2-0.3l-1.8-1L28.1,32.7z"/>
	<path d="M29.6,27.8c0,0,0,1.6,0,1.8c-0.3,0.1-1.6,0.9-1.6,0.9l0.3,0.5l1.8-1c0.1-0.1,0.2-0.2,0.2-0.3v-2L29.6,27.8   L29.6,27.8z"/>
	<path d="M31.2,27.2l1.7,1c0.1,0.1,0.2,0.1,0.3,0l1.8-1l-0.3-0.5c0,0-1.3,0.8-1.6,0.9c-0.3-0.1-1.6-0.9-1.6-0.9   L31.2,27.2z"/>
	<path d="M11.8,2.6l0.2,0C15.7,2.2,19.6,2,23.9,2s8.2,0.2,11.9,0.6l0.2,0c8.4,0.9,9.7,2.2,9.8,2.4   c-0.2,0.2-1.4,1.5-9.8,2.4l-0.2,0c-3.7,0.4-7.6,0.6-11.9,0.6c-4.3,0-8.2-0.2-11.9-0.6l-0.2,0C2.7,6.4,2,4.9,2,4.9   C2,4.9,2.9,3.5,11.8,2.6 M11.8,0.6l-0.2,0C1.3,1.7,0,3.5,0,4.9s1.3,3.3,11.6,4.3l0.2,0c3.8,0.4,7.7,0.6,12.1,0.6   c4.4,0,8.3-0.2,12.1-0.6l0.2,0c10.3-1.1,11.7-2.9,11.7-4.3c0-1.5-1.3-3.3-11.6-4.3l-0.2,0C32.2,0.2,28.3,0,23.9,0   C19.5,0,15.6,0.2,11.8,0.6z"/>
	<path d="M15.4,21.9l-0.2,0C8.7,21.1,8,19.8,8,19.3c0-0.5,0.7-1.8,7.2-2.6l0.2,0c2.6-0.3,5.4-0.5,8.5-0.5   c3.1,0,5.9,0.2,8.5,0.5l0.2,0c6.5,0.8,7.3,2.1,7.3,2.6c0,0.5-0.7,1.8-7.2,2.6l-0.2,0c-2.6,0.3-5.4,0.5-8.5,0.5   C20.8,22.5,18,22.3,15.4,21.9 M15.3,16l-0.2,0c-5.2,0.7-7.8,1.7-7.8,3.2s2.5,2.5,7.8,3.2l0.2,0c2.7,0.3,5.5,0.5,8.6,0.5   c3.1,0,5.9-0.2,8.6-0.5l0.2,0c5.2-0.7,7.8-1.7,7.8-3.2s-2.5-2.6-7.8-3.2l-0.2,0c-2.6-0.3-5.4-0.5-8.6-0.5   C20.8,15.5,18,15.7,15.3,16z"/>
	<path d="M43.1,7l-5.2,48.3c-0.1,0.6-1.1,2-5.9,3.1c-2.5,0.6-5.2,0.9-8.2,0.9c-3,0-5.7-0.3-8.2-0.9   c-5-1.2-5.8-2.5-5.9-3.3L4.6,7C4.6,6.5,4.1,6.1,3.5,6.1C3,6.2,2.6,6.7,2.7,7.2l5.2,48.2c0.3,3,4.4,4.3,7.4,5   c2.6,0.6,5.5,0.9,8.6,0.9s6-0.3,8.6-0.9c2.9-0.7,6.9-1.9,7.4-4.7c0-0.1,5.2-48.4,5.2-48.4c0.1-0.5-0.3-1-0.9-1.1   C43.7,6.1,43.2,6.5,43.1,7"/>
	<path d="M23.9,49.6c-3,0-5.6,0.3-8.1,0.9c-1.5,0.4-6.3,1.5-6.6,4.2l0,0.3L9.7,55l0-0.3C9.9,53.2,12,52,15.9,51   c2.4-0.6,5-0.8,8-0.8c2.9,0,5.5,0.3,8,0.8c3.8,0.9,5.8,2.1,6.1,3.5l0.1,0.3l0.6-0.1l-0.1-0.3c-0.6-2.5-5.1-3.6-6.6-3.9   C29.5,49.9,26.9,49.6,23.9,49.6"/>
</svg>