<svg xmlns="http://www.w3.org/2000/svg" xmlns:xlink="http://www.w3.org/1999/xlink" fill="#7ad6a9" x="0px" y="0px" viewBox="0 0 48.3 87.6" style="enable-background:new 0 0 48.3 87.6;" xml:space="preserve">
	<path d="M12,28.3l0.2,0c3.7-0.4,7.6-0.6,12-0.6s8.3,0.2,12,0.6l0.2,0c8.5,0.9,9.8,2.2,9.9,2.4   c-0.2,0.2-1.4,1.5-9.9,2.4l-0.2,0c-3.7,0.4-7.6,0.6-12,0.6s-8.3-0.2-12-0.6l-0.2,0c-9.2-1-10-2.4-10-2.4C2,30.7,3,29.2,12,28.3    M12,26.3l-0.2,0C1.3,27.4,0,29.2,0,30.7c0,1.5,1.3,3.3,11.8,4.4l0.2,0c3.8,0.4,7.8,0.6,12.2,0.6c4.4,0,8.4-0.2,12.2-0.6l0.2,0   C47,34,48.3,32.2,48.3,30.7c0-1.5-1.3-3.3-11.8-4.4l-0.2,0c-3.8-0.4-7.8-0.6-12.2-0.6C19.7,25.7,15.7,25.9,12,26.3z"/>
	<path d="M15.6,47.9l-0.2,0c-6.6-0.9-7.3-2.2-7.3-2.7s0.7-1.8,7.3-2.7l0.2,0c2.7-0.4,5.5-0.5,8.6-0.5   c3.1,0,5.9,0.2,8.6,0.5l0.2,0c6.6,0.9,7.3,2.2,7.3,2.7s-0.7,1.8-7.3,2.7l-0.2,0c-2.7,0.3-5.5,0.5-8.6,0.5   C21,48.4,18.2,48.2,15.6,47.9 M15.5,41.9l-0.2,0c-5.3,0.7-7.8,1.7-7.8,3.2c0,1.5,2.6,2.6,7.8,3.3l0.2,0c2.7,0.3,5.5,0.5,8.7,0.5   s6-0.2,8.7-0.5l0.2,0c5.3-0.7,7.8-1.8,7.8-3.3s-2.6-2.6-7.8-3.3l-0.2,0c-2.7-0.4-5.5-0.5-8.7-0.5C21,41.4,18.2,41.6,15.5,41.9z"/>
	<path d="M43.6,32.8l-5.2,48.8c-0.1,0.6-1.1,2-6,3.1c-2.5,0.6-5.2,0.9-8.3,0.9s-5.7-0.3-8.3-0.9c-5-1.2-5.9-2.6-6-3.3   L4.7,32.8c-0.1-0.5-0.5-0.9-1.1-0.9c-0.5,0-1,0.6-0.9,1.1l5.2,48.7c0.3,3,4.4,4.3,7.5,5c2.7,0.6,5.5,0.9,8.7,0.9   c3.2,0,6-0.3,8.7-0.9c3-0.7,7-1.9,7.5-4.8c0-0.1,5.3-48.9,5.3-48.9c0.1-0.5-0.3-1-0.9-1.1S43.6,32.3,43.6,32.8"/>
	<path d="M24.1,75.8c-3,0-5.7,0.3-8.2,0.9c-1.6,0.4-6.3,1.5-6.7,4.2l0,0.3l0.6,0.1l0-0.3c0.2-1.5,2.3-2.8,6.2-3.7   c2.5-0.6,5.1-0.8,8.1-0.8s5.6,0.3,8.1,0.8c3.8,0.9,5.9,2.1,6.2,3.5l0.1,0.3l0.6-0.1L39,80.7c-0.6-2.6-5.2-3.6-6.7-4   C29.8,76.1,27.2,75.8,24.1,75.8"/>
	<path d="M27,1c-0.3-0.3-0.7-0.5-1.1-0.5c-0.4,0-0.8,0.2-1.1,0.5s-0.5,0.7-0.5,1.1c0,0.4,0.2,0.8,0.5,1.1   c0.3,0.3,0.7,0.5,1.1,0.5c0.4,0,0.8-0.2,1.1-0.5s0.5-0.7,0.5-1.1C27.4,1.7,27.2,1.3,27,1 M25.9,0c0.6,0,1.1,0.2,1.5,0.6   S28,1.5,28,2.1c0,0.6-0.2,1.1-0.6,1.5c-0.4,0.4-0.9,0.6-1.5,0.6c-0.6,0-1.1-0.2-1.5-0.6s-0.6-0.9-0.6-1.5S24,1,24.3,0.6   C24.7,0.2,25.3,0,25.9,0z"/>
	<path d="M21.2,19c-0.3-0.3-0.7-0.5-1.1-0.5S19.3,18.7,19,19c-0.3,0.3-0.5,0.7-0.5,1.1c0,0.4,0.2,0.8,0.5,1.1   c0.3,0.3,0.7,0.5,1.1,0.5c0.4,0,0.8-0.2,1.1-0.5c0.3-0.3,0.5-0.7,0.5-1.1S21.5,19.3,21.2,19 M20.1,18c0.6,0,1.1,0.2,1.5,0.6   s0.6,0.9,0.6,1.5c0,0.6-0.2,1.1-0.6,1.5s-0.9,0.6-1.5,0.6c-0.6,0-1.1-0.2-1.5-0.6s-0.6-0.9-0.6-1.5s0.2-1.1,0.6-1.5   C19,18.2,19.5,18,20.1,18z"/>
	<path d="M29.9,21.5c-0.3-0.3-0.7-0.5-1.1-0.5c-0.4,0-0.8,0.2-1.1,0.5c-0.3,0.3-0.5,0.7-0.5,1.1c0,0.4,0.2,0.8,0.5,1.1   c0.3,0.3,0.7,0.5,1.1,0.5s0.8-0.2,1.1-0.5c0.3-0.3,0.5-0.7,0.5-1.1C30.4,22.1,30.2,21.8,29.9,21.5 M28.8,20.4   c0.6,0,1.1,0.2,1.5,0.6S31,22,31,22.6c0,0.6-0.2,1.1-0.6,1.5s-0.9,0.6-1.5,0.6c-0.6,0-1.1-0.2-1.5-0.6s-0.6-0.9-0.6-1.5   s0.2-1.1,0.6-1.5C27.7,20.7,28.3,20.4,28.8,20.4z"/>
	<path d="M15.9,51.5c-0.2-0.2-0.4-0.3-0.6-0.3c-0.3,0-0.5,0.1-0.6,0.3s-0.3,0.4-0.3,0.6c0,0.3,0.1,0.5,0.3,0.6   c0.2,0.2,0.4,0.3,0.6,0.3c0.3,0,0.5-0.1,0.6-0.3s0.3-0.4,0.3-0.6S16,51.7,15.9,51.5 M15.2,50.6c0.4,0,0.8,0.2,1.1,0.4l0,0   c0.3,0.3,0.4,0.7,0.4,1.1c0,0.4-0.2,0.8-0.4,1.1s-0.7,0.4-1.1,0.4s-0.8-0.2-1.1-0.4c-0.3-0.3-0.4-0.7-0.4-1.1   c0-0.4,0.2-0.8,0.4-1.1S14.8,50.6,15.2,50.6z"/>
	<path d="M32.6,50.8c-0.2-0.2-0.4-0.3-0.6-0.3s-0.5,0.1-0.6,0.3s-0.3,0.4-0.3,0.6c0,0.3,0.1,0.5,0.3,0.6   c0.2,0.2,0.4,0.3,0.6,0.3c0.3,0,0.5-0.1,0.6-0.3s0.3-0.4,0.3-0.6C32.9,51.2,32.8,51,32.6,50.8 M32,50c0.4,0,0.8,0.2,1.1,0.4   c0.3,0.3,0.4,0.7,0.4,1.1c0,0.4-0.2,0.8-0.4,1.1S32.4,53,32,53s-0.8-0.2-1.1-0.4l0,0c-0.3-0.3-0.4-0.7-0.4-1.1   c0-0.4,0.2-0.8,0.4-1.1C31.2,50.1,31.5,50,32,50z"/>
	<path d="M25.6,61.2c-0.2-0.2-0.4-0.3-0.6-0.3c-0.3,0-0.5,0.1-0.6,0.3s-0.3,0.4-0.3,0.6c0,0.3,0.1,0.5,0.3,0.6   c0.2,0.2,0.4,0.3,0.6,0.3c0.3,0,0.5-0.1,0.6-0.3s0.3-0.4,0.3-0.6C25.9,61.6,25.8,61.4,25.6,61.2 M25,60.3c0.4,0,0.8,0.2,1.1,0.4   c0.3,0.3,0.4,0.7,0.4,1.1c0,0.4-0.2,0.8-0.4,1.1s-0.7,0.4-1.1,0.4s-0.8-0.2-1.1-0.4c-0.3-0.3-0.4-0.7-0.4-1.1   c0-0.4,0.2-0.8,0.4-1.1S24.6,60.3,25,60.3z"/>
	<path d="M34.4,58c-0.2-0.2-0.4-0.3-0.6-0.3c-0.3,0-0.5,0.1-0.6,0.3s-0.3,0.4-0.3,0.6c0,0.3,0.1,0.5,0.3,0.6   c0.2,0.2,0.4,0.3,0.6,0.3c0.3,0,0.5-0.1,0.6-0.3c0.2-0.2,0.3-0.4,0.3-0.6C34.6,58.4,34.5,58.2,34.4,58 M33.7,57.2   c0.4,0,0.8,0.2,1.1,0.4c0.3,0.3,0.4,0.7,0.4,1.1c0,0.4-0.2,0.8-0.4,1.1c-0.3,0.3-0.7,0.4-1.1,0.4c-0.4,0-0.8-0.2-1.1-0.4l0,0   c-0.3-0.3-0.4-0.7-0.4-1.1c0-0.4,0.2-0.8,0.4-1.1C32.9,57.3,33.3,57.2,33.7,57.2z"/>
	<path d="M14.7,61c-0.2-0.2-0.4-0.3-0.6-0.3c-0.3,0-0.5,0.1-0.6,0.3s-0.3,0.4-0.3,0.6c0,0.3,0.1,0.5,0.3,0.6   c0.2,0.2,0.4,0.3,0.6,0.3c0.3,0,0.5-0.1,0.6-0.3s0.3-0.4,0.3-0.6C15,61.4,14.9,61.2,14.7,61 M14.1,60.1c0.4,0,0.8,0.2,1.1,0.4l0,0   c0.3,0.3,0.4,0.7,0.4,1.1c0,0.4-0.2,0.8-0.4,1.1s-0.7,0.4-1.1,0.4c-0.4,0-0.8-0.2-1.1-0.4c-0.3-0.3-0.4-0.7-0.4-1.1   c0-0.4,0.2-0.8,0.4-1.1C13.3,60.3,13.7,60.1,14.1,60.1z"/>
	<path d="M21.5,80.7c-0.2-0.2-0.4-0.3-0.6-0.3c-0.3,0-0.5,0.1-0.6,0.3S20,81,20,81.3c0,0.3,0.1,0.5,0.3,0.6   c0.2,0.2,0.4,0.3,0.6,0.3s0.5-0.1,0.6-0.3s0.3-0.4,0.3-0.6C21.8,81,21.7,80.8,21.5,80.7 M20.9,79.8c0.4,0,0.8,0.2,1.1,0.4l0,0   c0.3,0.3,0.4,0.7,0.4,1.1c0,0.4-0.2,0.8-0.4,1.1s-0.7,0.4-1.1,0.4s-0.8-0.2-1.1-0.4c-0.3-0.3-0.4-0.7-0.4-1.1   c0-0.4,0.2-0.8,0.4-1.1C20.1,80,20.5,79.8,20.9,79.8z"/>
	<path d="M29,71.5c-0.2-0.2-0.4-0.3-0.6-0.3c-0.3,0-0.5,0.1-0.6,0.3s-0.3,0.4-0.3,0.6c0,0.3,0.1,0.5,0.3,0.6   c0.2,0.2,0.4,0.3,0.6,0.3c0.3,0,0.5-0.1,0.6-0.3s0.3-0.4,0.3-0.6S29.1,71.7,29,71.5 M28.3,70.7c0.4,0,0.8,0.2,1.1,0.4   c0.3,0.3,0.4,0.7,0.4,1.1c0,0.4-0.2,0.8-0.4,1.1s-0.7,0.4-1.1,0.4s-0.8-0.2-1.1-0.4l0,0c-0.3-0.3-0.4-0.7-0.4-1.1s0.2-0.8,0.4-1.1   C27.5,70.8,27.9,70.7,28.3,70.7z"/>
</svg>