<svg xmlns="http://www.w3.org/2000/svg" xmlns:xlink="http://www.w3.org/1999/xlink" fill="#f32929" x="0px" y="0px" viewBox="0 0 60 92.3" style="enable-background:new 0 0 60 92.3;" xml:space="preserve">
	<path d="M60,61.8c-0.3-6.9-4.4-15.1-11.7-17.8c0-0.8,0.1-8.6,0.1-8.6l-0.9,0v0h0.9c0-1.6-1.3-3.6-11.8-4.8l-0.2,0   c-3.8-0.4-7.8-0.7-12.2-0.7c-0.7,0-1.5,0-2.2,0c2-0.7,4.2-1.3,6.3-1.9c6.6-1.9,12.2-3.5,13.7-6.4c0.4-0.9,0.5-1.8,0.1-2.8   c-0.3-0.8-0.7-1.4-1.2-2c0.9-0.6,1.6-1.3,2-2.1c0.4-0.9,0.5-1.8,0.1-2.7C41.5,7.9,35.4,7.4,30.6,7c-1-0.1-3-0.3-4-0.5   c0.8-0.7,2.8-2,5.4-3c0.9-0.4,1.4-1.4,1.1-2.3C32.8,0.5,32.1,0,31.4,0c-0.2,0-0.4,0-0.6,0.1c-1.9,0.7-5.3,2.2-7.1,4.3   c-2.3,1.5-4.5,3.5-3.8,5.9c0.6,2.1,3.8,2.7,7.9,3.4c2.5,0.4,5.3,0.9,7.7,1.8c-2.1,0.8-4.5,1.5-6.2,2c-8.1,2.4-15.8,4.7-14.5,9.7   c0.2,0.8,0.9,1.4,1.8,1.4c0.1,0,0.3,0,0.4,0c0.5-0.1,0.9-0.4,1.1-0.8c0.3-0.4,0.3-0.9,0.2-1.4c0,0-0.2-0.9,3.5-2.5   c2.5-1,5.7-2,8.5-2.9c3.5-1,6.7-2,8.9-3.1c0.5,0.5,0.8,1.1,1.1,1.7c0.2,0.4,0.2,0.8,0,1.2c-1.1,2.2-7.1,3.9-12.5,5.4   c-4.2,1.2-8.4,2.4-11.5,4c-1.5,0.1-3,0.2-4.4,0.4l-0.2,0C1.3,31.8,0,33.8,0,35.4h0.9v0l-0.9,0l0.6,48c0,3.1,3.4,4.8,4.7,5.4   c1.8,0.9,3.7,1.5,6.2,2.1c3.9,0.9,8.1,1.3,12.8,1.3c4.7,0,8.9-0.4,12.8-1.3c2.5-0.6,4.4-1.2,6.2-2.1c1.3-0.6,4.6-2.3,4.7-5.4   c0,0,0.1-4.7,0.1-5.3c3.6-0.2,6.9-2,9.2-5.2C59,70.2,60,66.6,60,62.8C60.1,62.5,60.1,62.1,60,61.8z M28.1,11.7   c-2.7-0.5-6.1-1-6.3-2c-0.2-0.7,0.2-1.5,1-2.2c0,0,0,0.1,0,0.1c0.6,2.3,3.5,2.5,7.5,2.9c3.6,0.3,8.5,0.7,9.4,2.7   c-0.3,0.4-0.9,0.7-1.8,1.1C35.1,12.9,31.4,12.3,28.1,11.7z M55.4,71.7c-2,2.9-5.1,4.5-8.4,4.4L45.9,76l-0.1,7.3   c0,1.6-2,2.8-3.5,3.5c-1.6,0.8-3.4,1.4-5.7,1.9c-3.8,0.9-7.8,1.3-12.3,1.3s-8.6-0.4-12.3-1.3c-2.4-0.6-4.1-1.2-5.7-2   c-1.5-0.7-3.5-1.9-3.5-3.5l-0.6-48c0,0,0.6-1.6,9.9-2.7l0.2,0c0.3,0,0.6-0.1,0.9-0.1c-1,1.2-1.4,2.5-1,4.1c0.1,0.5,0.7,0.8,1.2,0.7   c0.5-0.1,0.8-0.7,0.7-1.2c-0.4-1.5,0.7-2.8,2.6-3.9c2.4-0.2,5-0.3,7.7-0.3c4.4,0,8.3,0.2,12,0.6l0.2,0c9.3,1.1,9.9,2.7,9.9,2.7   l-0.1,10.1l0.8,0.2c6.8,2.1,10.6,9.7,10.9,16.2C58.1,65.6,57.2,69.1,55.4,71.7z"/>
	<path d="M49.7,57.6c-0.3-1-0.7-1.9-1.1-2.8c-0.4-0.9-0.9-1.8-1.5-2.6c-0.2-0.3-0.4-0.6-0.7-0.9   c-0.1,7.5-0.2,15-0.3,22.6c0.1-0.1,0.2-0.1,0.3-0.2c0.5-0.4,1-0.8,1.5-1.3c0.5-0.6,0.9-1.2,1.2-1.9c0.4-0.7,0.7-1.5,0.9-2.3   c0.2-0.8,0.4-1.7,0.5-2.5c0.1-0.9,0.1-1.7,0.1-2.6c0-0.9-0.1-1.8-0.3-2.7C50.2,59.4,50,58.5,49.7,57.6z M48.8,65.5   c-0.1,0.8-0.2,1.5-0.4,2.2c-0.1,0.4-0.3,0.9-0.4,1.3c0-3.6,0.1-7.3,0.1-10.9c0.3,0.8,0.5,1.7,0.6,2.6c0.1,0.8,0.2,1.7,0.2,2.5   C48.9,63.9,48.9,64.7,48.8,65.5z"/>
	<path d="M44.7,35.8c-0.2,0-0.3,0.1-0.3,0.3c0,0.4-0.6,1.5-6.6,2.4c-3.6-0.8-8.6-1.2-13.6-1.2s-9.9,0.4-13.5,1.2   c-6-0.9-6.6-2-6.6-2.4c0-0.2-0.2-0.3-0.3-0.3c-0.2,0-0.3,0.1-0.3,0.3c0,0.6,0,2.3,9.9,3.4l0.2,0c3.3,0.4,6.8,0.5,10.7,0.5   s7.4-0.2,10.7-0.5l0.2,0c9.8-1.1,9.9-2.8,9.9-3.4C45,36,44.9,35.8,44.7,35.8z"/>
</svg>