<svg height="256" viewBox="0 0 256 256" width="256" xmlns="http://www.w3.org/2000/svg"><g fill="#000" stroke-miterlimit="10" stroke-width="0" transform="matrix(2.8008 0 0 2.8008 1.964 1.964)"><path d="m70.341 90h-50.682c-.635 0-1.232-.302-1.609-.813s-.489-1.17-.302-1.777l1.597-5.177c1.436-4.655 5.675-7.783 10.547-7.783h30.216c4.871 0 9.109 3.128 10.546 7.783l1.598 5.177c.188.606.075 1.267-.302 1.777s-.974.813-1.609.813zm-47.972-4h45.262l-.799-2.587c-.916-2.969-3.618-4.963-6.724-4.963h-30.216c-3.106 0-5.809 1.994-6.725 4.963z"/><path d="m54.791 78.122h-19.583c-.635 0-1.232-.302-1.609-.813s-.489-1.17-.302-1.777l4.623-14.983c.259-.838 1.034-1.41 1.911-1.41h10.338c.878 0 1.652.572 1.911 1.41l4.622 14.983c.188.607.075 1.267-.302 1.777s-.974.813-1.609.813zm-16.873-4h14.163l-3.388-10.983h-7.386z"/><path d="m21.459 43.922c-.02 0-.04 0-.06-.001-9.531-.279-16.996-7.971-16.996-17.51v-13.76c0-1.104.896-2 2-2h14.573c1.104 0 2 .896 2 2s-.896 2-2 2h-12.573v11.76c0 7.361 5.76 13.296 13.113 13.512 1.104.032 1.973.954 1.94 2.058-.031 1.084-.919 1.941-1.997 1.941z"/><path d="m68.539 43.922c-1.077 0-1.967-.857-1.998-1.941-.032-1.104.837-2.025 1.94-2.058 7.354-.215 13.115-6.15 13.115-13.512v-11.76h-12.573c-1.104 0-2-.896-2-2s.896-2 2-2h14.573c1.104 0 2 .896 2 2v13.76c0 9.541-7.467 17.232-16.998 17.51-.02.001-.039.001-.059.001z"/><path d="m45 63.139c-14.35 0-26.023-11.674-26.023-26.023v-28.35c0-2.435-.914-4.059-2.795-4.964-.841-.405-1.29-1.337-1.082-2.247s1.016-1.555 1.949-1.555h55.902c.934 0 1.742.646 1.95 1.555.207.91-.242 1.842-1.083 2.247-1.881.905-2.795 2.529-2.795 4.964v28.349c0 14.35-11.673 26.024-26.023 26.024zm-23.102-59.139c.708 1.366 1.078 2.973 1.078 4.766v28.349c0 12.144 9.88 22.023 22.023 22.023s22.023-9.88 22.023-22.023v-28.349c0-1.794.37-3.4 1.078-4.766z"/></g></svg>