<svg preserveAspectRatio="none" fill="none" xmlns="http://www.w3.org/2000/svg" viewBox="0 0 600 171.02">
  <path fill="currentColor" d="M20.9,324.2l38.9-27s84.3,70.1,106,82.2c23.3,13,36.8,16.2,36.8,16.2s-33.4,13-69.5,7.6-112.2-79-112.2-79" transform="translate(-20.9 -235.38)"/>
  <path fill="currentColor" d="M309,314.2c3.6.6-34.7,21.6-45.2,20.2s-81.9-61-122-73.8c-27-8.6-41.1-3.2-41.1-3.2s36.8-25.1,73.1-21.7c53.3,5.1,121.8,76.2,135.2,78.5" transform="translate(-20.9 -235.38)"/>
  <path fill="currentColor" d="M116.7,325.4s44.1-19.9,60.6-17.2c18.2,3,68.1,53.6,100.1,64,13.5,4.4,28.3,3.7,28.3,3.7s-39.2,16.9-70.8,12.8c-28.6-3.7-78.5-51.9-95.8-59.1a54.94,54.94,0,0,0-22.4-4.2" transform="translate(-20.9 -235.38)"/>
  <path fill="currentColor" d="M618.9,258.3l-1.1-.4a8.44,8.44,0,0,0-3.4-.6c-4.1,0-8.2,2.7-11.5,7.6.1-1.4.2-3.1.4-5.4l.2-1.5-1.5.3a14.47,14.47,0,0,1-3.5.4,16.41,16.41,0,0,1-3.7-.5l-1.4-.3.1,1.4c.4,8.1.4,14.6.4,19.5v3c0,10.6,0,17.9-.4,22.5l-.1,1.4,1.4-.3a27.08,27.08,0,0,1,3.7-.5,20.85,20.85,0,0,1,3.5.4l1.5.3-.1-1.5c-.4-4.3-.4-9.2-.4-25.7,0-7.1,3.3-12,8.5-12a6.54,6.54,0,0,1,3.8,1.1l.7.7.8-.6.7-.5.5-.3v-.6c0-2.5.1-6.2.6-7.2Zm-69.1,18.5c-3.5,0-7.5-.2-11.1-.3.8-6.4,4.2-14.3,12-14.2,4.5,0,7,2.1,8.5,5.1a21.94,21.94,0,0,1,2,9.1c-3.7.2-7.7.3-11.4.3m.7-19.6c-7.2,0-13,2.5-16.9,7.1s-5.9,11-5.9,18.8c0,13.1,9.9,23.2,24,23.2a27.44,27.44,0,0,0,16.4-6l.3-.3.7-5.8-1.1-.6-.8-.5-.6.7c-3.1,3.5-8.8,6.4-13.4,6.3-9.9-.1-15.2-7-15.3-16.4v-1.6c3.8-.1,7.6-.3,11.4-.3,6.7,0,13.4.2,20.2.3h1l.1-1c.1-1.2.2-2.5.2-3.8a20.75,20.75,0,0,0-5.1-14.3c-3.1-3.5-8.3-5.8-15.2-5.8m-46.6,44c-3.4-.1-4.7-1.4-5.6-3.8s-1-5.9-1-9.4c0-7.1.4-19.5.6-22.9,2.4,0,6.1,0,9,.2l1.3.1-.2-1.3a10.87,10.87,0,0,1-.1-1.8,9.72,9.72,0,0,1,.1-1.8l.2-1.3-1.3.1c-3.5.2-6.9.2-8.8.3.2-4.2.4-8.5.7-12.8l.1-1.2H497l-.2.1-8.5,3.6v.8c.2,3.5.3,6.9.3,9.4-1.2,0-2.9-.1-5-.3l-1.3-.1.2,1.3a12.77,12.77,0,0,1,.2,1.7,13.55,13.55,0,0,1-.2,2l-.2,1.3,1.3-.1c2-.1,3.7-.2,5.3-.2-.1,13.4-.7,21.6-.7,28.3,0,3.8,1,7.1,3.2,9.4s5.4,3.5,9.5,3.5a23.35,23.35,0,0,0,7.6-1.5l.7-.3V300l-1.4.4a11.32,11.32,0,0,1-3.9.8m-50.4-6.8c-2,3.1-5.9,5.9-10.1,5.9-3.6-.1-7.1-2.5-7.1-7.9,0-4.6,2.7-6.5,6.7-7.9,3.4-1.2,7.5-1.6,10.8-2.4Zm12,5.7c-1.4-.1-1.8-.5-2.2-1.6a14.31,14.31,0,0,1-.4-4.3c0-7.9.4-14.9.4-22,0-9-6.9-15-16.4-15-5.2,0-10.1,1.3-15.9,5.7l-.4.3v6.5h2.8l.3-.6c1.9-3.6,6.3-5.8,11-5.8,6.9.1,9.2,4.7,9.3,10.8-.1,1.9.1,2.1-1.3,2.9s-5.1,1.6-11.9,2.6c-8.4,1.3-14.3,5.9-14.2,14,0,7.9,6.9,12.7,13.7,12.7h.1c6,0,10-2.1,14.1-5.9a7.13,7.13,0,0,0,7.2,4.8,17,17,0,0,0,6.5-1.4l.7-.3V299l-1.6.9a6.17,6.17,0,0,1-1.8.2m-47.2-61.5a15.44,15.44,0,0,1-3-.4l-1.1-.3L414,239c-1.6,7.4-12,40.8-16,52.9-4.2-12.5-14.5-43.6-17.1-53l-.3-1-1,.3a9.47,9.47,0,0,1-2.8.4,13.51,13.51,0,0,1-2.8-.4l-1.1-.3-.3,1.1c-2.1,8.8-12.8,39.9-17.1,52.9-7-22-10.8-34.5-15.4-52.9l-.2-1-1,.2a23.84,23.84,0,0,1-4.5.5,23,23,0,0,1-4.5-.5l-1.9-.3.6,1.8c3.7,9.9,17.3,54.7,20.4,65l.3,1,1-.3a10.79,10.79,0,0,1,3-.4,15.44,15.44,0,0,1,3,.4l1,.3.3-1c5.3-16.1,13.7-40.5,17.5-51.3,5.9,17.7,11.3,34.5,16.5,51.3l.3,1,1-.3a10.12,10.12,0,0,1,2.9-.4,14.46,14.46,0,0,1,2.9.4l1,.3.3-1c3.3-10,18.9-56.2,22.6-65l.8-2-2.1.5a10.79,10.79,0,0,1-3,.4" transform="translate(-20.9 -235.38)"/>
  <path fill="currentColor" d="M613.4,374h1.2c1,0,1.9,0,1.9-1.2,0-1-.8-1.1-1.6-1.1h-1.5V374Zm-1.1-3.3h2.8c1.7,0,2.5.7,2.5,2.1a1.81,1.81,0,0,1-1.9,2l2.1,3.3h-1.2l-2-3.2h-1.2v3.2h-1.1v-7.4Zm2.4,9.2a5.46,5.46,0,1,0-5.1-5.5,5.22,5.22,0,0,0,5.1,5.5m0-11.8a6.35,6.35,0,1,1-6.2,6.3,6.19,6.19,0,0,1,6.2-6.3" transform="translate(-20.9 -235.38)"/>
  <path fill="currentColor" d="M617.9,332.9a10.32,10.32,0,0,1-3,.4,15.44,15.44,0,0,1-3-.4l-1-.3-.3,1a279,279,0,0,1-13.5,33.5c-5.1-11.6-9.9-22.5-13.6-33.5l-.3-.9-.9.2a20.87,20.87,0,0,1-4.3.4,31.25,31.25,0,0,1-4.3-.4l-2.1-.4.9,1.9c2.7,5.8,14.8,32.7,19.4,44.1-3.5,7.7-5.6,10.7-10.7,18.7l-1.5,2.3,2.7-.7a11,11,0,0,1,3.1-.4,16.45,16.45,0,0,1,3.1.4l1,.3.3-1c4-12.5,25.8-57,29.3-63.7l1.1-2.2Zm-53.2,42.5c-3.4-.1-4.6-1.4-5.6-3.7s-1-5.8-1-9.3c0-7,.4-19.2.6-22.6,2.4,0,6.1,0,8.9.2l1.3.1-.2-1.3a16.25,16.25,0,0,1,0-3.6l.2-1.3-1.3.1c-3.4.2-6.9.2-8.8.3.2-4.2.4-8.4.7-12.6l.1-1.2h-1.9l-.2.1-8.5,3.5v.8c.2,3.4.3,6.8.3,9.3-1.2,0-2.9-.1-5-.3l-1.3-.1.2,1.3a12.77,12.77,0,0,1,.2,1.7,16.83,16.83,0,0,1-.2,2l-.2,1.3,1.3-.1c1.9-.1,3.6-.2,5.2-.2-.1,13.2-.7,21.3-.7,28,0,3.8,1,7,3.2,9.3s5.4,3.4,9.5,3.4a23.35,23.35,0,0,0,7.6-1.5l.7-.3v-4.5l-1.4.4a9.46,9.46,0,0,1-3.7.8m-32.2-41.3.2-1.5-1.4.3a18.71,18.71,0,0,1-4,.4,27.1,27.1,0,0,1-4-.4l-1.4-.3.2,1.5a162.38,162.38,0,0,1,.7,17.3v9.7c0,5.6-.2,12-.7,17.3l-.2,1.5,1.4-.3a18.71,18.71,0,0,1,4-.4,27.1,27.1,0,0,1,4,.4l1.4.3-.2-1.5a161.89,161.89,0,0,1-.8-17.3v-9.7a163.13,163.13,0,0,1,.8-17.3M527.2,317a5.8,5.8,0,1,0,5.9,5.8,5.89,5.89,0,0,0-5.9-5.8m-16.6,34.7v-12c0-8.5.2-20.6.7-26.7l.1-1.4-1.4.3a19,19,0,0,1-4,.5,18.25,18.25,0,0,1-4-.5l-1.4-.3.1,1.4c.6,6.1.8,18.2.8,26.7v12c0,8.5-.2,20.6-.8,26.7l-.1,1.4,1.4-.3a18.71,18.71,0,0,1,4-.4,28.51,28.51,0,0,1,4,.4l1.4.3-.1-1.5c-.5-6.1-.7-18.1-.7-26.6m-32.2,17a12.47,12.47,0,0,1-10,5.8c-3.6-.1-7.1-2.4-7.1-7.8.1-4.5,2.7-6.4,6.7-7.8,3.4-1.1,7.5-1.6,10.8-2.4Zm11.9,5.6c-1.4-.1-1.7-.5-2.2-1.6a13.63,13.63,0,0,1-.4-4.2c0-7.8.4-14.7.4-21.7,0-8.9-6.9-14.8-16.3-14.9-5.2,0-10,1.3-15.8,5.6l-.4.3v6.5h2.8l.3-.6c1.9-3.6,6.2-5.8,10.9-5.8,6.9.1,9.1,4.7,9.3,10.6-.1,1.9.1,2-1.3,2.8s-5.1,1.5-11.9,2.6c-8.4,1.2-14.2,5.8-14.2,13.8,0,7.8,6.8,12.5,13.6,12.5h.1c5.9,0,10-2.1,14-5.8a7.21,7.21,0,0,0,7.1,4.8,16.44,16.44,0,0,0,6.4-1.4l.7-.3v-4.6l-1.6.9a1.74,1.74,0,0,1-1.5.5M440,333.4a23.25,23.25,0,0,1-3.7-.4l-1.4-.3.1,1.4c.2,4.4.2,10.2.2,15.2,0,14.7-.1,15-1.9,18.9-1.4,3-4.6,5.3-9.5,5.3a9.26,9.26,0,0,1-7.3-3.1c-1.3-1.5-2.6-4.2-2.6-10.5,0-9.1.4-18.6.9-25.8l.1-1.5-1.4.3a15.86,15.86,0,0,1-3.6.4,24.57,24.57,0,0,1-3.7-.4l-1.3-.3V334c.1,5.2.2,10.4.2,14.8s-.3,8.8-.3,15.4c0,5.1,1.6,9.2,4.5,12s7.2,4.3,12.3,4.3h0a17.72,17.72,0,0,0,13.8-6.7c0,1.5-.1,3.1-.2,4.6l-.1,1.5,1.4-.3a13.69,13.69,0,0,1,3.4-.4,19.7,19.7,0,0,1,3.4.4l1.4.3-.1-1.4c-.3-5.2-.4-10.7-.4-16.1,0-9.9.1-18.6.7-28.2l.1-1.5-1.4.3a18.84,18.84,0,0,1-3.6.4m-75.5,41.8c-14.2-.1-24.8-8.5-24.9-28.8.1-20.3,10.7-28.7,24.9-28.8,14.3.1,24.9,8.6,25,28.8-.1,20.2-10.7,28.7-25,28.8m36.4-28.8c0-10.8-3.7-19.5-10.2-25.4s-15.6-9-26.2-9-19.6,3.1-26.1,9-10.2,14.6-10.2,25.4,3.7,19.5,10.2,25.4,15.5,9,26.1,9a19.27,19.27,0,0,0,2.4-.1c7.1,5.9,6.4,12.3,13.5,18.9l.9.9.7-1.1c.7-1.2,3.6-3.2,6.5-3.3l3.2-.2-2.6-1.8c-6.6-4.5-6.5-9.7-11.9-15,14.4-4.1,23.7-15.7,23.7-32.7" transform="translate(-20.9 -235.38)"/>
  <path fill="currentColor" d="M520.8,391.8a.76.76,0,0,1,.1-.4l.1-.3.2-.9-1.1.1c-1.9.1-3.7.1-5.6.1s-3.7,0-5.6-.1h-1.2l.3,1.1a.76.76,0,0,1,.1.4.6.6,0,0,1-.1.4l-.1.3-.4,1,1.3-.1c1-.1,2.4-.2,3.8-.2V400c0,1.7-.1,3.4-.2,5.2v.2l-.1.8,1.1-.2a4.1,4.1,0,0,1,1.8,0h.2l.8.2v-1c-.1-1.7-.2-3.5-.2-5.2v-6.9c1.3.1,2.8.2,3.8.3h.3l1,.1-.4-1.3a.6.6,0,0,0,.1-.4m-22,6.1h-1.1l1.1-2.3,1.1,2.3h-1.1m1.4-7.3-.1-.2v-.3H500V390l-.2.1h-1.1l-.2.4c-2.4,4.8-4.7,9.5-7,14.2l-.2.3-.6,1.2,1.7-.4a1.76,1.76,0,0,1,.6-.1,1.27,1.27,0,0,1,.6.1h.2l.6.1.2-.7a33.48,33.48,0,0,1,1.9-4.9h4.4c.6,1.6,1.6,3.6,1.9,4.8v.1l.1.6.7-.1a5,5,0,0,1,2,0l.4.1,1.3.2-.8-1.5c-.8-1.9-4.1-9.3-6.3-13.9m28.6,9.2v-3.5c0-1.7.1-3.4.2-5.2v-1l-1,.2a3.44,3.44,0,0,1-.9.1,2.77,2.77,0,0,1-.9-.1H526l-.8-.1.1,1c.1,1.7.2,3.5.2,5.2v3.5c0,1.7-.1,3.4-.2,5.2v.2l-.1.8,1-.2a4.1,4.1,0,0,1,1.8,0h.2l.8.1-.1-1c0-1.7-.1-3.5-.1-5.2m41.6-9.5-.3.1c-.2,0-.3.1-.5.1s-.4,0-.5-.1l-.3-.1-.9-.2.1,1.1c.1,2.5.2,5.6.2,8.6-2.7-2.6-6.6-6.5-9.6-9.5l-.2-.2-.7-.1h-1v.9c.1.8.1,2.8.1,5.3v.1c0,2.6-.3,7.7-.4,8.5l-.1.3-.2.9,1.2-.2a1.76,1.76,0,0,1,.6-.1.75.75,0,0,1,.5.1l.3.1.9.3-.2-1.2c-.1-.6-.2-5-.2-6.7v-2.1c3.3,3.2,6.7,6.6,9.6,9.7v.3h.3l.2.2.2-.2h1.1v-.9c0-.9-.1-5.3-.1-7.4,0-1.5.2-5.5.3-6.6V391l.1-1ZM487,399.8v-3.4c0-1.7.1-3.4.2-5.2h0v-1l-1,.2a4.1,4.1,0,0,1-1.8,0h-.2l-.8-.1.1,1c.1,1.7.2,3.4.2,5.2v3.4c0,1.7-.1,3.4-.2,5.2v.2l-.1.8,1-.2a4.1,4.1,0,0,1,1.8,0h.2l.8.1-.1-1c0-1.7-.1-3.5-.1-5.2m55.7,3.9c-3.1-.1-5.1-1.5-5.2-5.6.1-4.1,2.1-5.5,5.2-5.6,3.1.1,5.1,1.5,5.2,5.6-.1,4.1-2.1,5.5-5.2,5.6m0-13.6v0c-5.1,0-9,3-9,8s3.9,8,9,8h0c5.1,0,9-3,9-8s-3.9-8-9-8m-107.8,6.3c-1.8-.7-3-1.1-3-2.2h-.2l-.4-.1h.7c0-1,.7-1.6,2-1.7s1.5.7,1.8,1.4l.1.3.7.2.6.2.2-.5c.4-.9.5-1.3.7-1.7l.1-.1.3-.5-.6-.4a6.24,6.24,0,0,0-3.7-1.1c-3.2,0-5.6,1.9-5.6,4.6s2.2,3.9,3.9,4.6,3.1,1.1,3,2.1v.2c0,1.1-.7,2-2.3,2a3,3,0,0,1-2.7-1.6l-.1-.2v-.3h-.1l-.1-.1-.2.1h-1l-.1.5a7.35,7.35,0,0,1-.6,1.8l-.1.1-.2.5.5.4a6.6,6.6,0,0,0,4.1,1.3h.1c3.7,0,6.2-2.4,6.2-5.3-.2-2.9-2.3-3.9-4-4.5m-32.5,1.5h-1.1l1.1-2.3,1.1,2.3h-1.1m1.4-7.3-.1-.2v-.3h-.1V390l-.2.1h-1.1l-.2.4c-2.4,4.8-4.7,9.5-7,14.2l-.2.3-.6,1.2,1.7-.4a1.76,1.76,0,0,1,.6-.1,1.27,1.27,0,0,1,.6.1h.2l.6.1.2-.7a51.15,51.15,0,0,1,1.9-4.9h4.5c.6,1.7,1.5,3.6,1.9,4.8v.1l.1.5.7-.1a3.75,3.75,0,0,1,1-.1,3.4,3.4,0,0,1,1,.1l.4.1,1.3.2-.8-1.5c-.9-1.8-4.2-9.2-6.4-13.8m16.6,5.8c-1.8-.7-3-1.1-3-2.2h-.2l-.5-.1h.7c0-1,.7-1.6,2-1.7s1.5.7,1.8,1.4l.1.3.8.2.6.1.2-.5c.4-.9.5-1.3.7-1.7l.1-.2.3-.5-.6-.4a6.24,6.24,0,0,0-3.7-1.1c-3.2,0-5.6,1.9-5.6,4.6s2.2,3.9,3.9,4.6,3.1,1.1,3,2.1v.2c0,1.1-.7,1.9-2.3,2a3,3,0,0,1-2.7-1.6l-.1-.2v-.3h-.2l-.1-.1-.2.1h-1l-.1.5a7.35,7.35,0,0,1-.6,1.8l-.1.1-.2.5.5.4a6.5,6.5,0,0,0,4,1.3h.1c3.7,0,6.2-2.4,6.2-5.4.1-2.6-2.1-3.6-3.8-4.2m52.9-6.3c-5.1,0-9,3-9,8s3.9,8,8.8,8a9.84,9.84,0,0,0,4.9-1.2l.3.1.1-.3.2-.2-.2-.2.2-1.1V403l-.3-.5-.2-.3-.4-.4-.5.4a6.68,6.68,0,0,1-3.9,1.5c-3.1-.1-5.1-1.5-5.2-5.6.1-4.1,2.1-5.5,5.2-5.6h.2a5.15,5.15,0,0,1,3.4,1.5l.2.2h1.1l.2-.4a12.43,12.43,0,0,1,.5-1.5l.1-.2.4-.7-.9-.4a16.12,16.12,0,0,0-5.2-.9m-21.8,13.6c-3.1-.1-5.1-1.5-5.2-5.6.1-4.1,2.1-5.5,5.2-5.6,3.1.1,5.1,1.5,5.2,5.6s-2.1,5.5-5.2,5.6m0-13.6c-5.1,0-9,3-9,8s3.9,8,9,8,9-3,9-8-3.9-8-9-8" transform="translate(-20.9 -235.38)"/>
</svg>