<svg preserveAspectRatio="none" fill="none" xmlns="http://www.w3.org/2000/svg" xmlns:xlink="http://www.w3.org/1999/xlink" x="0px" y="0px" viewBox="0 0 143.5 144.6" style="enable-background:new 0 0 143.5 144.6;" xml:space="preserve">
	<path fill="currentColor" d="M143,76.4c-1.7-1.3-6.4-5.4-10.1-8.9c-5.7-5.3-9.3-9.6-10.5-11c-0.9-1.1-1.7-1-1.7-1
		s-10.3-0.3-11.2-0.3s-1.1,0.4-1.2,1.4c-0.1,1.8-0.4,5.5-0.5,11.7c0,1.4,0.7,1.9,1.4,2.6c2.7,3,8.7,8.1,11.3,10.3
		c0.4,0.4,1,0.7,0.9,1.3s-0.8,0.5-0.8,0.5s-18.3-1.3-19.5-1.4s-1.3-0.7-1.8-2.1c-1.9-4.8-12.8-43-15.6-55.5S80.1,0.2,80.1,0.2
		s-0.5,0-1.8,0C60.9,1.5,47.2,7.8,46.2,8.4s-0.8,1.4-0.5,2.4s1.4,1.1,1.4,1.1s0.9,0.1,3.1,1c9.5,4.2,11.8,12.4,12.6,15.8
		s-0.7,3.3-0.7,3.3l-3,0c-0.5,0-1,0.2-1.3,0.6c-1.1,1.5-4,6-10.1,15.4c-7.6,11.8-11.5,19.6-16.8,31.4c-0.3,0.8-1,1.3-1.9,1.5
		C18.2,83,14.4,84.2,8.2,86.5C7,87,6,88,5.4,89.2c-3.2,6.9-4.8,12.7-5.4,15.3c-0.1,0.4,0.4,0.7,0.7,0.4c0.6-0.6,1.3-1.4,2.4-2.2
		c9.2-6.2,17.2-9.3,21.5-10.2c0.6-0.1,1,0.4,0.9,1c-2.5,7.2-2.8,17.7-1.3,26.4c1.6,9.2,7.8,13.8,10.7,13.9c2.9,0.4,8.4-4.4,11.3-9.8
		c7.8-13.6,12.7-28.4,13.2-31.4c0.1-0.3-0.2-0.6-0.6-0.6c-1,0.2-2.2,1.5-4.4,3.3c-2.2,1.9-8,5.6-12.2,7.9c-0.6,0.3-1.3,0.1-1.5-0.6
		c-1.1-3.4-2.1-8.6-2.6-12.2c-0.1-0.8,0.4-1.4,1.2-1.5c9.1-1.1,27.9-2.1,32.4-2.3c0.6,0,1.1,0.3,1.3,0.9c0.8,2.5,3.3,9.8,6.3,15.3
		c4.4,8.5,9.8,15.8,14.4,21c11.1,13.2,22.3,19.4,24.8,20.7c0.2,0.1,0.5-0.1,0.4-0.3c-0.1-0.6-0.3-1.6-0.7-3.2
		c-4.6-16.5-9.2-31-11.3-38.2c-1.6-5.2-3.6-11-4.5-13.8c-0.3-0.8,0.3-1.5,1.1-1.5c4.9,0.2,19.4,0.7,21.4,0.8c1.9,0,2.2,0.2,2.3,0.5
		c0.1,0.3,0,0.9-0.6,1.5c-1.5,1.7-7.4,5.7-9.3,6.9c-0.6,0.4-0.5,0.8-0.1,1.3c1.1,1.3,3.8,4,4.5,4.8c0.6,0.5,1.1,0.3,1.5,0
		c5-4.2,9.6-9.1,12-12.6c5.1-6.7,7.6-11.8,8.1-12.7C143.7,77.1,143.4,76.7,143,76.4z M69.1,79.5c-4.9-0.3-19.5-1.1-28.6-0.1
		c-0.9,0.1-1.7-0.7-1.5-1.6c1-6,1.7-10.3,3.4-12.6c1.7-2.4,12.5-17.2,20.5-23.6c0.6-0.5,1.4-0.1,1.4,0.7c0.2,5,1.4,19.7,5.2,33.7
		c0.3,0.9,0.5,1.6,0.7,2.1C70.5,78.8,69.9,79.5,69.1,79.5z"></path>
</svg>
