<svg id="Rus" xmlns="http://www.w3.org/2000/svg" viewBox="0 0 1015 340"><defs><style>.cls-5{isolation:isolate}.cls-5,.cls-8{fill:#fff}.cls-5{font-family:ArialMT,Arial}.cls-5{font-size:63.11px}</style></defs><path d="M61.93 337c-21.26 0-36.06-4.45-45.25-13.6S3 299.46 3 278.23V62.16C3 18.5 11.91 3 62 3h890.39C994.73 3 1012 20.14 1012 62.17v216C1012 320 994.73 337 952.4 337Z" style="fill:#1f242b"/><path d="M952.39 6c20.47 0 34.69 4.23 43.5 12.94S1009 41.81 1009 62.17v216c0 40.18-15.87 55.83-56.6 55.83H61.93c-20.42 0-34.53-4.16-43.13-12.72S6 298.62 6 278.23V62.16C6 39 8.77 26.37 15.58 18.63 23.26 9.9 37.58 6 62 6h890.39m0-6H62C8.86 0 0 18.4 0 62.16v216.07C0 322 18.2 340 61.93 340H952.4c43.76 0 62.6-18.07 62.6-61.83v-216C1015 18.4 996.15 0 952.39 0Z" style="fill:#2e353f"/><text transform="translate(320.18 245.29)" style="font-family:ArialMT,Arial;fill:#fff;font-size:122.28px;isolation:isolate">AppGallery</text><g style="isolation:isolate"><text class="cls-5" transform="translate(314.26 121.04)">ОТК</text><text transform="translate(438.66 121.04)" style="letter-spacing:-.02em;font-size:63.11px;font-family:ArialMT,Arial;fill:#fff;isolation:isolate">Р</text><text class="cls-5" transform="translate(479.37 121.04)">ОЙТЕ В</text></g><path d="M210.65 75.67h-81.94C90.12 75.67 76 89.79 76 128.39v81.93c0 38.6 14.12 52.68 52.71 52.68h81.91c38.6 0 52.74-14.12 52.74-52.72v-81.89c0-38.6-14.11-52.72-52.71-52.72Z" style="fill:#c7102d"/><path class="cls-8" d="M113.1 169.37h5v24.5h-5v-10h-11.22v10h-5v-24.5h5v9.88h11.22Zm28 14c0 4-2 6.11-5.57 6.11s-5.6-2.19-5.6-6.28v-13.82h-5v14c0 6.89 3.83 10.84 10.51 10.84s10.6-4 10.6-11v-13.85h-5v14Zm57.44 2.83L193 169.37h-4.06l-5.56 16.85-5.38-16.84h-5.29l8.54 24.49h4.11l5.57-16.09 5.57 16.09h4.15l8.52-24.49H204l-5.43 16.84Zm19.46-2.9h9v-4.46h-9v-5h13.12v-4.46h-18v24.46h18.49v-4.46H218v-6.07Zm19.52 10.52h4.9v-24.45h-4.9v24.45Zm-81.66-5.09-2.23 5.1h-5.07l10.79-24.48h4.39l10.74 24.48h-5.18l-2.2-5.1Zm1.85-4.41h7.52l-3.77-8.77ZM169.68 138.18A31.22 31.22 0 0 1 138.49 107h4.41a26.78 26.78 0 1 0 53.56 0h4.41a31.21 31.21 0 0 1-31.19 31.18Z"/></svg>