<svg id="Rus" xmlns="http://www.w3.org/2000/svg" viewBox="0 0 1021 346"><defs><style>.cls-2{fill:#fff}</style></defs><path d="M952.39 0H62C8.85 0 0 18.4 0 62.16v216.07C0 322 18.2 340 61.93 340H952.4c43.76 0 62.6-18.07 62.6-61.83v-216C1015 18.4 996.15 0 952.39 0Z" transform="translate(3 3)" style="fill:#1f242b;stroke:#2e353f;stroke-linejoin:round;stroke-width:6px"/><path class="cls-2" d="M264.63 211.64C259.52 223 257.07 228 250.49 238c-9.19 14-22.13 31.4-38.17 31.54-14.25.13-17.91-9.28-37.25-9.17s-23.38 9.34-37.64 9.21c-16-.15-28.3-15.88-37.49-29.85-25.68-39.1-28.36-85-12.53-109.37 11.26-17.34 29-27.48 45.71-27.48 17 0 27.69 9.32 41.75 9.32 13.63 0 21.94-9.34 41.59-9.34 14.86 0 30.6 8.09 41.82 22.08-36.75 20.14-30.78 72.63 6.35 86.66" transform="translate(3 3)"/><path class="cls-2" d="M201.55 87.29c7.14-9.17 12.57-22.12 10.6-35.34-11.66.8-25.31 8.22-33.28 17.9-7.23 8.78-13.2 21.81-10.87 34.47 12.73.39 25.9-7.21 33.55-17M924.37 230h-51.63c.2 7 2.7 13.14 7.49 17.17 4.35 3.62 10 5.27 16.89 5.27a56.23 56.23 0 0 0 20.88-3.78l2.71 11.93c-7.3 3.21-16 4.75-26 4.75q-18 0-28.26-10.59t-10.3-28.43c0-11.71 3.2-21.41 9.56-29.2q10.08-12.41 27.1-12.41 16.79 0 25.34 12.41c4.55 6.6 6.85 15.07 6.85 24.73a44.5 44.5 0 0 1-.63 8.15ZM851 201.59a26.49 26.49 0 0 0-5.55-.44c-6.06 0-10.78 2.28-14.08 6.84-2.88 4-4.37 9.07-4.37 15.28V263h-17v-52.19c0-8.87-.37-16.81-.67-24.81h15l.64 16h.47a27.53 27.53 0 0 1 8.56-12.6 21.19 21.19 0 0 1 12.58-4.32 29.37 29.37 0 0 1 4.4.12Zm-62.22 52.3q-10.71 11.76-28.36 11.76-17.07 0-27.21-11.31c-6.73-7.52-10.09-17.07-10.09-28.52q0-18 10.43-29.47c7-7.68 16.31-11.45 28.1-11.45 11.41 0 20.54 3.73 27.44 11.31 6.57 7.29 9.91 16.79 9.91 28.34 0 11.93-3.42 21.67-10.22 29.34ZM718 200h-18v37c0 9.56 3 14.29 9.66 14.29a29.12 29.12 0 0 0 7.44-.75l.39 13a39.54 39.54 0 0 1-13.44 1.92c-6.76 0-12.29-2-16.11-6.22S682 248.18 682 238.41V200h-11v-14h11v-13.72l18-5.1V186h18Zm-60.49 56.08q-10.54 9.42-29.26 9.4c-11.58 0-20.84-2.24-27.84-6.68l4-14.34a48.08 48.08 0 0 0 24.83 6.69c6.51 0 11.54-1.48 15.15-4.38a14.29 14.29 0 0 0 5.4-11.76 15 15 0 0 0-4.44-10.95c-3-3-7.9-5.71-14.82-8.29q-28.17-10.48-28.19-30.77a27.1 27.1 0 0 1 9.93-21.68q10-8.43 26.39-8.44 14.64 0 24.39 5.09l-4.35 14a42.55 42.55 0 0 0-20.61-5c-6.06 0-10.82 1.54-14.24 4.44a12.9 12.9 0 0 0-4.3 9.75 13.33 13.33 0 0 0 4.93 10.54q4.32 3.81 15.6 8.26c9.28 3.69 16 8.07 20.42 13.08s6.5 11.25 6.5 18.67c0 9.15-3.16 16.61-9.49 22.31Zm-99.43-.6a31.68 31.68 0 0 1-23.93 10.17c-10.25 0-17.15-3.65-22.15-11V296h-17v-84.1c0-8.27-.32-15.9-.73-25.9h15.1l1 13h.3c5.77-9 14.45-14 26.14-14a28.6 28.6 0 0 1 22.87 10.75q9.18 10.8 9.17 28.48c0 13.25-3.59 23.59-10.77 31.25Zm-85.08 0a31.55 31.55 0 0 1-23.88 10.17c-10.28 0-17.12-3.65-22.12-11V296h-17v-84.1c0-8.27-.39-15.9-.83-25.9h15.14l.95 13h.3c5.77-9 14.46-14 26.16-14 9.14 0 16.74 3.51 22.88 10.75s9.16 16.7 9.16 28.48c0 13.25-3.58 23.59-10.76 31.25ZM381 263l-10-31h-35l-9.58 31h-17.78l34.54-107h21.38l34.75 107Zm510.57-66.36c-5.62 0-10.18 2.88-13.71 7.52a24.61 24.61 0 0 0-5.12 13.84h35.84c.1-6-1-9.95-3.33-13.69a15.49 15.49 0 0 0-13.71-7.67ZM353.4 171h-.3c-1.08 5-2.76 11.66-5.12 20.59L339.06 220h28.83l-9-28.41C357.87 188.71 356 181 353.4 171Zm177.83 27.56a17.73 17.73 0 0 0-11.54 4.2 19.91 19.91 0 0 0-6.85 11.12 23.55 23.55 0 0 0-.84 5.27V232a20.63 20.63 0 0 0 5.23 14.29 17.31 17.31 0 0 0 13.47 5.79c6.51 0 11.56-2.48 15.18-7.48s5.44-11.58 5.44-19.79c0-7.52-1.71-13.74-5.1-18.61a17.74 17.74 0 0 0-14.99-7.64ZM761 197.48c-6.88 0-12.15 3.06-15.74 9.21-3.11 5.07-4.64 11.25-4.64 18.56 0 7.13 1.53 13.2 4.64 18.28q5.52 9.21 15.61 9.2c6.55 0 11.72-3.1 15.42-9.39A34.19 34.19 0 0 0 781.1 225c0-7-1.54-13.2-4.6-18.27-3.64-6.19-8.78-9.25-15.5-9.25Zm-314.9 1.08a17.81 17.81 0 0 0-11.53 4.2 19.89 19.89 0 0 0-6.79 11.12 22.93 22.93 0 0 0-.8 5.27V232a20.66 20.66 0 0 0 5.18 14.29 17.3 17.3 0 0 0 13.46 5.79c6.47 0 11.55-2.48 15.16-7.48s5.4-11.58 5.4-19.79c0-7.52-1.68-13.74-5.08-18.61a17.72 17.72 0 0 0-15-7.64ZM361.41 74.12v47.37l5.26.25-.58 21.55h-7.73l-.57-13.74h-33.64l-.58 13.74h-7.73l-.49-21.55 4.44-.25a58.5 58.5 0 0 0 5.35-12.25c1.72-5.93 2.38-12.67 2.38-20.65V74.12Zm-24.51 17a68.79 68.79 0 0 1-2.64 20.23 52 52 0 0 1-4.11 9.87h21.14v-38.8H336.9ZM411.91 109.15c0 14.73-10.37 21.31-20.56 21.31-11.35 0-20.07-7.82-20.07-20.65 0-13.16 8.63-21.22 20.72-21.22 11.93 0 19.91 8.41 19.91 20.56Zm-30.19.41c0 7.74 3.79 13.58 10 13.58 5.75 0 9.78-5.68 9.78-13.74 0-6.25-2.79-13.41-9.7-13.41-7.2.01-10.08 6.91-10.08 13.57ZM449.66 128.32a29.38 29.38 0 0 1-11.35 2.05c-12.5 0-20.64-8-20.64-20.39 0-12 8.22-21.39 22.29-21.39a25.23 25.23 0 0 1 9.78 1.89l-1.81 7.57a17.79 17.79 0 0 0-7.64-1.56c-7.74 0-12.34 5.67-12.26 13 0 8.23 5.35 12.92 12.26 12.92a19.79 19.79 0 0 0 8-1.57ZM488.07 89.5v7.81h-12v32.24H466V97.31h-12V89.5ZM501.89 89.5l7.24 21.5c.82 2.47 1.64 5.51 2.22 7.82h.25c.65-2.31 1.39-5.27 2.13-7.9L520 89.5h10.86l-10 27.3c-5.51 15-9.21 21.63-14 25.74a20.36 20.36 0 0 1-10.61 5.19l-2.31-8.56a17.22 17.22 0 0 0 5.92-2.79 17.65 17.65 0 0 0 5.52-6.34 4 4 0 0 0 .65-1.81 4.28 4.28 0 0 0-.57-2L490.79 89.5ZM572 89.5v40.05h-10.2V97.31h-15v32.24h-10.2V89.5ZM592.78 89.5v15.29h15.46V89.5h10.12v40.05h-10.12v-16.86h-15.46v16.86h-10.12V89.5ZM667.21 109.15c0 14.73-10.36 21.31-20.56 21.31-11.35 0-20.07-7.82-20.07-20.65 0-13.16 8.64-21.22 20.73-21.22 11.93 0 19.9 8.41 19.9 20.56Zm-30.18.41c0 7.74 3.78 13.58 10 13.58 5.76 0 9.79-5.68 9.79-13.74 0-6.25-2.8-13.41-9.71-13.41-7.2 0-10.11 6.91-10.11 13.57ZM692.47 90A105.37 105.37 0 0 1 707 89c6.75 0 18.92.91 18.92 10.12 0 5.1-4 8-8.22 8.88v.17c5.92.9 10 4.19 10 9.78 0 11-14.48 12.09-22.54 12.09-5 0-10.36-.33-12.74-.57Zm9.78 33.47a42.9 42.9 0 0 0 4.94.25c4.6 0 10.2-1.23 10.2-5.92 0-4.52-4.45-6-10.78-6h-4.36Zm.09-17.76h4.19c5.18 0 9.46-1.48 9.46-5.26 0-3.21-2.8-4.94-8.8-4.94a43.73 43.73 0 0 0-4.85.33Z" transform="translate(3 3)"/></svg>