<svg id="Rus" xmlns="http://www.w3.org/2000/svg" viewBox="0 0 1015 340"><defs><style>.cls-1{fill:#1f242b;}.cls-2{fill:#2e353f;}.cls-3{fill:#00d6ff;}.cls-4{fill:#00f076;}.cls-5{fill:#ff3a44;}.cls-6{fill:#ffd000;}.cls-7{fill:#fff;}
</style></defs><title>Google Play </title><path class="cls-1" d="M61.93,337c-21.26,0-36.06-4.45-45.25-13.6S3,299.46,3,278.23V62.16C3,18.5,11.91,3,62,3H952.39C994.73,3,1012,20.14,1012,62.17v216C1012,320,994.73,337,952.4,337Z"></path><path class="cls-2" d="M952.39,6c20.47,0,34.69,4.23,43.5,12.94S1009,41.81,1009,62.17v216c0,40.18-15.87,55.83-56.6,55.83H61.93c-20.42,0-34.53-4.16-43.13-12.72S6,298.62,6,278.23V62.16C6,39,8.77,26.37,15.58,18.63,23.26,9.9,37.58,6,62,6H952.39m0-6H62C8.86,0,0,18.4,0,62.16V278.23C0,322,18.2,340,61.93,340H952.4c43.76,0,62.6-18.07,62.6-61.83v-216C1015,18.4,996.15,0,952.39,0Z"></path><path class="cls-3" d="M87.05,67.55a6,6,0,0,0-4,5.67v198.3a6,6,0,0,0,4,5.66L192.39,172.33Z"></path><path class="cls-4" d="M222,142.8,92,68a5.9,5.9,0,0,0-5-.46L192.28,172.32Z"></path><path class="cls-5" d="M92,276.73l130-74.81-29.73-29.59L87,277.18A6,6,0,0,0,92,276.73Z"></path><path class="cls-6" d="M222.06,201.92l42.29-24.33a6,6,0,0,0,0-10.44L222,142.8l-29.68,29.53Z"></path><path class="cls-7" d="M501.76,194.9c-18.62,0-33.36,14-33.36,33.36a33.11,33.11,0,0,0,32.86,33.36h.5c18.62,0,33.36-14,33.36-33.36C535.12,208.09,520.38,194.9,501.76,194.9Zm0,52.75c-10.08,0-18.62-8.53-18.62-20.17s8.54-20.17,18.62-20.17,18.62,7.76,18.62,20.17C520.38,239.12,511.85,247.65,501.76,247.65ZM429.62,194.9c-18.62,0-33.36,14-33.36,33.36a33.11,33.11,0,0,0,32.86,33.36h.5c18.62,0,33.35-14,33.35-33.36C463,208.09,448.24,194.9,429.62,194.9Zm0,52.75c-10.09,0-18.62-8.53-18.62-20.17s8.53-20.17,18.62-20.17,18.62,7.76,18.62,20.17C448.24,239.12,439.7,247.65,429.62,247.65ZM343.51,205v14h33.36c-.78,7.76-3.88,14-7.76,17.84-4.65,4.66-12.41,10.09-25.6,10.09-20.94,0-36.46-16.29-36.46-37.24s16.29-37.23,36.46-37.23c10.86,0,19.4,4.65,25.6,10.08l10.09-10.08c-8.54-7.76-19.4-14-34.91-14-27.93,0-52,23.28-52,51.2s24,51.2,52,51.2c15.51,0,26.37-4.65,35.68-14.74,9.31-9.31,12.41-22.5,12.41-32.58,0-3.1,0-6.21-.77-8.53Zm352.18,10.86c-3.1-7.76-10.86-21-27.92-21s-31,13.19-31,33.36c0,18.62,14,33.36,32.58,33.36,14.74,0,24-9.31,27.15-14.74l-10.86-7.76c-3.88,5.43-8.54,9.31-16.29,9.31s-12.41-3.11-16.29-10.09l44.21-18.61-1.55-3.88Zm-45,10.86c0-12.41,10.08-19.4,17.07-19.4,5.43,0,10.86,3.11,12.41,7l-29.48,12.41Zm-36.46,31.8H629v-97H614.26ZM591,201.88a25.56,25.56,0,0,0-17.84-7.75c-16.29,0-31.81,14.74-31.81,33.35A32.13,32.13,0,0,0,573,260.06h.15a22.26,22.26,0,0,0,17.06-7.75H591V257c0,12.41-7,19.39-17.84,19.39-8.54,0-14.74-6.2-16.29-11.63l-12.41,5.43c3.87,8.53,13.18,19.39,29.47,19.39,17.07,0,31-10.08,31-34.13v-59h-14v5.43Zm-17.07,45.77c-10.08,0-18.61-8.53-18.61-20.17s8.53-20.17,18.61-20.17,17.85,8.54,17.85,20.17S584,247.65,573.9,247.65Zm189.28-86.1H728.3v97H743v-36.5h20.17c16.29,0,31.81-11.63,31.81-30.25s-15.51-30.25-31.8-30.25Zm.78,46.54H743V174.73h21A17,17,0,0,1,781,191c-.77,8.54-7,17.07-17.06,17.07Zm89.2-14c-10.86,0-21.72,4.65-25.59,14.74l13.18,5.43c3.11-5.43,7.76-7,13.19-7,7.76,0,14.74,4.66,15.51,12.42v.77c-2.32-1.55-8.53-3.88-14.73-3.88-14,0-27.93,7.76-27.93,21.72,0,13.19,11.64,21.72,24,21.72,10.08,0,14.74-4.65,18.61-9.3h.78v7.75h14V221.28c-1.55-17.07-14.74-27.15-31-27.15Zm-1.55,53.52c-4.65,0-11.63-2.33-11.63-8.53,0-7.76,8.53-10.09,15.51-10.09,6.21,0,9.31,1.56,13.19,3.11-1.58,9.35-9.34,15.55-17.1,15.55Zm81.45-51.2L916.8,238.3H916l-17.07-41.89H883.42l25.6,59L894.28,288H909l39.56-91.54ZM802.77,258.47h14.74v-97H802.77Z"></path><path class="cls-7" d="M333.56,118.23c-4,4.59-8.73,6.82-14.4,6.82a17.82,17.82,0,0,1-12.9-5.15c-3.48-3.42-5.24-8-5.24-13.54s1.76-10.13,5.24-13.54a17.82,17.82,0,0,1,12.9-5.15c5.52,0,9.74,1.92,12.93,5.89l.68.85,5.88-5.69L338,88a23.85,23.85,0,0,0-18.87-8.4,26.16,26.16,0,0,0-26.61,25.7v1a26.18,26.18,0,0,0,25.57,26.78h1a27.06,27.06,0,0,0,11.51-2.47,25.21,25.21,0,0,0,8.82-6.7l.58-.7-5.81-5.81Z"></path><path class="cls-7" d="M402.75,81l-18.44,48.75-18.53-26.49L384,82.36V81H374l-21,23.73V81h-8v51h8V117.13l6.73-7.5L375.59,132h17l4.82-13h19.32l4.75,13h9.17L411.3,81Zm11,30H400.22L407,92.31Z"></path><path class="cls-7" d="M459,100.64c-2,2.94-5.56,4.37-9.79,4.37-2.93,0-5.27-.77-6.81-2.29a8.78,8.78,0,0,1-2.4-6.55V81h-8V97.27c0,4.78,1.51,8.64,4.7,11.49A17,17,0,0,0,448.46,113a16,16,0,0,0,10.77-3.69L459,110.9V132h9V81h-9Z"></path><polygon class="cls-7" points="482.01 117.01 482 110.56 482 81 474 81 474 132 482.22 132 506.05 94 506 100.3 506 132 514 132 514 81 504.8 81 482.01 117.01"></polygon><path class="cls-7" d="M550.42,105.43a12.32,12.32,0,0,0,3.65-3.54,11.8,11.8,0,0,0,2-6.76,13.13,13.13,0,0,0-4.57-10.2A15.35,15.35,0,0,0,540.81,81H522v51h19.78A16.21,16.21,0,0,0,553,127.75,14,14,0,0,0,557.72,117a12.17,12.17,0,0,0-2.55-7.63A13.52,13.52,0,0,0,550.42,105.43Zm-4.6-5.56a6.46,6.46,0,0,1-5,2.13H530V89h11.09a6,6,0,0,1,4.8,1.89,6.57,6.57,0,0,1,1.84,4.48,6.46,6.46,0,0,1-1.91,4.5Zm1.41,21.89a6.56,6.56,0,0,1-5.18,2.24h-12V110h11.78a7.11,7.11,0,0,1,7.46,6.74v.16a7.09,7.09,0,0,1-2.07,4.86Z"></path><path class="cls-7" d="M577.65,81,558.3,132h9.17l4.82-13h19.32l4.75,13h9.18L586.19,81Zm11,30H575.11l6.77-18.69Z"></path><path class="cls-7" d="M628.68,79A9.39,9.39,0,0,0,638,69.54V68h-7v1.31a2.89,2.89,0,0,1-.59,2.1,2.22,2.22,0,0,1-1.83.83,2.36,2.36,0,0,1-1.91-.81,3,3,0,0,1-.67-2.12V68h-7v1.31a9,9,0,0,0,2.9,6.9A9.57,9.57,0,0,0,628.68,79Z"></path><polygon class="cls-7" points="616.92 117.01 617 110.56 617 81 609 81 609 132 617.04 132 640.96 94 641 100.3 641 132 649 132 649 81 639.62 81 616.92 117.01"></polygon><polygon class="cls-7" points="653 89 667 89 667 132 676 132 676 89 689 89 689 81 653 81 653 89"></polygon><polygon class="cls-7" points="694 132 725 132 725 124 703 124 703 110 723 110 723 102 703 102 703 89 725 89 725 81 694 81 694 132"></polygon><path class="cls-7" d="M780.06,109.33a13.5,13.5,0,0,0-4.75-3.9,12.44,12.44,0,0,0,3.65-3.54,11.8,11.8,0,0,0,2-6.76,13.13,13.13,0,0,0-4.57-10.2A15.42,15.42,0,0,0,765.7,81H747v51h19.67a16.15,16.15,0,0,0,11.16-4.25A14,14,0,0,0,782.61,117,12.16,12.16,0,0,0,780.06,109.33Zm-9.35-9.46a6.46,6.46,0,0,1-5,2.13H755V89h11a6,6,0,0,1,4.8,1.89,6.57,6.57,0,0,1,1.84,4.48A6.46,6.46,0,0,1,770.71,99.87Zm1.41,21.89a6.56,6.56,0,0,1-5.18,2.24H755V110h11.67a7.09,7.09,0,0,1,7.45,6.71v.19A7.05,7.05,0,0,1,772.12,121.76Z"></path></svg>