<svg xmlns="http://www.w3.org/2000/svg" viewBox="0 0 58.08 55.79">
  <defs>
    <style>.cls-1,.cls-2,.cls-3{fill:none;stroke:#14afb4;stroke-width:2px;}.cls-1,.cls-2{stroke-linejoin:round;}.cls-2{stroke-linecap:round;}.cls-3{stroke-miterlimit:10;}
</style>
  </defs>
  <path class="cls-1" d="M176.56,248a7.18,7.18,0,0,1-3.71-1.55c-3.82-3.07-5.47-8.7-2.14-13-1.27,2.88,2.79,7.13,5.92,3.78,3.52-3.77-5.74-8.59,5-16.58-3,8.91,11,11.31,6.55,21.9a9.23,9.23,0,0,1-6,5.42" transform="translate(-167.92 -219.71)"></path>
  <path class="cls-1" d="M183,245.19c.5-1.75.27-4-2.39-6.31-.11,4.07-4.61,4.06-5.44,6.31" transform="translate(-167.92 -219.71)"></path>
  <line class="cls-2" x1="46.08" y1="11.29" x2="46.08" y2="1.29"></line>
  <polyline class="cls-2" points="43.09 3.29 46.09 6.29 49.09 3.29"></polyline>
  <line class="cls-2" x1="43.42" y1="12.79" x2="34.76" y2="7.79"></line>
  <polyline class="cls-2" points="34.99 11.39 39.09 10.29 37.99 6.2"></polyline>
  <line class="cls-2" x1="48.42" y1="12.79" x2="57.08" y2="7.79"></line>
  <polyline class="cls-2" points="56.85 11.39 52.75 10.29 53.85 6.2"></polyline>
  <line class="cls-2" x1="46.08" y1="17.29" x2="46.08" y2="27.29"></line>
  <polyline class="cls-2" points="43.08 25.29 46.08 22.29 49.08 25.29"></polyline>
  <line class="cls-2" x1="43.42" y1="15.29" x2="34.76" y2="20.29"></line>
  <polyline class="cls-2" points="34.99 16.7 39.09 17.79 37.99 21.89"></polyline>
  <line class="cls-2" x1="48.42" y1="15.29" x2="57.08" y2="20.29"></line>
  <polyline class="cls-2" points="56.85 16.7 52.75 17.79 53.85 21.89"></polyline>
  <path class="cls-1" d="M196.5,246c-1.41,7.51-9.5,11.21-9.5,19a9.5,9.5,0,0,0,19,0C206,257.21,197.91,253.51,196.5,246Z" transform="translate(-167.92 -219.71)"></path>
  <line class="cls-3" x1="26.21" y1="44.11" x2="26.21" y2="46.48"></line>
  <line class="cls-3" x1="29.77" y1="47.67" x2="29.77" y2="50.04"></line>
  <line class="cls-3" x1="30.96" y1="42.92" x2="30.96" y2="45.29"></line>
  <line class="cls-3" x1="27.39" y1="39.36" x2="27.39" y2="41.73"></line>
</svg>