<svg preserveAspectRatio="none" fill="none" xmlns="http://www.w3.org/2000/svg" viewBox="0 0 119.16 91.97">
  <polygon fill="currentColor" points="93.59 36.06 93.59 45.14 100.19 45.14 100.19 55.86 113.39 55.86 113.39 45.14 119.16 45.14 119.16 36.06 93.59 36.06"></polygon>
  <path fill="currentColor" d="M118.42,54V36.48c-44.5-25-107.13-7.67-107.13,33.87,0,46.32,62.63,57.89,107.13,35.37V87.37c-16.48,5.83-44.5,4.17-44.5-16.69S98.38,46.91,118.42,54ZM46.6,77.34a7.38,7.38,0,0,1-4.12-.83V67c.37.2.82.49,4.12.49A7.36,7.36,0,0,0,54,60a7.29,7.29,0,0,0-7.43-7.43c-3.39,0-7.42,3.3-7.42,7.43L39,98c-4.31-.17-8.79-2.73-9.6-7.38l0-31.84C29.44,50.36,37,42.7,46.24,42.7A17.62,17.62,0,0,1,63.92,60.19C63.92,70.27,54.85,77.34,46.6,77.34Z" transform="translate(-11.29 -24.88)"></path>
</svg>