<?xml version="1.0" encoding="utf-8"?>
<!-- Generator: Adobe Illustrator 25.2.3, SVG Export Plug-In . SVG Version: 6.00 Build 0)  -->
<svg fill="#0472be" version="1.1" id="Слой_1" xmlns="http://www.w3.org/2000/svg" xmlns:xlink="http://www.w3.org/1999/xlink" x="0px" y="0px" viewBox="0 0 360 512" style="enable-background:new 0 0 360 512;" xml:space="preserve">
<path d="M315,211c-5.9,0-11.4,1.1-16.6,3.2c-5.2-19.1-22.7-33.2-43.4-33.2c-11.5,0-22,4.3-30,11.5c-8-7.1-18.5-11.5-30-11.5
	c-5.3,0-10.3,0.9-15,2.6V135c0-24.8-20.2-45-45-45s-45,20.2-45,45v132.4c-7.2-7.2-13.2-13.2-13.2-13.2
	c-16.6-16.6-43.6-17.6-61.3-2.2C-2.3,267.4-5.2,294.2,9,313c0.2,0.2,0.3,0.4,0.5,0.6l66.7,79.7c7.2,8.7,17.7,14,26.9,18.7
	c6.7,3.4,16.9,8.6,16.9,11.9v43c0,24.8,20.2,45,45,45h120c24.8,0,45-20.2,45-45v-31c0-5.9,5.7-13.1,11.7-20.7
	c8.6-10.7,18.3-22.9,18.3-39.3V256C360,231.2,339.8,211,315,211z M318.2,396.7c-8.6,10.7-18.3,22.9-18.3,39.3v31c0,8.3-6.7,15-15,15
	H165c-8.3,0-15-6.7-15-15v-43c0-21.6-19.2-31.5-33.2-38.6c-7-3.6-14.3-7.3-17.6-11.3l-66.4-79.3c-4.5-6.3-3.5-15,2.4-20.1
	c5.9-5.1,14.9-4.8,20.4,0.7c0,0,36.3,36.3,38.8,38.8c9.4,9.4,25.6,2.7,25.6-10.6V135c0-8.3,6.7-15,15-15s15,6.7,15,15v121
	c0,8.3,6.7,15,15,15s15-6.7,15-15v-30c0-8.3,6.7-15,15-15c8.3,0,15,6.7,15,15v30c0,8.3,6.7,15,15,15s15-6.7,15-15v-30
	c0-8.3,6.7-15,15-15s15,6.7,15,15v30c0,8.3,6.7,15,15,15s15-6.7,15-15c0-8.3,6.7-15,15-15s15,6.7,15,15v120h0
	C330,381.9,324.3,389.1,318.2,396.7z"></path>
<path d="M135,0c-8.3,0-15,6.7-15,15v30c0,8.3,6.7,15,15,15s15-6.7,15-15V15C150,6.7,143.2,0,135,0z"></path>
<path d="M216.2,23.8c-5.9-5.9-15.4-5.9-21.2,0L173.7,45c-5.9,5.9-5.9,15.4,0,21.2c5.9,5.9,15.4,5.9,21.2,0L216.2,45
	C222,39.1,222,29.6,216.2,23.8z"></path>
<path d="M96.2,45L75,23.8c-5.9-5.9-15.4-5.9-21.2,0s-5.9,15.4,0,21.2L75,66.2c5.9,5.9,15.4,5.9,21.2,0C102,60.4,102,50.9,96.2,45z"></path>
<path d="M240,90h-30c-8.3,0-15,6.7-15,15s6.7,15,15,15h30c8.3,0,15-6.7,15-15S248.2,90,240,90z"></path>
<path d="M60,90H30c-8.3,0-15,6.7-15,15s6.7,15,15,15h30c8.3,0,15-6.7,15-15S68.2,90,60,90z"></path>
</svg>
