<svg xmlns="http://www.w3.org/2000/svg" fill="#49c5ff" viewBox="0 0 47.8 61.3" style="enable-background:new 0 0 47.8 61.3" xml:space="preserve"><path d="m16.5 34.1 3 1.7.3-.5-3-1.7zM18.979 44.285l.3-.52 2.944 1.702-.3.52zM15.3 34.5h.6v3.4h-.6zM15.3 41.7h.6v3.4h-.6zM22.9 34.5h.6v3.4h-.6zM22.777 41.88l2.949-1.694.298.52-2.948 1.694zM34.3 30.6l.4.5 1.7-1-.3-.5zM32.8 33.2h.6v2h-.6zM34.334 32.659l.3-.52 1.733.999-.3.52zM29.8 33.2l.3.5 1.8-1-.3-.5zM32.8 28h.6v2h-.6zM29.8 30.1l1.8 1 .3-.5-1.8-1z"/><path d="M23 37.3s-7.2 4.2-7.5 4.3c-.3-.2-2.5-1.5-2.5-1.5l-.3.5 2.7 1.6c.1.1.2.1.3 0 0 0 7.2-4.2 7.5-4.3.3.2 2.5 1.5 2.5 1.5l.3-.5-2.7-1.6H23M32.9 35l-1.7 1 .3.5s1.4-.8 1.6-.9c.3.2 1.6.9 1.6.9l.3-.5-1.8-1h-.3"/><path d="M19.2 35.1c-.1.1-.2.2-.2.3V44c-.3.2-2.5 1.5-2.5 1.5l.3.5 2.7-1.6c.1-.1.2-.2.2-.3v-8.6c.3-.2 2.5-1.5 2.5-1.5l-.3-.5-2.7 1.6z"/><path d="m15.4 37.3-2.7 1.6.3.5s2.3-1.3 2.5-1.5c.3.2 7 4.1 7.3 4.2V45h.6v-3c0-.1 0-.2-.2-.3l-7.6-4.4h-.2M35.9 27.8v2c0 .1.1.2.2.3l1.8 1 .3-.5s-1.3-.8-1.6-.9v-1.8h-.7zM36.1 33.2c-.1.1-.2.2-.2.3v2h.6v-1.8c.3-.2 1.6-.9 1.6-.9l-.3-.5-1.7.9zM28.1 32.7s1.4.8 1.6.9v1.8h.6v-2c0-.1-.1-.2-.2-.3l-1.8-1-.2.6zM29.6 27.8v1.8c-.3.1-1.6.9-1.6.9l.3.5 1.8-1c.1-.1.2-.2.2-.3v-2l-.7.1zM31.2 27.2l1.7 1c.1.1.2.1.3 0l1.8-1-.3-.5s-1.3.8-1.6.9c-.3-.1-1.6-.9-1.6-.9l-.3.5zM11.8 2.6h.2c3.7-.4 7.6-.6 11.9-.6s8.2.2 11.9.6h.2c8.4.9 9.7 2.2 9.8 2.4-.2.2-1.4 1.5-9.8 2.4h-.2c-3.7.4-7.6.6-11.9.6-4.3 0-8.2-.2-11.9-.6h-.2C2.7 6.4 2 4.9 2 4.9s.9-1.4 9.8-2.3m0-2h-.2C1.3 1.7 0 3.5 0 4.9s1.3 3.3 11.6 4.3h.2c3.8.4 7.7.6 12.1.6 4.4 0 8.3-.2 12.1-.6h.2c10.3-1.1 11.7-2.9 11.7-4.3 0-1.5-1.3-3.3-11.6-4.3h-.2C32.2.2 28.3 0 23.9 0c-4.4 0-8.3.2-12.1.6zM15.4 21.9h-.2C8.7 21.1 8 19.8 8 19.3s.7-1.8 7.2-2.6h.2c2.6-.3 5.4-.5 8.5-.5 3.1 0 5.9.2 8.5.5h.2c6.5.8 7.3 2.1 7.3 2.6s-.7 1.8-7.2 2.6h-.2c-2.6.3-5.4.5-8.5.5-3.2.1-6-.1-8.6-.5m-.1-5.9h-.2c-5.2.7-7.8 1.7-7.8 3.2s2.5 2.5 7.8 3.2h.2c2.7.3 5.5.5 8.6.5 3.1 0 5.9-.2 8.6-.5h.2c5.2-.7 7.8-1.7 7.8-3.2S38 16.6 32.7 16h-.2c-2.6-.3-5.4-.5-8.6-.5-3.1 0-5.9.2-8.6.5z"/><path d="m43.1 7-5.2 48.3c-.1.6-1.1 2-5.9 3.1-2.5.6-5.2.9-8.2.9-3 0-5.7-.3-8.2-.9-5-1.2-5.8-2.5-5.9-3.3L4.6 7c0-.5-.5-.9-1.1-.9-.5.1-.9.6-.8 1.1l5.2 48.2c.3 3 4.4 4.3 7.4 5 2.6.6 5.5.9 8.6.9s6-.3 8.6-.9c2.9-.7 6.9-1.9 7.4-4.7 0-.1 5.2-48.4 5.2-48.4.1-.5-.3-1-.9-1.1-.5-.1-1 .3-1.1.8"/><path d="M23.9 49.6c-3 0-5.6.3-8.1.9-1.5.4-6.3 1.5-6.6 4.2v.3h.5v-.3c.2-1.5 2.3-2.7 6.2-3.7 2.4-.6 5-.8 8-.8 2.9 0 5.5.3 8 .8 3.8.9 5.8 2.1 6.1 3.5l.1.3.6-.1-.1-.3c-.6-2.5-5.1-3.6-6.6-3.9-2.5-.6-5.1-.9-8.1-.9"/></svg>