<svg xmlns="http://www.w3.org/2000/svg" fill="#c5c5c5" viewBox="0 0 47.8 61.3" style="enable-background:new 0 0 47.8 61.3" xml:space="preserve"><path d="M47.8 4.9c0-1.5-1.3-3.3-11.6-4.3H36C32.2.2 28.3 0 23.9 0c-4.4 0-8.3.2-12.1.6h-.2C1.3 1.7 0 3.5 0 4.9c0 .8.4 1.8 2.7 2.6l5.1 47.8c.3 3 4.4 4.3 7.4 5 2.6.6 5.5.9 8.6.9s6-.3 8.6-.9c2.9-.7 6.9-1.9 7.4-4.8 0-.1 4.7-44 5.2-48.1 2.4-.7 2.8-1.6 2.8-2.5zM32.1 58.4c-2.5.6-5.2.9-8.2.9-3 0-5.7-.3-8.2-.9-5-1.2-5.8-2.5-5.9-3.3l-.1-.6c.3-1.5 2.3-2.7 6.2-3.6 2.4-.6 5-.8 8-.8s5.5.3 8 .8c3.8.9 5.8 2.1 6.1 3.5l-.1.8c-.1.8-1 2.1-5.8 3.2zm6.1-5c-1.3-1.8-4.8-2.7-6.1-3-2.5-.6-5.1-.9-8.1-.9s-5.6.3-8.1.9c-1.3.3-4.8 1.1-6.1 3l-5-45.2c1.6.4 3.9.8 6.8 1.1h.2c3.8.4 7.7.6 12.1.6 4.4 0 8.3-.2 12.1-.6h.2c3-.3 5.2-.7 6.9-1.1l-4.9 45.2zM35.9 7.3h-.2c-3.7.4-7.6.6-11.9.6-4.3 0-8.2-.2-11.9-.6h-.2C2.7 6.4 2 4.9 2 4.9s1-1.4 9.9-2.3h.2c3.6-.4 7.5-.6 11.8-.6s8.2.2 11.9.6h.2c8.4.9 9.7 2.2 9.8 2.4-.2.1-1.4 1.4-9.9 2.3z"/><path d="M32.5 16c-2.6-.3-5.4-.5-8.6-.5s-5.9.2-8.6.5h-.2c-5.2.7-7.8 1.7-7.8 3.2s2.5 2.5 7.8 3.2h.2c2.7.3 5.5.5 8.6.5s5.9-.2 8.6-.5h.2c5.2-.7 7.8-1.7 7.8-3.2S38 16.6 32.7 16h-.2zm7.3 3.3c0 .5-.7 1.8-7.2 2.6h-.2c-2.6.3-5.4.5-8.5.5-3.1 0-5.9-.2-8.5-.5h-.2C8.7 21.1 8 19.8 8 19.3s.7-1.8 7.2-2.6h.2c2.6-.3 5.4-.5 8.5-.5 3.1 0 5.9.2 8.5.5h.2c6.5.8 7.2 2.1 7.2 2.6zM14.8 27h17.6v2.7H14.8zM14.8 32.3h23.1V35H14.8zM9.3 37.7h23.1v2.7H9.3zM14.8 43h17.6v2.7H14.8z"/></svg>