<svg xmlns="http://www.w3.org/2000/svg" fill="#f32929" viewBox="0 0 60 92.3" style="enable-background:new 0 0 60 92.3" xml:space="preserve"><path d="M60 61.8c-.3-6.9-4.4-15.1-11.7-17.8 0-.8.1-8.6.1-8.6h-.9.9c0-1.6-1.3-3.6-11.8-4.8h-.2c-3.8-.4-7.8-.7-12.2-.7H22c2-.7 4.2-1.3 6.3-1.9 6.6-1.9 12.2-3.5 13.7-6.4.4-.9.5-1.8.1-2.8-.3-.8-.7-1.4-1.2-2 .9-.6 1.6-1.3 2-2.1.4-.9.5-1.8.1-2.7-1.5-4.1-7.6-4.6-12.4-5-1-.1-3-.3-4-.5.8-.7 2.8-2 5.4-3 .9-.4 1.4-1.4 1.1-2.3-.3-.7-1-1.2-1.7-1.2-.2 0-.4 0-.6.1-1.9.7-5.3 2.2-7.1 4.3-2.3 1.5-4.5 3.5-3.8 5.9.6 2.1 3.8 2.7 7.9 3.4 2.5.4 5.3.9 7.7 1.8-2.1.8-4.5 1.5-6.2 2-8.1 2.4-15.8 4.7-14.5 9.7.2.8.9 1.4 1.8 1.4h.4c.5-.1.9-.4 1.1-.8.3-.4.3-.9.2-1.4 0 0-.2-.9 3.5-2.5 2.5-1 5.7-2 8.5-2.9 3.5-1 6.7-2 8.9-3.1.5.5.8 1.1 1.1 1.7.2.4.2.8 0 1.2-1.1 2.2-7.1 3.9-12.5 5.4-4.2 1.2-8.4 2.4-11.5 4-1.5.1-3 .2-4.4.4h-.2C1.3 31.8 0 33.8 0 35.4h.9H0l.6 48c0 3.1 3.4 4.8 4.7 5.4 1.8.9 3.7 1.5 6.2 2.1 3.9.9 8.1 1.3 12.8 1.3 4.7 0 8.9-.4 12.8-1.3 2.5-.6 4.4-1.2 6.2-2.1 1.3-.6 4.6-2.3 4.7-5.4 0 0 .1-4.7.1-5.3 3.6-.2 6.9-2 9.2-5.2C59 70.2 60 66.6 60 62.8c.1-.3.1-.7 0-1zM28.1 11.7c-2.7-.5-6.1-1-6.3-2-.2-.7.2-1.5 1-2.2v.1c.6 2.3 3.5 2.5 7.5 2.9 3.6.3 8.5.7 9.4 2.7-.3.4-.9.7-1.8 1.1-2.8-1.4-6.5-2-9.8-2.6zm27.3 60c-2 2.9-5.1 4.5-8.4 4.4l-1.1-.1-.1 7.3c0 1.6-2 2.8-3.5 3.5-1.6.8-3.4 1.4-5.7 1.9-3.8.9-7.8 1.3-12.3 1.3s-8.6-.4-12.3-1.3c-2.4-.6-4.1-1.2-5.7-2-1.5-.7-3.5-1.9-3.5-3.5l-.6-48s.6-1.6 9.9-2.7h.2c.3 0 .6-.1.9-.1-1 1.2-1.4 2.5-1 4.1.1.5.7.8 1.2.7.5-.1.8-.7.7-1.2-.4-1.5.7-2.8 2.6-3.9 2.4-.2 5-.3 7.7-.3 4.4 0 8.3.2 12 .6h.2c9.3 1.1 9.9 2.7 9.9 2.7l-.1 10.1.8.2c6.8 2.1 10.6 9.7 10.9 16.2 0 4-.9 7.5-2.7 10.1z"/><path d="M49.7 57.6c-.3-1-.7-1.9-1.1-2.8-.4-.9-.9-1.8-1.5-2.6-.2-.3-.4-.6-.7-.9l-.3 22.6c.1-.1.2-.1.3-.2.5-.4 1-.8 1.5-1.3.5-.6.9-1.2 1.2-1.9.4-.7.7-1.5.9-2.3.2-.8.4-1.7.5-2.5.1-.9.1-1.7.1-2.6 0-.9-.1-1.8-.3-2.7-.1-1-.3-1.9-.6-2.8zm-.9 7.9c-.1.8-.2 1.5-.4 2.2-.1.4-.3.9-.4 1.3 0-3.6.1-7.3.1-10.9.3.8.5 1.7.6 2.6.1.8.2 1.7.2 2.5 0 .7 0 1.5-.1 2.3zM44.7 35.8c-.2 0-.3.1-.3.3 0 .4-.6 1.5-6.6 2.4-3.6-.8-8.6-1.2-13.6-1.2s-9.9.4-13.5 1.2c-6-.9-6.6-2-6.6-2.4 0-.2-.2-.3-.3-.3-.2 0-.3.1-.3.3 0 .6 0 2.3 9.9 3.4h.2c3.3.4 6.8.5 10.7.5s7.4-.2 10.7-.5h.2c9.8-1.1 9.9-2.8 9.9-3.4-.1-.1-.2-.3-.4-.3z"/></svg>