<svg xmlns="http://www.w3.org/2000/svg" xmlns:xlink="http://www.w3.org/1999/xlink" fill="#c5c5c5" x="0px" y="0px" viewBox="0 0 47.8 61.3" style="enable-background:new 0 0 47.8 61.3;" xml:space="preserve">
	<path d="M47.8,4.9c0-1.5-1.3-3.3-11.6-4.3l-0.2,0C32.2,0.2,28.3,0,23.9,0c-4.4,0-8.3,0.2-12.1,0.6l-0.2,0   C1.3,1.7,0,3.5,0,4.9c0,0.8,0.4,1.8,2.7,2.6l5.1,47.8c0.3,3,4.4,4.3,7.4,5c2.6,0.6,5.5,0.9,8.6,0.9s6-0.3,8.6-0.9   c2.9-0.7,6.9-1.9,7.4-4.8c0-0.1,4.7-44,5.2-48.1C47.4,6.7,47.8,5.8,47.8,4.9z M32.1,58.4c-2.5,0.6-5.2,0.9-8.2,0.9   c-3,0-5.7-0.3-8.2-0.9c-5-1.2-5.8-2.5-5.9-3.3l-0.1-0.6c0.3-1.5,2.3-2.7,6.2-3.6c2.4-0.6,5-0.8,8-0.8s5.5,0.3,8,0.8   c3.8,0.9,5.8,2.1,6.1,3.5l0,0l-0.1,0.8C37.8,56,36.9,57.3,32.1,58.4z M38.2,53.4c-1.3-1.8-4.8-2.7-6.1-3c-2.5-0.6-5.1-0.9-8.1-0.9   s-5.6,0.3-8.1,0.9c-1.3,0.3-4.8,1.1-6.1,3L4.8,8.2C6.4,8.6,8.7,9,11.6,9.3l0.2,0c3.8,0.4,7.7,0.6,12.1,0.6c4.4,0,8.3-0.2,12.1-0.6   l0.2,0c3-0.3,5.2-0.7,6.9-1.1L38.2,53.4z M35.9,7.3l-0.2,0c-3.7,0.4-7.6,0.6-11.9,0.6c-4.3,0-8.2-0.2-11.9-0.6l-0.2,0   C2.7,6.4,2,4.9,2,4.9c0,0,1-1.4,9.9-2.3l0.2,0C15.7,2.2,19.6,2,23.9,2s8.2,0.2,11.9,0.6l0.2,0c8.4,0.9,9.7,2.2,9.8,2.4   C45.6,5.1,44.4,6.4,35.9,7.3z"></path>
	<path d="M32.5,16c-2.6-0.3-5.4-0.5-8.6-0.5S18,15.7,15.3,16l-0.2,0c-5.2,0.7-7.8,1.7-7.8,3.2s2.5,2.5,7.8,3.2l0.2,0   c2.7,0.3,5.5,0.5,8.6,0.5s5.9-0.2,8.6-0.5l0.2,0c5.2-0.7,7.8-1.7,7.8-3.2s-2.5-2.6-7.8-3.2L32.5,16z M39.8,19.3   c0,0.5-0.7,1.8-7.2,2.6l-0.2,0c-2.6,0.3-5.4,0.5-8.5,0.5c-3.1,0-5.9-0.2-8.5-0.5l-0.2,0C8.7,21.1,8,19.8,8,19.3   c0-0.5,0.7-1.8,7.2-2.6l0.2,0c2.6-0.3,5.4-0.5,8.5-0.5c3.1,0,5.9,0.2,8.5,0.5l0.2,0C39.1,17.5,39.8,18.8,39.8,19.3z"></path>
	<rect x="14.8" y="27" width="17.6" height="2.7"></rect>
	<rect x="14.8" y="32.3" width="23.1" height="2.7"></rect>
	<rect x="9.3" y="37.7" width="23.1" height="2.7"></rect>
	<rect x="14.8" y="43" width="17.6" height="2.7"></rect>
</svg>