<svg xmlns="http://www.w3.org/2000/svg" fill="#7ad6a9" viewBox="0 0 48.3 87.6" style="enable-background:new 0 0 48.3 87.6" xml:space="preserve"><path d="M12 28.3h.2c3.7-.4 7.6-.6 12-.6s8.3.2 12 .6h.2c8.5.9 9.8 2.2 9.9 2.4-.2.2-1.4 1.5-9.9 2.4h-.2c-3.7.4-7.6.6-12 .6s-8.3-.2-12-.6H12c-9.2-1-10-2.4-10-2.4s1-1.5 10-2.4m0-2h-.2C1.3 27.4 0 29.2 0 30.7c0 1.5 1.3 3.3 11.8 4.4h.2c3.8.4 7.8.6 12.2.6 4.4 0 8.4-.2 12.2-.6h.2C47 34 48.3 32.2 48.3 30.7c0-1.5-1.3-3.3-11.8-4.4h-.2c-3.8-.4-7.8-.6-12.2-.6-4.4 0-8.4.2-12.1.6zM15.6 47.9h-.2c-6.6-.9-7.3-2.2-7.3-2.7s.7-1.8 7.3-2.7h.2c2.7-.4 5.5-.5 8.6-.5 3.1 0 5.9.2 8.6.5h.2c6.6.9 7.3 2.2 7.3 2.7s-.7 1.8-7.3 2.7h-.2c-2.7.3-5.5.5-8.6.5-3.2 0-6-.2-8.6-.5m-.1-6h-.2c-5.3.7-7.8 1.7-7.8 3.2 0 1.5 2.6 2.6 7.8 3.3h.2c2.7.3 5.5.5 8.7.5s6-.2 8.7-.5h.2c5.3-.7 7.8-1.8 7.8-3.3s-2.6-2.6-7.8-3.3h-.2c-2.7-.4-5.5-.5-8.7-.5-3.2.1-6 .3-8.7.6z"/><path d="m43.6 32.8-5.2 48.8c-.1.6-1.1 2-6 3.1-2.5.6-5.2.9-8.3.9s-5.7-.3-8.3-.9c-5-1.2-5.9-2.6-6-3.3L4.7 32.8c-.1-.5-.5-.9-1.1-.9-.5 0-1 .6-.9 1.1l5.2 48.7c.3 3 4.4 4.3 7.5 5 2.7.6 5.5.9 8.7.9 3.2 0 6-.3 8.7-.9 3-.7 7-1.9 7.5-4.8 0-.1 5.3-48.9 5.3-48.9.1-.5-.3-1-.9-1.1s-1.1.4-1.1.9"/><path d="M24.1 75.8c-3 0-5.7.3-8.2.9-1.6.4-6.3 1.5-6.7 4.2v.3l.6.1V81c.2-1.5 2.3-2.8 6.2-3.7 2.5-.6 5.1-.8 8.1-.8s5.6.3 8.1.8c3.8.9 5.9 2.1 6.2 3.5l.1.3.6-.1-.1-.3c-.6-2.6-5.2-3.6-6.7-4-2.5-.6-5.1-.9-8.2-.9M27 1c-.3-.3-.7-.5-1.1-.5-.4 0-.8.2-1.1.5s-.5.7-.5 1.1c0 .4.2.8.5 1.1.3.3.7.5 1.1.5.4 0 .8-.2 1.1-.5s.5-.7.5-1.1c-.1-.4-.3-.8-.5-1.1m-1.1-1c.6 0 1.1.2 1.5.6s.6.9.6 1.5-.2 1.1-.6 1.5c-.4.4-.9.6-1.5.6s-1.1-.2-1.5-.6-.6-.9-.6-1.5.2-1.1.5-1.5c.4-.4 1-.6 1.6-.6zM21.2 19c-.3-.3-.7-.5-1.1-.5s-.8.2-1.1.5c-.3.3-.5.7-.5 1.1 0 .4.2.8.5 1.1.3.3.7.5 1.1.5.4 0 .8-.2 1.1-.5.3-.3.5-.7.5-1.1s-.2-.8-.5-1.1m-1.1-1c.6 0 1.1.2 1.5.6s.6.9.6 1.5-.2 1.1-.6 1.5-.9.6-1.5.6-1.1-.2-1.5-.6-.6-.9-.6-1.5.2-1.1.6-1.5c.4-.4.9-.6 1.5-.6zM29.9 21.5c-.3-.3-.7-.5-1.1-.5-.4 0-.8.2-1.1.5-.3.3-.5.7-.5 1.1 0 .4.2.8.5 1.1.3.3.7.5 1.1.5s.8-.2 1.1-.5c.3-.3.5-.7.5-1.1 0-.5-.2-.8-.5-1.1m-1.1-1.1c.6 0 1.1.2 1.5.6s.7 1 .7 1.6c0 .6-.2 1.1-.6 1.5s-.9.6-1.5.6-1.1-.2-1.5-.6-.6-.9-.6-1.5.2-1.1.6-1.5c.3-.4.9-.7 1.4-.7zM15.9 51.5c-.2-.2-.4-.3-.6-.3-.3 0-.5.1-.6.3s-.3.4-.3.6c0 .3.1.5.3.6.2.2.4.3.6.3.3 0 .5-.1.6-.3s.3-.4.3-.6-.2-.4-.3-.6m-.7-.9c.4 0 .8.2 1.1.4.3.3.4.7.4 1.1 0 .4-.2.8-.4 1.1s-.7.4-1.1.4-.8-.2-1.1-.4c-.3-.3-.4-.7-.4-1.1 0-.4.2-.8.4-1.1s.7-.4 1.1-.4zM32.6 50.8c-.2-.2-.4-.3-.6-.3s-.5.1-.6.3-.3.4-.3.6c0 .3.1.5.3.6.2.2.4.3.6.3.3 0 .5-.1.6-.3s.3-.4.3-.6c0-.2-.1-.4-.3-.6M32 50c.4 0 .8.2 1.1.4.3.3.4.7.4 1.1 0 .4-.2.8-.4 1.1s-.7.4-1.1.4-.8-.2-1.1-.4c-.3-.3-.4-.7-.4-1.1 0-.4.2-.8.4-1.1.3-.3.6-.4 1.1-.4zM25.6 61.2c-.2-.2-.4-.3-.6-.3-.3 0-.5.1-.6.3s-.3.4-.3.6c0 .3.1.5.3.6.2.2.4.3.6.3.3 0 .5-.1.6-.3s.3-.4.3-.6c0-.2-.1-.4-.3-.6m-.6-.9c.4 0 .8.2 1.1.4.3.3.4.7.4 1.1 0 .4-.2.8-.4 1.1s-.7.4-1.1.4-.8-.2-1.1-.4c-.3-.3-.4-.7-.4-1.1 0-.4.2-.8.4-1.1s.7-.4 1.1-.4zM34.4 58c-.2-.2-.4-.3-.6-.3-.3 0-.5.1-.6.3s-.3.4-.3.6c0 .3.1.5.3.6.2.2.4.3.6.3.3 0 .5-.1.6-.3.2-.2.3-.4.3-.6l-.3-.6m-.7-.8c.4 0 .8.2 1.1.4.3.3.4.7.4 1.1 0 .4-.2.8-.4 1.1-.3.3-.7.4-1.1.4-.4 0-.8-.2-1.1-.4-.3-.3-.4-.7-.4-1.1 0-.4.2-.8.4-1.1.3-.3.7-.4 1.1-.4zM14.7 61c-.2-.2-.4-.3-.6-.3-.3 0-.5.1-.6.3s-.3.4-.3.6c0 .3.1.5.3.6.2.2.4.3.6.3.3 0 .5-.1.6-.3s.3-.4.3-.6c0-.2-.1-.4-.3-.6m-.6-.9c.4 0 .8.2 1.1.4.3.3.4.7.4 1.1 0 .4-.2.8-.4 1.1s-.7.4-1.1.4c-.4 0-.8-.2-1.1-.4-.3-.3-.4-.7-.4-1.1 0-.4.2-.8.4-1.1.3-.2.7-.4 1.1-.4z"/><path d="M21.5 80.7c-.2-.2-.4-.3-.6-.3-.3 0-.5.1-.6.3s-.3.3-.3.6.1.5.3.6c.2.2.4.3.6.3s.5-.1.6-.3.3-.4.3-.6c0-.3-.1-.5-.3-.6m-.6-.9c.4 0 .8.2 1.1.4.3.3.4.7.4 1.1 0 .4-.2.8-.4 1.1s-.7.4-1.1.4-.8-.2-1.1-.4c-.3-.3-.4-.7-.4-1.1 0-.4.2-.8.4-1.1.3-.2.7-.4 1.1-.4zM29 71.5c-.2-.2-.4-.3-.6-.3-.3 0-.5.1-.6.3s-.3.4-.3.6c0 .3.1.5.3.6.2.2.4.3.6.3.3 0 .5-.1.6-.3s.3-.4.3-.6-.2-.4-.3-.6m-.7-.8c.4 0 .8.2 1.1.4.3.3.4.7.4 1.1 0 .4-.2.8-.4 1.1s-.7.4-1.1.4-.8-.2-1.1-.4c-.3-.3-.4-.7-.4-1.1s.2-.8.4-1.1c.3-.3.7-.4 1.1-.4z"/></svg>